<mxfile host="Electron" modified="2025-02-08T23:12:03.619Z" agent="Mozilla/5.0 (Windows NT 10.0; Win64; x64) AppleWebKit/537.36 (KHTML, like Gecko) draw.io/24.6.1 Chrome/124.0.6367.207 Electron/30.0.6 Safari/537.36" etag="ZSzaDwkhR-RGTihOUDeC" version="24.6.1" type="device">
  <diagram name="Page-1" id="Esrs2dKgZQmTNxeeVi5s">
    <mxGraphModel dx="11110" dy="5977" grid="1" gridSize="10" guides="1" tooltips="1" connect="1" arrows="1" fold="1" page="1" pageScale="1" pageWidth="850" pageHeight="1100" math="0" shadow="0">
      <root>
        <mxCell id="0" />
        <mxCell id="1" parent="0" />
        <mxCell id="XSjLxf4Ph_vKjmcvZ095-1" value="Start Here" style="shape=singleArrow;whiteSpace=wrap;html=1;fontSize=60;fontStyle=1;arrowWidth=0.4179566563467492;arrowSize=0.3152709359605914;movable=1;resizable=1;rotatable=1;deletable=1;editable=1;locked=0;connectable=1;fillColor=#ffffff;fillStyle=solid;fontColor=#000000;strokeColor=#000000;" vertex="1" parent="1">
          <mxGeometry x="-2480" y="940" width="390" height="290" as="geometry" />
        </mxCell>
        <mxCell id="XSjLxf4Ph_vKjmcvZ095-2" value="LCR" style="swimlane;whiteSpace=wrap;html=1;strokeColor=default;labelBackgroundColor=none;labelBorderColor=none;fillStyle=auto;strokeWidth=1;fontSize=16;fontColor=#F7F7F7;fillColor=#707070;fontStyle=1;movable=1;resizable=1;rotatable=1;deletable=1;editable=1;locked=0;connectable=1;" vertex="1" parent="1">
          <mxGeometry x="2580" y="810" width="500" height="360" as="geometry" />
        </mxCell>
        <mxCell id="XSjLxf4Ph_vKjmcvZ095-3" value="" style="shape=image;verticalLabelPosition=bottom;labelBackgroundColor=default;verticalAlign=top;aspect=fixed;imageAspect=0;image=data:image/png,iVBORw0KGgoAAAANSUhEUgAAAfkAAAFVCAIAAABjCgEmAAAACXBIWXMAABJ0AAASdAHeZh94AAAW+0lEQVR4nO3dT4wUZ3rH8adhhhnHxBstxrlxyG2zMpEiIkOPJgxeZLCC5ETBRjnYicT6wIUVElistCxBRApaLI3WFw7EhyiHCAsfkFgZEMHDjqYHZYmlYGVPqz3sXqKA/2xkBeYPdA5vzzs19VZXv/W/6qnv59TTVdX1ztTMb95++n3f6vR6PRHpdrsCAFDHhHzHfNHv9yttDACgEJ1OR0Q2Vd0MAEDhyHoA0K9D9QYAFFtcXBT69QDQBmQ9AOg3NmyD6fYDABptdnZW6NcDQBuQ9QCgX7iGQ+kGAPShXw8A+pH1AKAfWQ8A+pH1AKAfWQ8A+pH1AKAfWQ8A+pH1AKAfWQ8A+pH1AKAfWQ8A+pH1AKAfWQ8A+pH1AKAfWQ8A+pH1AKAfWQ8A+pH1AKAfWQ8A+pH1AKAfWQ8A+pH1AKAfWQ8A+pH1AKAfWQ8A+pH1AKAfWQ8A+pH1AKAfWQ8A+pH1AKAfWQ8A+pH1AKAfWQ8A+pH1AKAfWQ8A+pH1AKAfWQ8A+pH1AKAfWQ8A+pH1AKAfWQ8A+pH1AKAfWQ8A+pH1AKAfWQ8A+pH1AKAfWQ8A+pH1AKAfWQ8A+pH1AKDfWNUNqKMTJ05U3YRohw8fNg+uXr1abUuGsS2cmpqqtiUK8HuYGr+HLvr1AKAfWQ8A+lHDiWPfCdbEyZMnzQP73rm2LVxcXKy2JSnYmsns7Gy1LQmp7VXm97BB6NcDgH5kPQDoRw0nGfux/sLCQpbDLfs6MZvyMj8/v2XLFvN4fHxcRMbGxkP7rK6uiMjKyor5cnl5+fTp0wW1p7ZqW8zxke4qT09Pl9bCRH9EGf/iYJH1rTA/P28e7P6zXSIyMTk5MfGciGyZ2DI+tsXutrK6vLy0LCJLS4+XnjwRkZ8v9C5cuCAiNvFRW1musjm2zMRHyajhAIB+9OvLEPM+tIS3qLfv3J4YnxCR3bt22Sc70o/cOfT87l277t2/LyLnzp87e+Zs0U117dmzp4Sz7N69O/ilHVXSoGJOLlf59p3b+1/dX2QzRaLqlpX8XbQNWd8Kf7JzZ+iZvnQi93SfN8f++3/8ooiGIUdcZcSghgMA+tGvTybm7WfkQJpTP/lIREQ+EpGL773lM9gm3btX72E8Gzp0/3bn09Dm6fXXie4SqjRsKlATizkiwlWGi6wv0KmffCQv/qmIyJNH5svetbqsxPTp3TkR+d62VfNl/+lT8+DO3TkR6e5+pZpmIVfmKs/P/6X58tmzQZl+dfWacJVbhhoOAOhHvz6ZmNJNsGYyKN2YTr21dUf3jR+IyMX33op5wXRiakG379wedtSz5SXzoLN59G9CmdO+SmaWTzn74x+bL3//hRdCOzS2mCMi8uyZLdTUtGLDysMloF+fv0HpJhj0ky/K5IsiIlt3yNYda0V8ACgJWQ8A+lHDyVN06ca11rXvXfupz7ySEvSfrq49nBi5c5ktPHbsWAlneeedd0Tk5q1b5suYFXqbWMzp98MP6iamAom80K/PzYbSzXMvyXMvrW979Jk8+mxQxjG27rDlewAoGlkPAPpRw0kmsuQSUbp5/D8bDhtW1Vkr5gRH5uTFp9LSfzYYVr9pdXntuedzb0kWly5dKuEsofVwfDSomPP48WbzYHW1Fn07n3JlTWqbmtTi2jdasHRz8/Lxm5ePex32zW/km9+IlD8ypy9D1sPKsCfqhquMMLIeAPSjhpNMTOnm5uXjr039sXlw4K/+Lrhp4NFnsnXH4LF9YGzb6U6zKsaG2TSdTYN39zK5VrpZit4zSN/b6iy3xrbH3vjkE/Pg4Ouv59CmTDZcu8nJtUrdpqfxexYq3QrGFHPyQr8+pQ2jbvqr0l898O4HtxZ+eWvhlwfe/SA8l8qIGYu59DXTrAAUh6wHAP2o4SQ2GBQf7KR3Bj/GA+9+kO41b/7zmQN/e16k2JE5rs4m/tmLeKyHM/JYEVlcXMy9YSP5rHpk+cylyr1UkmjUjc/hFHPS4U8dAPQj65PpvvGD6Fq8YebHukLTaB0H/vrd9S8o3APIGzWcXA37HxCaWiUiE38gIrL09eDLrTv6v7467FXff//9FG0Z8u5+49v4zto/+/4z5wXCb/gree9ct/VwrJqUboZciw3XbmwspnYT3pRXqcTn8HTlHYo56dCvr17/11djgl4CsQIA6dCvT+7JIxGRyRcH5ZqRq1pGsj36svmPp67pfS3ggauMMLI+rSePEqe8+SexUbBH3/nO92Xp67071nebm5szDwrq2nc2r82lks1x+4lIRe+d67YeTt1KNz7jcJ4+HQR6J0mwp7vciYbN5FXeoZjjgxpOXXS+8/29f/irYNCLyMzMzMzMTPDLklsFQAeyPpmL7721vmzZk0eDrro7zCY0IGfY+Jygyqo6APSjhuMleJec3rUpMYMvzZo2NvGDtyJx7ioefsW1RS47fzQY8hHs0R86dGhYS0Z27RO9n+2srWn8bH04Rht/JUYOvKm2dBPD5ypv3lzlSpbp6ipUY3LXxj/smgsGPSNwAOSCGk5KG4o5hunghz6AdZ8REZGbH1+++fHlgtsIAAP0671ErsK6XswxbKHGDffQzCmRweo3Iva/xaFDgwVwIvvy6aZTjdT/6r/XWmhvRzX03uKKRzsMWw+ntqWbRL78ctI8mJxcqbYlRrpfJMW/fuUg65vh+vXrVTcBQIOR9VnZBSnXV7BxP4l1x9isded7135qHpTcW9m3d0ZE7tqTPrXPT4nI0tLjMhuDgpirPDb2cej56akZ4Sq3DFmfG5va61Udj53diLflmuvXr9u5VObBzMyMeRAz92fU/4wNQzK+9+q+8bEt9suV1eXlpeXIPaWiqSuVrIdz794986BupRvvS5D+KlvprnLGKVQ+r5yxha3FZ7O1FppLBQDp0K/PXzm3GUnkPx88EJHdu3bZZzpDOnTu8+ZY1B9XGTHI+pTyKmjYkR7uSJvIGVX+c6mC5ufnReTe/ft/PtU1z/SHLHoVev7e/fvmwf5X98eftyCmulKOA6+9Zh7UrXTjcn/9pqamLly4INmu8tkzZ91T5NXC3FG6SYQaTl1EDrU8efIk06kAZEe/vhWmp6dFZH5+/t4vBj248fFxERkbGw/tubq6IiIrKyuhY1F/p0+fFpELFy6kuMrmWChG1meVcVDBwsKC7bnHdOH951LFtCev1Nb63vng669X3YTE3GuR7ioXd021/rY0DllfPZPj8UHPXCoAWVCvBwD96NdHsCvclvy5qM9QejOXypZ0+ORWsap+D/3Vv4Ww6NfXyNzcnJ0oO2yHkpoCQBeyHgD06/T7G2bQ1X8WCQDA3+zsrNCvB4A2IOsBQD+yHgD0I+sBQD+yHgD0I+sBQD+yHgD0I+sBQD+yHgD0I+sBQD+yHgD0I+sBQD+yHgD0I+sBQD+yHgD0I+sBQD+yHgD0I+sBQD+yHgD0I+sBQD+yHgD0I+sBQD+yHgD0I+sBQD+yHgD0I+sBQD+yHgD0I+sBQD+yHgD0I+sBQD+yHgD0I+sBQD+yHgD0I+sBQD+yHgD0I+sBQD+yHgD0I+sBQD+yHgD0I+sBQD+yHgD0I+sBQD+yHgD0I+sBQD+yHgD0I+sBQD+yHgD0I+sBQD+yHgD0I+sBQD+yHgD0I+sBQD+yHgD0I+sBQD+yHgD0I+sBQD+yHgD0I+sBQD+yHgD0G6u6AUij2+1W3YRor7zyinkwOztbbUsU4CojR/TrAUA/sh4A9KOG02w//6fBg6Xl8KaJLYMH39o6ePC7b/I5qX1B163fHs7nHAj45O+/bR4srYY3Taz9BX/r9wb9tt/937NcTmpf0LXQ4SpntWfP3wzbtLj4r0WckX49AOhH1gOAftRwlLAVG1ei0o1bn3EPt8/kXh1CvInhf6+JSjdufcY93D4TUR163v9U+iWqxsTs7O6T6PCRlR/69QCgH1kPAPpRw1EiZmyMLbDEjNVxd7Z8jkI5YsbG2AJLzFgdd2fL5ygk5VOxKe7wEPr1AKAfWQ8A+vE+TQl3bEyMmCKMW7Fxj/I5BYrgjo2JEVOEcSs27lE+p0BqMcNm8i3dWFxOANCPrAcA/ajhaBMzrcmnCOMzDmfzWg/hy/9N1jbkJWbmlE8Rxmcczqa1o7/6Jp8FdrSy1Zi8lrjJdwqVRb8eAPQj6wFAP2o4atnai8/UJ3e+lT3KPZzSTX3Y2ovP1Cd3vpU9yj2c0k12ea1OnMvr0K8HAP3IegDQjxqOEj61l5jhN+7hrFdcQz61l5jhN+7hud/NqoUKmvqUO/r1AKAfWQ8A+lHD0SZmCeLNzn/2p84bd3s4pZs6i1mCeJNzlZ+5V3ntcEo3qWWc31Rc5WfY2enXA4B+ZD0A6EcNRwl31I1bzHErNjGFGkbm1JA76sYt5rgVm5hCDSNz2oN+PQDoR9YDgH7UcJRw50m5lRaf9YpjXtkdxoOSufOk3EqLz3rFMa/sDuOBDlxYANCPrAcA/ajhaJOo0mLH2PgUc+wwnpjpWihHokqLHWPjU8yxw3hipmtBYm9HZZ+JmVSVbpniLBO46NcDgH5kPQDox7syJXzmN8VMhnrp2+FNPgvjULopmc/8ppjJUC+9EN7kszAOpZt4PvcWL+HsI9GvBwD9yHoA0I+3Z802fbTvPjn/YSdy64Mrg+eXlmX/sehN00f75nGiiVfrM7m+8ms3kjh49gv3yRvntkVuXby43TxYWpU3zkdvOnj2C/M40cSrmDteIZLPgJxEr5MFWd94w6LZBP38hx0TxDuP9HceGeS4Cfrblzqm4D59dH0T6mlYNJugv3FumwniPace7jn10Oxsgv7amW2m4H7w7Bd2E1qIrNfg+KW97pNzR2X+w86Zfxlsmjsy2PODY3dF5Palzj9c2Wv3DG4yj8+/fbfwdiOJH/7su+6TB8/KjXPbLnz6svly7tRgz3/8i/8SkWtnts3Ov2z3DG4yj0/v+7zwdqMeyPrG23mkb3LcCHbP14N+bs4+efzS3rkjsh70ziaWLK6hPacemhw3gt3z9aAPXMof/uy7c6fEBr27iSWL8+JTYHH3ianqJKrY+JeJKMA124MrnQdXOjNrRGTnkXAF3/yd2yK+u+n2Jao3tbZ4cfvixe3Bq7zn1MPQPuZS2iK+u+namYhNaA+yXhUTBMGSjg1628cPbQoWc9AI5ioHSzo26G0fP7QpWMxBO1HD0cDW2S1TjbHv3IcFvYj4B33Mra8o+5TA1tktU42xl3JY0IuIf9DH3PpqvezzvOeLYajyJ16R9c02cvyM6QOKiPtZq930oyN8DFtrI8fP2EvpftZqN52Y5mPYVqOG03jBAr1brDfOv303ciS+iPzoyN3QWHvUULBA7xbrjdP7Po8ciS8iJ6Y/D421R9vQr2+2+Q87ZnS8u+nBlc7OI/3gAIzQUZGbRGT6aN+MwgzuL1HL6bAeTjlunNtmRse7mxYvbt9z6mHkpTRHDbvKB89+YUZhBveXqOV0WA8nNXdsTKLSTcbDQ7iMjRf5uaup4D+40nGH3ptiTuRR59++a2Ld2bRXoj4VQGkiP3c1FfzFi9vdofemmBN51Ol9n5tYdza9LFGfCkAHajgahGrxwVAOBXRwz9BRTJ6quVAtPhjKoYAO7hk6islTrdXp9ze8/V9cXKyqKfB34sQJ8+Dw4cPVtmSYqampqpvQeFxlxbLcYSqp2dlZoV8PAG1A1gOAftRwAEAzajgA0BZkPQDox/h6AFDIlG4s+vUAoB9ZDwD6DZZI7PV65kGo2w8AUIB+PQDoR9YDgH4dU73pdrvm6zfffLPS9gAA8ke/HgD0I+sBQL+OHYFj2GIOAEAN+vUAoB9ZDwD6hWs4AAB96NcDgH5kPQDoR9YDgH5kPQDoR9YDgH5kPQDoR9YDgH5kPQDoV969xROttJPXDC970vq/oCvRKdK9TplHJXqdmFf2uQS5Xyag6ejXV6bb7caHnWcUpnudMo8CUDmyHgD0K6+G476bbvMb7WD/N+YnYx54llP8X6fMo3y08BcAKFl5Wa9eun9dkTuHbgyZ+nVqdRSAClHDAQD9GtOvTzT2w905ptOd16iSREroGqf7mLTMo2IO560DkK8GZP3IHOl2uwVFQ3GvPPK85R9eScoDKAc1HADQr+79+nRjPxLNu4nclGJUScZ3AJEd5BSv6f7EfLreZR7lomIDFK3uWW/lNV4l0emaVaAItdYzQMs8CkBVqOEAgH6N6dcXpyad92DXOEUFKb7YVYejAFSo1Vlfk5R3lV/7ZlIVoBs1HADQr739ep9CRKKedaI1EtItqBB/FD16AMM0JusjpzX5Z3Hus6LyesGM39fIF6/5UVkU+qMDlKGGAwD6dSp8M+5Zx/DpqfnfRClyuEui1x/2gknLMim+r8hTpPv5lHnUMKkX8sy3GUAbNCDrQzu7MtbHM6ZeEdNlU5y0PfcgzL0ZQBtQwwEA/ars1yOpNt/JC0AW9OsBQD+yHgD0o4YDAPrRrwcA/ch6ANCPrAcA/ch6ANCPrAcA/cpb59JnHlDuCw+UcK4GaeKKCMVdSp8FJ3JfACP16kn+R7n7xDQD7dGYNY2RxcicTbc+cO4rRZej6HWP67+ucgs7OqCGAwD60a/XL/4OXMPuY57uKB/16Uvm3pJ6VktiloNu6DszpEDWN1K69+Axdy5sz/rA5RRYavtDiyniQzdqOACgX2P69cWNBinzBiAxhxfXsy6hUpHx8HJ6wTF3KIvcQRK+f2poTzlFFQ5N1ICsr+dokBxvbF3tN5iozQ2Ns5Cif1sakZsja3dQhhoOAOhX93597qNBEk1midyUbuCKu4/PUcPOVcRNbke+ptvUdL3CSrq9iQprDD+HPhVkfbrqR7oxJEUoaOBKfb5B18hKd501uvHD5FhCREtQwwEA/crr1/d6vXQDVCpUZkepzHNFTq4ZVgfzqU01QqMbbzTxjwg1UU2/vtvtBn9la/jeM9TCpMfm25hC9Xo9z2hoYoJUci3KOWnGP6Isv+FoImo4AKBfqZ/NNmU6froRNcH31yl6TLmvbZtu50g1uS6JlP+RrGeBJftZJNc/oiZeXKRQ9zGXVnGL7uY4UynLsJkSZoSVOf8rd6kbn+Wnmvqi1HbUJnWb1qKGAwD6dWoysaXo5WXiZ0W5+/h3f7LXXlKcK2m3MfclemKOytKGyJdN0YzsY4eylIB8CiypfxoxZ/GvN448BPpUU8MJ1Trif+HSFSh9yikx++Q+iWlk+7P/8Y/cP/efYTlJkaUZGT+iyDgxuNCCSaI/oshj0SrUcABAv2pqOCp5duL4gQMoH/36UhH0ACpB1gOAftRwAEA/+vUAoB9ZDwD6kfUAoB9ZDwD6kfUAoF95aySkWwOgtusFugpd5AAAsqBfDwD6kfUAoF+Vc6kaVJ/xoezbAaBJY+5LVQniG4AO1HAAQL+69+vdnnXM7Xh8uuEl3Hkj91Pkflep3H8+Rd/3FUBGdc96H27QFHcj8oySnqKgG3/n+PPhXtVAI1DDAQD96j4OJ6aG0+v1RnYqIys/6W5EnlGKU6S7QXa677SIowDUR7NrOMNur1zEjcgzKuEUkWdM2oyqfj4ACkUNBwD0a3a/PoUGdU6DRaphzc44NiZpe9xnsrQQQGno19dar9eLz8rK/3XVv4UAhKwHgDbQUMNJVCVIN7w90bCZ3KsWkS8YKp5EFljybUbMN5iuhQBK07p+fQklhchTdLvdkqsZOc7DKr/xAPLVuqwHgBbSUMPx4TNiJLhzcadINysq/rwpmhE6Nl3j07UQQPnakvWSakJQ0pBKN1MpixynPhXUeIIeqANqOACgX5Xr4QAAykG/HgD0I+sBQD+yHgD0I+sBQD+yHgD0I+sBQL//B9GGirW2Bw3yAAAAAElFTkSuQmCC;" vertex="1" parent="XSjLxf4Ph_vKjmcvZ095-2">
          <mxGeometry y="19" width="505" height="341" as="geometry" />
        </mxCell>
        <mxCell id="XSjLxf4Ph_vKjmcvZ095-8" value="" style="whiteSpace=wrap;html=1;strokeColor=#97D077;strokeWidth=4;fillColor=none;movable=1;resizable=1;rotatable=1;deletable=1;editable=1;locked=0;connectable=1;" vertex="1" parent="XSjLxf4Ph_vKjmcvZ095-2">
          <mxGeometry x="94" y="80" width="50" height="50" as="geometry" />
        </mxCell>
        <mxCell id="XSjLxf4Ph_vKjmcvZ095-12" value="" style="whiteSpace=wrap;html=1;strokeColor=#97D077;strokeWidth=4;fillColor=none;movable=1;resizable=1;rotatable=1;deletable=1;editable=1;locked=0;connectable=1;" vertex="1" parent="XSjLxf4Ph_vKjmcvZ095-2">
          <mxGeometry x="148" y="80" width="50" height="50" as="geometry" />
        </mxCell>
        <mxCell id="XSjLxf4Ph_vKjmcvZ095-16" value="" style="whiteSpace=wrap;html=1;strokeColor=#C3ABD0;strokeWidth=4;fillColor=none;movable=1;resizable=1;rotatable=1;deletable=1;editable=1;locked=0;connectable=1;" vertex="1" parent="XSjLxf4Ph_vKjmcvZ095-2">
          <mxGeometry x="310" y="80" width="50" height="50" as="geometry" />
        </mxCell>
        <mxCell id="XSjLxf4Ph_vKjmcvZ095-19" value="" style="whiteSpace=wrap;html=1;strokeColor=#FF8000;strokeWidth=4;fillColor=none;movable=1;resizable=1;rotatable=1;deletable=1;editable=1;locked=0;connectable=1;" vertex="1" parent="XSjLxf4Ph_vKjmcvZ095-2">
          <mxGeometry x="310" y="195.00000000000045" width="50" height="50" as="geometry" />
        </mxCell>
        <mxCell id="XSjLxf4Ph_vKjmcvZ095-27" value="" style="whiteSpace=wrap;html=1;strokeColor=#97D077;strokeWidth=4;fillColor=none;movable=1;resizable=1;rotatable=1;deletable=1;editable=1;locked=0;connectable=1;" vertex="1" parent="XSjLxf4Ph_vKjmcvZ095-2">
          <mxGeometry x="148" y="195" width="50" height="50" as="geometry" />
        </mxCell>
        <mxCell id="XSjLxf4Ph_vKjmcvZ095-5" value="" style="edgeStyle=none;orthogonalLoop=1;jettySize=auto;html=1;rounded=1;shadow=0;strokeColor=#82b366;strokeWidth=2;fillColor=#d5e8d4;shape=flexArrow;labelBorderColor=#000000;fontSize=16;fontColor=#000000;labelBackgroundColor=#FFFFFF;fillStyle=solid;exitX=0.5;exitY=1;exitDx=0;exitDy=0;movable=1;resizable=1;rotatable=1;deletable=1;editable=1;locked=0;connectable=1;entryX=0;entryY=0.5;entryDx=0;entryDy=0;" edge="1" parent="1" source="XSjLxf4Ph_vKjmcvZ095-24" target="XSjLxf4Ph_vKjmcvZ095-8">
          <mxGeometry width="80" relative="1" as="geometry">
            <mxPoint x="2300" y="800" as="sourcePoint" />
            <mxPoint x="2280" y="780" as="targetPoint" />
          </mxGeometry>
        </mxCell>
        <mxCell id="XSjLxf4Ph_vKjmcvZ095-11" value="Sodium Hydroxide Dust" style="edgeLabel;html=1;align=center;verticalAlign=middle;resizable=0;points=[];" vertex="1" connectable="0" parent="XSjLxf4Ph_vKjmcvZ095-5">
          <mxGeometry x="-0.2305" y="2" relative="1" as="geometry">
            <mxPoint as="offset" />
          </mxGeometry>
        </mxCell>
        <mxCell id="XSjLxf4Ph_vKjmcvZ095-13" value="" style="edgeStyle=none;orthogonalLoop=1;jettySize=auto;html=1;rounded=1;shadow=0;strokeColor=#82b366;strokeWidth=2;fillColor=#d5e8d4;shape=flexArrow;labelBorderColor=#000000;fontSize=16;fontColor=#000000;labelBackgroundColor=#FFFFFF;fillStyle=solid;exitX=0.5;exitY=1;exitDx=0;exitDy=0;movable=1;resizable=1;rotatable=1;deletable=1;editable=1;locked=0;connectable=1;entryX=0.5;entryY=0;entryDx=0;entryDy=0;" edge="1" parent="1" source="XSjLxf4Ph_vKjmcvZ095-25" target="XSjLxf4Ph_vKjmcvZ095-12">
          <mxGeometry width="80" relative="1" as="geometry">
            <mxPoint x="2500" y="640" as="sourcePoint" />
            <mxPoint x="2660" y="640" as="targetPoint" />
          </mxGeometry>
        </mxCell>
        <mxCell id="XSjLxf4Ph_vKjmcvZ095-14" value="Epichlorohydrin Cell" style="edgeLabel;html=1;align=center;verticalAlign=middle;resizable=0;points=[];" vertex="1" connectable="0" parent="XSjLxf4Ph_vKjmcvZ095-13">
          <mxGeometry x="-0.4836" y="-1" relative="1" as="geometry">
            <mxPoint as="offset" />
          </mxGeometry>
        </mxCell>
        <mxCell id="XSjLxf4Ph_vKjmcvZ095-15" value="" style="edgeStyle=none;orthogonalLoop=1;jettySize=auto;html=1;rounded=1;shadow=0;strokeColor=#9673a6;strokeWidth=2;fillColor=#e1d5e7;shape=flexArrow;labelBorderColor=#000000;fontSize=16;fontColor=#000000;labelBackgroundColor=#FFFFFF;fillStyle=solid;exitX=1;exitY=0.5;exitDx=0;exitDy=0;movable=1;resizable=1;rotatable=1;deletable=1;editable=1;locked=0;connectable=1;entryX=0;entryY=0.5;entryDx=0;entryDy=0;" edge="1" parent="1" source="XSjLxf4Ph_vKjmcvZ095-16" target="XSjLxf4Ph_vKjmcvZ095-23">
          <mxGeometry width="80" relative="1" as="geometry">
            <mxPoint x="3200" y="830" as="sourcePoint" />
            <mxPoint x="3360" y="830" as="targetPoint" />
          </mxGeometry>
        </mxCell>
        <mxCell id="XSjLxf4Ph_vKjmcvZ095-17" value="Salt Water" style="edgeLabel;html=1;align=center;verticalAlign=middle;resizable=0;points=[];" vertex="1" connectable="0" parent="XSjLxf4Ph_vKjmcvZ095-15">
          <mxGeometry x="-0.0387" y="4" relative="1" as="geometry">
            <mxPoint as="offset" />
          </mxGeometry>
        </mxCell>
        <mxCell id="XSjLxf4Ph_vKjmcvZ095-20" value="" style="edgeStyle=none;orthogonalLoop=1;jettySize=auto;html=1;rounded=1;shadow=0;strokeColor=#d79b00;strokeWidth=2;fillColor=#ffe6cc;shape=flexArrow;labelBorderColor=#000000;fontSize=16;fontColor=#000000;labelBackgroundColor=#FFFFFF;fillStyle=solid;exitX=1;exitY=0.5;exitDx=0;exitDy=0;movable=1;resizable=1;rotatable=1;deletable=1;editable=1;locked=0;connectable=1;entryX=0;entryY=0.5;entryDx=0;entryDy=0;" edge="1" parent="1" source="XSjLxf4Ph_vKjmcvZ095-19" target="XSjLxf4Ph_vKjmcvZ095-22">
          <mxGeometry width="80" relative="1" as="geometry">
            <mxPoint x="3210" y="1050" as="sourcePoint" />
            <mxPoint x="3370" y="1050" as="targetPoint" />
          </mxGeometry>
        </mxCell>
        <mxCell id="XSjLxf4Ph_vKjmcvZ095-21" value="Molten Epoxide" style="edgeLabel;html=1;align=center;verticalAlign=middle;resizable=0;points=[];" vertex="1" connectable="0" parent="XSjLxf4Ph_vKjmcvZ095-20">
          <mxGeometry x="0.498" y="-1" relative="1" as="geometry">
            <mxPoint as="offset" />
          </mxGeometry>
        </mxCell>
        <mxCell id="XSjLxf4Ph_vKjmcvZ095-22" value="Molten Epoxide" style="whiteSpace=wrap;html=1;strokeColor=#d79b00;strokeWidth=4;fillColor=#ffe6cc;fontSize=16;labelBackgroundColor=none;labelBorderColor=none;fillStyle=solid;movable=1;resizable=1;rotatable=1;deletable=1;editable=1;locked=0;connectable=1;fontColor=#000000;" vertex="1" parent="1">
          <mxGeometry x="3420" y="1010" width="200" height="40" as="geometry" />
        </mxCell>
        <mxCell id="XSjLxf4Ph_vKjmcvZ095-23" value="Salt Water" style="whiteSpace=wrap;html=1;strokeColor=#9673a6;strokeWidth=4;fillColor=#e1d5e7;fontSize=16;labelBackgroundColor=none;labelBorderColor=none;fillStyle=solid;fontColor=#000000;" vertex="1" parent="1">
          <mxGeometry x="3380" y="789" width="200" height="40" as="geometry" />
        </mxCell>
        <mxCell id="XSjLxf4Ph_vKjmcvZ095-24" value="Sodium Hydroxide Dust" style="whiteSpace=wrap;html=1;strokeColor=#82B366;strokeWidth=4;fillColor=#D5E8D4;fontSize=16;labelBackgroundColor=none;labelBorderColor=none;fillStyle=solid;fontColor=#000000;" vertex="1" parent="1">
          <mxGeometry x="2170" y="690" width="200" height="40" as="geometry" />
        </mxCell>
        <mxCell id="XSjLxf4Ph_vKjmcvZ095-25" value="Epichlorohydrin" style="whiteSpace=wrap;html=1;strokeColor=#82B366;strokeWidth=4;fillColor=#D5E8D4;fontSize=16;labelBackgroundColor=none;labelBorderColor=none;fillStyle=solid;fontColor=#000000;" vertex="1" parent="1">
          <mxGeometry x="2860" y="580" width="200" height="40" as="geometry" />
        </mxCell>
        <mxCell id="XSjLxf4Ph_vKjmcvZ095-26" value="" style="edgeStyle=none;orthogonalLoop=1;jettySize=auto;html=1;rounded=1;shadow=0;strokeColor=#82b366;strokeWidth=2;fillColor=#d5e8d4;shape=flexArrow;labelBorderColor=#000000;fontSize=16;fontColor=#000000;labelBackgroundColor=#FFFFFF;fillStyle=solid;exitX=0.75;exitY=1;exitDx=0;exitDy=0;movable=1;resizable=1;rotatable=1;deletable=1;editable=1;locked=0;connectable=1;entryX=0;entryY=0.5;entryDx=0;entryDy=0;" edge="1" parent="1" source="XSjLxf4Ph_vKjmcvZ095-29" target="XSjLxf4Ph_vKjmcvZ095-27">
          <mxGeometry width="80" relative="1" as="geometry">
            <mxPoint x="2400" y="1150" as="sourcePoint" />
            <mxPoint x="2560" y="1150" as="targetPoint" />
          </mxGeometry>
        </mxCell>
        <mxCell id="XSjLxf4Ph_vKjmcvZ095-28" value="Molten Bisphenol A" style="edgeLabel;html=1;align=center;verticalAlign=middle;resizable=0;points=[];" vertex="1" connectable="0" parent="XSjLxf4Ph_vKjmcvZ095-26">
          <mxGeometry x="-0.4432" relative="1" as="geometry">
            <mxPoint y="-1" as="offset" />
          </mxGeometry>
        </mxCell>
        <mxCell id="XSjLxf4Ph_vKjmcvZ095-29" value="Molten Bisphenol A" style="whiteSpace=wrap;html=1;strokeColor=#82B366;strokeWidth=4;fillColor=#D5E8D4;fontSize=16;labelBackgroundColor=none;labelBorderColor=none;fillStyle=solid;fontColor=#000000;" vertex="1" parent="1">
          <mxGeometry x="2050" y="829" width="200" height="40" as="geometry" />
        </mxCell>
        <mxCell id="XSjLxf4Ph_vKjmcvZ095-31" value="LCR" style="swimlane;whiteSpace=wrap;html=1;strokeColor=default;labelBackgroundColor=none;labelBorderColor=none;fillStyle=auto;strokeWidth=1;fontSize=16;fontColor=#F7F7F7;fillColor=#707070;fontStyle=1;movable=1;resizable=1;rotatable=1;deletable=1;editable=1;locked=0;connectable=1;" vertex="1" parent="1">
          <mxGeometry x="1490" y="810" width="505" height="360" as="geometry" />
        </mxCell>
        <mxCell id="XSjLxf4Ph_vKjmcvZ095-30" value="" style="shape=image;verticalLabelPosition=bottom;labelBackgroundColor=default;verticalAlign=top;aspect=fixed;imageAspect=0;image=data:image/png,iVBORw0KGgoAAAANSUhEUgAAAfUAAAFUCAIAAACyajINAAAACXBIWXMAABJ0AAASdAHeZh94AAAgAElEQVR4nO3dfZAc5Z3Y8V93z+zOrlYSxsa+Ot+JMlVXl8ofCeAkEqvDcOZKvLhIorDIYBs4IL5AkdwhSrwUHFUhGIEOzsvFxtKdTwdYZwNG1IGNeecAq5AglQL/kT/yRwyFHJdNzAEraXdnpqe788fT/Uxv90xrpuet59nvp5ai1U+/PNsz89tnfv08T1sHDx4UAIBxSup/s7Ozo60HAKC/7FFXAAAwEMR3ADCTpf4XBMFo6wEA6C/a7wBgJuI7AJjJIjMDAEai/Q4AZiK+A4CZSu0KDh06NMx6AAD6i/Y7AJiJ+A4AZkrmZ0jLAIAZaL8DgJmI7wBgprb9ZwZn+/btwz9pJ+bm5tTC/v37R1uTdsaohps3bx5tTQzAJyW3MarhQD8ptN8BwEzEdwAw0wjyM5r+hlIQO3bsUAv6Ox017JauIR2x+qiwr3Lx34fFr+FAPym03wHATKNsv99w4Q9F5Js/3hZfo/+pSuPiWwIAso0yvivxmB5fKSIX3fJZdXM5Hutff/11tZC+75yvCACMNOL8jIrs6aa6iFx0y2fjm9F4B4CujD7/nhHiAQC5jT6+CyEeAAagEPFduHcKAP1WlPguhHgA6KvR95+RWOeWGy4Ml2+4MFn0xD2/jN9xjRdlHDCj6PDhw2rh0ksvzVdtACiyQsT3tItu+ewT9/xy1LUAgDFWoPxMtkTjHQCQbZTt93TC/a9ePP8L54iITEyUd7/2eRGxHUcVnXuhpRZsK1yw7GjBOv5CEARqwWt4amHPtw7371cBgMIZm/Y7AKArxHcAMFOx7q9OTEyohclKuFCvuWFZ9JeoMj2lFtJJGJ26WV6uhluHK2RquqIW3Hp0QAAwGu13ADAT8R0AzFSs/IzjhH9vdFpmZu0atWDbYZHOvaxZMx0VJdMya9etVQtRwkYe+8GP1MLWufMHUnUAKBja7wBgJuI7AJipWPkZaXaJCVfYqUFMek2rIjtRpDvQpDvbAIDZaL8DgJmI7wBgpmLlZ3TyZGpNOBxpeSnsEmNHXWt0t5nYsKZkke5IY0X5mUu++u/UQp3xTQBWB9rvAGAm4jsAmKlo+ZlwoTlSae2MWmiOb4oyNmtmpqPdwv8vRUUzM8kcziPff1ItXDR3wQAqDgCFQ/sdAMxEfAcAMxUrP6NljUGykktWalRUeuvYToxvArAq0H4HADMR3wHATMXKz0QPwZZKJRzftLi4pBZ0/xk9iCkIfLXg+1a7vXTqZtul4fimhsv4JgCrAu13ADAT8R0AzFSs/IwbJU/0k7L1E510fqZer6uFFs/XjrZxHCdR5EZ7uQ1vMHUHgGKh/Q4AZiK+A4CZCpGfOXz4sFp48K8P9/fIQdQjh8c2AVhtaL8DgJmI7wBgpkLkZy699NLEmkceeWRoRQBgJNrvAGAm4jsAmIn4DgBmIr4DgJmI7wBgJkuPAFIOHTo06FO+/vrramHHjh2DPlc+9913n1qghrkN4Y3Ud2eccYZaKEjl+aT0rvg1HOibjfY7AJiJ+A4AZhpBfmb79u2DPkU+c3NzamH//v2jrUk7Y1TDzZs3j7YmOej8jDbaRA2flNzGqIYD/aTQfgcAMxHfAcBMo5x/Rn9DKQh9h11/p6OG3dI17FdmI50zGaaC9Kgp7Ktc/Pdh8WtI/xkAQNeI7wBgpkLMDwwUXEESNUBXaL8DgJmI7wBgJvIzQBdI1GCM0H4HADMR3wHATORnUGjXXnvt0M61e/fuzjdWiZpNmzbNz88PrEZAT2i/A4CZiO8AYCbyMyi0rnImwzc3N6dn8SVRg6Kh/Q4AZiK+A4CZyM8APdETzz737LNq4bzzzx9ddYAm2u8AYCbiOwCYifwM0JPhPIgHyIH2OwCYifgOAGYiP4NCK+z8M8qOHTtIy6CwaL8DgJmI7wBgJvIzKLTCzj+jEkeXX375qCsCtEX7HQDMRHwHADORnwG6oPvzkJlB8dF+BwAzEd8BwEzkZ4DjIy2DcUT7HQDMRHwHADORn0GhjXb+GdIyGGu03wHATMR3ADAT+RkU2kgSI6RlYAba7wBgJuI7AJiJ/AwQIi0Dw9B+BwAzEd8BwEzkZ4AQaRkYhvY7AJiJ+A4AZiK+A4CZiO8AYCbiOwCYaQT9Z+bm5tTCjh07hn/2TlBDFEHxX2VqWHC03wHATMR3ADCTFQRB/N+HDh0a9ClnZ2cHfYp8Nm7cqBbefPPN0daknTGq4fz8/GhrYgA+KbmNUQ0H+kmh/Q4AZiK+A4CZRjn/zH333ZdY02g01ILnee32chxHLUxPT6uFer2uFkql8NfRSSddZNvhXzLf9xMH1EWa/k535RkbEkV+dGQ/sMJzpWpoR+smw5pKI9rYsfTukliwwk0kSB1RF/3z/zCXqOF/f2hvuE20ccMNr2HDc9sdsHkNZ2bUghtdqHJ0Df3ATxRZlh0dMH0NwwPWPvgoeTL07MXvtC2anEiuWT+TXLNw7PinOHFdcs2HR8KFWj1Z9LPF5Pvw8+e8JrYlIuJ7gR+IiO81LNsWEbvkVE48UUTcxcVSZUpEgobnLi+JiGU7Xq0mIkHg2yVHRCSwRURsS3xPRAI/8L2GiFi2rTaonHiiu7goIqXKVNDwRMRdXrJsR0S8Wk29M+2SM3fu/0zUUOdDCkJ37Bko5hcD0CuvtiSWLSKl6TXieSIyMTXpuQ0RsZ3S0vu/EZHA8+offyQiYkVNIEuCqL3l11WJrf5Xml4jIuJ5E1OTIuK5DdspicjS+78JPE9E6h9/pM4oQdi6SRwKQn4GAEw1yvZ7rVZLrNGpEp1pWbNmTWJjnXs5evRoYvdqtaoWLJ3RiGQkfLSpqanEGjeZh2j+PdSZlgknPFcj2jiIkiXLqXO6kqyYFvjpTM/xVZeXE2t07qVUKquFmSgJU6uF10dnbI4uLCQPGKQSRhEvyp5l4PvgcOi0TDp5orMxOlGjFzISNZ6f3CZ95AwTa9c5lSkR8epV9VlrVGt+oyEiDb9qqYSeJfbklIjM/NZJbtUVkemT1tWPLItIdeFo0FCNfUdEnMqUV6+KiOd5jWpNRPxGo+FXRcQKfPUZsienZn7rJBFxq+70SetEpH5kubpwVESCDt6oqwSfRwC9mvrMJ6sffCwiXs31alURCbxGdHMqbApZlu3XayJy9Je/ciYrInJkuSqBLyKWZVnlCRGZOukEEal+8LFXc0XEq1UDTwXrMAsTRPeB/Hrt6C9/JSLOZOXIclVEJPBVw04dCkJ+BgBMNcr2u+4AoxMjuv+MzrQcOxZ+XdQJlnSmRWckdHpHZyR0MkfnefSR9YLevZH6WjcR/fmbiHrC6G4zOnVTbURdYqLcS5DqsKLzRVbUtaYSHVBvOunY0ZGDxCmsFp10QtPR76V/Qf1bLEepmyNHwp4Q+tL5jeQ1DHsviNhRNdasjXpU6Guo8zz6Gkan0Hst/fqDdlVFH+nkSTpRoxc66Taj5UvLNHf/P+82/6Ga5HZJfSCsUjlsg/ueuiNq2WWvVhcRu+R5Ue8stVd9YWX/q8C37JKIiCVWqSzqa4HviYhYtmWXRcSr1e2SJyKJQ0HIzwDoA1u3gDyxVES2VOslaIT9dC3HCbtO1quqI6PvhlkXy7bDzjD6rk8YxEvRmiB+HFFdJ+tVEQkC33d1BijsfjPIX3WccCEAwEyjbL9PTk6qBd0TRicQXFePzTl+rxI9ZCndtUbnXnSyIj2aKUM52rbmhUfW3Qx0b5dY/dpXVY+KilYse2E7RQ+GqkeHttNdbFJdWbTKVEUtHI2SMPrS6YFOvt+275Clc0o6KRSld3TXGn0NlxYXE2swHJ8+MVz4fx8mizLSKekcTsY2GVrsvthqO/Umt2yVSNFvWatUUgORnImJQAIR8apVVepUKnbJFpGg4fsNV0Q89e4NgjCTUyrHjyMiQcNzJiZEJJDAq1bViZxKRUTskh00fBHxo5Y+yM8A6JVTLvt+ICKB6wZuTVRjx7ZFxPIbYVrGrYctHMtWKfLGohumEGzLKZfVcUTE94PAdUUkcGthu8O2Lb8hKi3jqj9KfjS+yW8sqoBuq8aROgiE/AwAmGqU7fcPP0x+20xPDqPpnIDui6KzMXqvjGFNuihjoNPERPKL6GKzQ03bvjHNLVKdZPRAJ52faX7ZjBZ0rxu9l56spql94ufD3yT7q6R/QZ2EaXaSiXJAfpSW0fkZPZOMvpb6gHqvej0j4YMBypdpyehs08m50hPaSGqSIacyGSxVRcQqh0kYCXw1kUDge1E7svnptpxytGCLSrD4gYhYjiUiwVJV9WEPJFAt/cDzgjDNaMePkziUStRIrqGCRiI/A6BXXrVWqkyKSH3xmPi+xGaDEREVkS0r6tliSTQRWEl1nWwsVcNRqbYlIqXKZH3xmIiI7wfJNp8ftjwsO5x2JvBtlZr3Go2lqjo+FPIzAGCmUbbf0+mUdFE6LaM7wMTyBsm/Up3MNqPl6w3SzLRYek2U4tCZjSgtE6R+Uz+V58noh5NxodJda3Q2xooui1Oyo22jNdFwJD0YKp0X81wvqk3Udyh98lTmB4OQHnyUTp5kbJNPepxUi0RNxKtWG8tL2QcMgmjkkR+OWvLqrhW+9aLRi4GISPahwo9O4KsvCpZd8uquiFjit3qTrmrkZwD0auUjAVZk2y1LZ8zt5tMT/LBhEQ5MssN+wqlHC9grj6MOa0sY5VUiqHmosE1D+j1CfgYAzFSI/IzulKJTJXpBF+kFnXtJ76UTNemEhu4bk55tJqPTTronTDNN1L6REI2Fau7lRBs3O6Wk9irZyY40+gQZnXbSPWF0qiSdd9LHif3u4Ro9IbO+hg07OUhkcjIcS6Vnm4kNoQqvYUOS8xVjENLJk4wuMfrZTD1OApwxoY3llKPO6GGPF7FKaiKByXXryzMVEaktLHrRLN9qjknRH73oZqkljoT948NOOGq2A8txJtetF5HyTKW2sCgiKw4VP45wf7WJ/AyAnvmeH/710CmBRuD5IlL98IPqRysetGTZjnqiXiCpCWeC8GDx44hI4PnVDz8QkepHzWc/qYNYtpNsPbUfsL3akJ8BADMVtP2uJ1FpDhpKLWgZUwfrvEH6WVE6I5HOBWn6TOn8SHMIRao+dirB4jUHOqUOFJ009qyocOOSpdslGV8429ZRJ0+sVF+fWI+jZMYmTQ99WvaTuZdyNBDciS4mD84ZhE7GLmUU6bRMlFdr9oRJT2iTcZzMDjlhlxi7XPbV/AS+JDqql6amPDW1gB/+Z9lW6jMXdomx1UQFbi1M9sT6zpempkTEc+vRnVffsi1p9Rx5FDS+AxgnVikM242GXZ4UEd9rSDjhmK2C9dSnPqHaCms+s/bjn78vIu7iUjg1fBCEuYSok4x6tp9dnvTDDcK+MXa5PPWpT4hI4AdrPrNWRD7++fvu4pKoqeHDGE9aIsSFAAAzjbL9rh/bpCfv1RkSnUDQyZN0t5lOpLvW6IVKpZLYuEUOJ+qdop+p1KIjTZRF8aJ5Y/zU/ft0DsVKlaWHR5Wbf3zb/sqV6BpWoyEhzY400YO/S9EEHW40b2q6y5DO4aQfr223GB7lJM6u65e8ghiMdKokI1GjkzAZCZZODphxCntiQr1hfD/Qfditki0itlOunHiCiNQWjqrHri68+0GjXld7BXVfRCyxw+l/PU9ELCt8G8cPZTtlEamceEJt4aiIOJOVhXc/EJFGvW6rGYPrviVqVmHSEiHa7wBgJv7QAeiVX6uq2d5L02tUG9x2SurBMrbjLP76fRER35NAPTQmmp4jmgheJPzqF35HtO3S9BoRCTzPdkoi4vue7Tgisvjr96OelAvh+NVA9ETw8UNBRhvf69HzcHVXFt1tpvkk6NSzmdJ0yiWd3knvpQ+ok0LpaYGbG+shVFGyInqYdrNInyHIGBadSn/EZqRJ5nl0zxzdo6bFE50iDVdfwzAJo6+qnkDGjwZcZTzIKdaJKFoVnVVfw3KUqNGvjk4KldtfQwxHJ1MHp3vCpGcMThelj5NWmlmrsjG+G8742PBq4jdEvVuiHuv2ZEVEZn77043luohMfWpt9aNFEakfOabuo4Zd2ku274aTUDa8moiI3wjfdVEnenuyMvPbnxaRxnJ96lNrRaT60WL9yDFRt3YhIuRnAMBU5GcA9GrNp09c+qePRSRo1NVsjuL70dRgYZPbEtuvV0XkyC9+pZ6h6i4t6+ndVR/K6U+eICJL//Rx0KiLiFd3o7kHfD0XmbqJ6terR37xKxFxJibcpWWJzThv83y+yCjjux5TkzGdb77na+uFTqYgXloKkwzpRI1+lFKsGhnz+rbVrJg+e+qJTnoMVPPRTnq6mPQTnSL1etQlppGczrd59g6Ga6e7J1m+HgwVpm5095tYtil6OHh9MVF5DFTGRMF6ENOHR5J76Y31jDSa3lgfWT/UW8sYDLXw7nuB6rsSztOrHr5qi4jlOOE7MAifmGrZtlevikjgl32VkrVs8VwRWTiyICJBlBy0xJcw12qr2WwC34vmt7FVj3ivXg18NRjKDRPxHs/XDpGfAQAzkZ8B0DNL3473ozxKNFG7/vpoO+r2fVCPpn7U05DoCTOs8EtA2EgP1HFExF5xHBEJgqzjQERGG99b5ARSMwZnJFh0lw+dn8kYDNXVE520FnkVXZRak2alus2kf8FmMiW9JlaRdqfwohxXJ9fQSlVWTyasJ5nRn1OvOYdwdOnazqPcRHth5LzUy5TuCdPJRMEZswG3YFnhG9iyrXI5XOH7orLhgYiIPVFWM0p61ap6M5Ur66xSOHWMX3NFxHNrov6tAn25rN68ge+HWfVA7ImyiASe71WrIiLilyvrRMQqhVlPdSgI+RkAMBXtLQC9sktl9X0xcF11y9QSXyVS/LobeK6IeFVpProv8EXEXTwWfit0HDX9gF0qi0gQBIHriojvRg9otR2/7opI4LleNTxnuG/gu4vHwsM6jojYDv1nQqOM75OTk2rhpptuuu+++yQ2vikIgltvvTW+8c6dO9XC1NTU9u3b40W7du3SyzfffHPLvW699dY777wzXpTxsCetbMuDhw7H11y+aUNYQ7H2vfFevOiyTSerhQlb9h5cUXTFGeFeEgQPv3G45V773njvaxs3xItic9S0raGeAeb6q//kWw/tFZF6lJT0/eDGa66Lb3zvngfUwvT09HWXXxkvmv/bv44qGNzw9Wta7nXjNdfd8+2/ihfZqaefi/DVuP90guXMq4OXdq94M9Tq8kfXrkjfHdhrtSvS+y4ckzOvbr3XmVcHerldNWQxWeRMTjSqNRF5+8CWz3/xFREJfF9lzAPfffvAefGNT/vCC5YKwZa89cqWeNG/ueCgiDSqNatcfusf/3DFXmc+JyIi9tsHtpx25nMiUW8cpxx+VKyyXS5JbKIkjP5C3HTTTemVKrjv3Lnzrrvuuuuuu/QaEVHBfX5+/v7777///vslFtPVwq5du+6+++677747vlc+KrhfecaGq2Y3XDW7QUS+F0VnFdwv23Sy+tFrRMLgfvXsyepHRB6O/kio4H7Fpg2Xb9qg/lQk/kjkc/3Vf5JeqYL7vXseuHf3t+/d/W29RkRUcH/gew8+sO+hB/Y9JCLb/+N/UkUquH/zu3v+8m++85d/8534XhitRERWVAR/abd1YK+l4rLeTBepH71Gb3Ngb7Oo5cG7lYjIigrup535wmlnPqdi9Ns/DWP6W6+cIyKnf/GVf3XugX993usi8j+emY0f6vNffOX0s18+/eyX9XHQlRHHdx3cn3766aeffjpetHPnzhdeeOHFF1988cUX1ZoXXnhBLczPzz/11FNPPvnkk08+qdY8++yzamHXrl3PPvvs888///zzzyf2EpGXX3652xpeecaGdydPeWfilHcmTjn77LNF5HDlFFV02aaTf1H5nPpRa/TC1bMn/3zic+pHrXlvMtzrik0b3quccrhyij6O3ktE/u/UKd3WUAf3Jx7a98RD++JF9+554CePPv6Tx/b/5LH9as1PHn1cLTzwvQcf/7uHH9/70ON7H1Jrnvr7R9TCN7+750fff/THP/jhj3/ww8ReIvLc/n/otobonY6/33jsrG88dla86KXd1jceO+v2fWfdvi9crxdUUXwXvXBgr3X7vhVFeq/Ecie8Wl0H97X+HWv9O3y3FngNNb37qZufW+/sXO/cs965R22zTu5Uc0OefvbL6/w7Zmq3r6nepoqml24tTUyKyGlnvbjWv2Od3LlOwm/e6517wkFMgax37hHbEtsKVLd6yxbf92tVv1b1unqqrNFGGd8bjcbOnTt1CkVEvIjE4vKrr76qN1Arn3rqqXSRCvE60Kf3Ur1rnIgVyajhZZtO1mOLfrf67u9W31XLKjTruBw/l1qpw3q8SIX496Kwnt5LVaZZMf3Tnuu69+55QKdQRMRr+OpHYnE5fi618vG/ezhdpEL8j77/aLu91HOanFJJ/XRyDdEXunmuTE6EPxIL2fHXSwXolkVqpY7g6b1y8GtLp25+5tTNz7QsPaF8T/pc6627RETH7njRdPVWvUGiSB1K/W0IXDdw3cAPArcWuLXAc4OGFzS8wGWCsdDo8zPZ1EubSJ3Hi1QepmVR/C9HL1Rk3/fGey1zKepcidR5vEin7NNFOvk+UOpcidR5vEjlYVoWxf9yoMjU65XIzvdS1HfqXC3/Bqii0/7gua72wnEVOr7r4J7Oq+jgrvMwiSKV3ulLNeKR/bKVcVwH93ReRQd3nYdJFKn0Tl9qmEEH93ReRQd3nYdJFKn0zqBriN7pMJ1I3eQu6lYQiAQtJ+8I4uc6dfMzJ5T/omU1Tv2DZ9aX7mld1GqvJr8R+H74Y9mBZQedjNRYHQoxvkmLPfe5+aWsXXAXkXbBXVam3ZXp6WlpNQYqe/abv38zvDUaBvGpU0REJWr0udoFd4kl69NF6eA+oea+jj4S+jlQGZPweKnnYlux2YT1udoFdxFpF9xlZdpdmV6zRlpdQz37jdOuohgY/Xq1i+DdFil6QpuMMVCa5SQjiWWXrOh9os/VLriLyAml9kWpvSZO+IQsSmlqRsL5ZxKPkqfbd6jQF0LdzxSRc845p13Rli1b2hVdcMEFPVZABfd4ZH/11VfjSRV9rt9ZfqddNXTWPl30uVpyr77T5zpvbmu7oi9dcnG7oq2Xf2VgVUPf6Nfrz7/8Wl+K+k6f62jpv7YrWvCSvd100RG5fUAVM1uh47tyzjnn3H5761d3y5Yt7XpAXnDBBS17XnZL517SEVz7neV3dDM/QSXuWxZ9rvZOonP94Jw3t/WW//xnLYu+dMnF7XpAbr38K392VYuelyimP//ya4kO7z0WdSHwg5UP9Q38hm5Wawv+rW+/dHbLAyx4t7x9INlWUz52b/rZ6ytaeO6Ro+KI33BF9X8XERHLjiaqJD8TGWV8dxxHR2f9XUzdFN21a9fNN98cv2+uZRTt2bPnmmuuaVkkItdff/31118fX6PuzZYyn8abDtwqr3LFpg0Pv3G45bkyiq458+Q9B95rV8PEqCiJ7s1m9E9xSiUdnfVh1U3Rb353zw1fb301MooefOKxKy/6crsaXnfZH1932R/H16h7s/ZEeA2DKl3TBkL3j9QvjepOc2CvdebVQcvXK6Popd3WH13bukid69Wrk9tL5vimwJefvX5BoobqfulpX3jh7Z9uaXmu089++a1Xz2ld9MVX3vrHP2xXw7cPbBFZ8cfg9LNfbv6B6UNXfkNYidzuoUOHBn3K2dlwCIMauJROlG/ZskVleHVnR+3cc89VOfp00bZt21TRo48+mijaunVrrVYTkWeeaXEX/txzz1UL5eixADfeeKNaUL1iWt4FPbn6jsQ6O2obqu+oaJwu+v3GuypS/28necDfc99p+CIi704m91LHVAv/Yu5PEzX8i93fllaJ8i9dcrG6hrqzo3bhV7apAX7poq9dd41jWyLy8Ld2J4ou+fpVtVpVRP7hez9I1/DCr2xTC8GRcDL9zZs3pzdDV/Qn5ad/K9Kq8+Kdl4V5lW6LVCY9nXm/87LXVNr9T3e3SMrrY7750b1qQb8P/+Xss5Ytunu7ttC4RWxbLEt3dmwWyW2W2IHvr7dTRd4tVnlSRNb5dySLgtucyrSIzNRuS9dwwb9VRMT3v/rv/1eihhs3bkxvP0Jzc3NqYaCflEL3nzn//PPj/9SBOF20bds2vXzJJZfEi7ZuTead++jk6oqkzYbYPxNFv99oZuH/mbciI/977gCz8P/2qyuuhg7E6aKvXdecluCK/3JtvOiSr181mNqhP3TkTf8zoyiRdk9s2ZW2MwLYtmVbzsTksfJ/i69enrl7YmbGsm2xZUFWROoF7xYRCRpu0HCPWCsSs0fkNmdicvqT66c/uT5XbVadEbTf9ewx+i9Y0ezfH472pIa50X7vHZ+U3hW/hqu3/Q4AyI34DgBmGuX91aLRd2DefPPN0daknTGq4fz8/Ghr0s4ZZ1zarujQoUeGWZPj4pOS2xjVcKCfFNrvAGAm4jsAmGmU45sK2yNVf6ejht0aZi+FrjItGRunt+lq9yFkdQr7Khf/fVj8Gg4U7XcAMBPxHQDMNAbziwHd6iQbM7jdgYKg/Q4AZiK+A4CZyM9gdcno7kJaBoah/Q4AZiK+A4CZyM9gXOlMS78GHxVtWBPQI9rvAGAm4jsAmIn8DAzUr+QJSRiMNdrvAGAm4jsAmIn8DMYVw5GAbLTfAcBMxHcAMBP5GYyZHsccDS6rQ2cbFA3tdwAwE/EdAMxEfAcAMxHfAcBMxHcAMBPxHQDMRHwHADMR3wHATIxvwpjJeGyTXpMx1CjfKCQe5IRxRPsdAMxEfAcAM5Gfwbjq5PnaQzg7UFi03wHATMR3ADAT+RkYqJOONF0dBxhHtN8BwEzEdwAwE/kZjKtOkifpbTIyNl1lY/qVAgIGh/Y7AJiJ+A4AZiI/g9WFLhSFx1IAAAcPSURBVDFYPWi/A4CZiO8AYCbyMzBQuk9LV2mZHncHCoL2OwCYifgOAGYiP4Nx1dXAok4mE+77U5+A0aL9DgBmIr4DgJlGkJ/ZuHGjWpibmxv+2TtBDQ02RpmW4r/K1LDgaL8DgJmI7wBgJisIgvi/Dx06NKqqAAD6iPY7AJiJ+A4AZiK+A4CB5ufnie8AYCbiOwCYyVL/O3jwoFqYn58fXWUAAH1D+x0AzER8BwAzWSozMzs7q/598cUXj7Q+AID+oP0OAGYivgOAmSzdc0bRiRoAwFij/Q4AZiK+A4CZkvkZAIAZaL8DgJmI7wBgJuI7AJiJ+A4AZiK+A4CZiO8AYCbiOwCYifgOAGYqDe1MXc1s069RV/qkhT1gxim0Ts6VcXkzdh/mXl0dJ+PInbwEQ3iZgOIbXnzHceWb3O24e83OzqbD3DD3AjAS5GcAwEzDa79nNAZp8cnKpnHioVpd7dWyVC2kUxxD2KsTvAGAQSA/0ze5/1wl4ni+YNdyr+P+nejjuQAUDfkZADDT2LTfu2qEpjfOaFz3vXnbleykx/AN6B5vt7sX4VIA424M4vsI+2wMtDdIX9Iy8aPl6O6Se+Me9wIwBORnAMBMRW+/5+uz0dVYmJZFOXqD5B7a00vL/eDBg4mq5qtbv3rv5GvOk40BBqHo8V3L1z+kx9MNIfkw8tCWL03U3+QSgEEgPwMAZhqb9vvgjPYOYR97nuQYc5QvTVS0Pj8AWlrV8d2kvh895q8Y6ASYh/wMAJhp9bbfO0ky5Os/3q/ONl2N0sqNljtgqrFpv7cMtbOzsx2G4L6nYoqW2+nx+oxqr1708VcGjDQ28R0A0BVrhF+0O8w29Hh7MKOnducNvYy9uhpL1ZX0AVueIt/1GeZe7eR+pNfg7hgDJhmD/HuPk9xm7J5vEFO7vUYVUPJdn2Hu1XcFqQZQcORnAMBMo8zPoFs88QpA52i/A4CZiO8AYCbyMwBgJtrvAGAm4jsAmIn4DgBmIr4DgJmI7wBgpuHNT9DJ2Jx+jd8Z5rnGSL4B/f2aBiDfbDODeykz9ur7+1DrcbaifFejOHNpYMjGYP4Z9O64sXV2djbHbGIt9yq+QU8gXPwJildh42Z1Ij8DAGai/W6+fM/g7vHJ3RmK02bse02KmQnJmFp5TL+BoUPE97GU7/t1kaf8HZrhJE8Ke9EykvIwD/kZADDT2LTfB9eLo5N+FF2dtO+PRuqxMTiELESPuw+ntZvxJK+WG0iX35PGtEWcI8OGcTEG8b2YvTjydThpd6gc5+qXruo8piEsYdDvlrGIlfkeXobxQn4GAMxU9PZ733txdDXApGVRvg4n6W062avdufo+7qaTY6armq/1N5LmbVdJM7qHwwwjiO/5Mhv5+n4MwoA6nBTnF0w7bua6yMa68u30MT0Ig5GfAQAzDa/9fvDgwXwdS0ZomA2iYZ6r5YCXdjmuTvJOY2GsK6+M44cIIzSa9vvs7Gz8bVrA75WJGna7b38rM1AHDx7sMByMY9QYyWsxnJP2+CHq5R2OcUF+BgDMNNT7q+MyFD5fT5j4d+ccLaO+zxObb+OWCvK6dGX4t1U7TJ70fhbp64doHF9cdKjo/SO1wU1g28fRQ710dxnCKK1hjsnqu9yV7+Wq5n5RCtvDkpzMqkJ+BgDMZBVksMmgp3PJHqmU3qbzZk7veZUc5+q2edj3KXEy9uqlDi0Pm6Mavff56SW900nyJPfVyDhL57nE4+4CM4wmP5PIY2S/yfIlHDtJlWRs0/eBRcetf+8f+ONu3/drOJzo0Es1erzl0OMA3YEmQ7r6ELXcF8YjPwMAZhpNfsZIHTbWuOAAhoP2+1AR3AEMDfEdAMxEfgYAzET7HQDMRHwHADMR3wHATMR3ADAT8R0AzDS8+Qnyjb8v7Dx8GUY+oB8AhPZ7fx33mTjMzgpgaIjvAGCmUY5vGsfcS4bsOWmH/zghAKvc2Dy/aST6OPlq3yccBoBs5GcAwExFb7+nW9AZj63ppLk9jp1b+v70pb5fn0E/BxVADkWP751IB5fBPYy7w/qM9jHW+X7TAe0FYFTIzwCAmYrefyYjP3Pw4MHjNh5bZnUG17llcA+k7tde7X7TQewFYLTGOz/T7hHDg3gY99jp4yOzjbw+gPHIzwCAmca7/Z7D4BqhHaY41EIn2Yx4AqpdtXvs09KV9Ll6rCGAgaL93n/tUhw5It1x9xp5zqT4NQRWLeI7AJjJhPxM75MHtFOQGXJanv24CZ++1znjauSrIYCBWnXt9yGkC1qe4rhTBw+nGvn2Gn7lAfRu1cV3AFglTMjPdKKTnh7xjQd3inwjlbLPm6MaiX3zVT5fDQEMx2qJ75JrkE63gSnf6KFe9HE40oAqT3AHRoX8DACYaZTzzwAABof2OwCYifgOAGb6/5rmH+2vSK/UAAAAAElFTkSuQmCC;" vertex="1" parent="XSjLxf4Ph_vKjmcvZ095-31">
          <mxGeometry y="20" width="501" height="340" as="geometry" />
        </mxCell>
        <mxCell id="XSjLxf4Ph_vKjmcvZ095-46" value="" style="whiteSpace=wrap;html=1;strokeColor=#97D077;strokeWidth=4;fillColor=none;movable=1;resizable=1;rotatable=1;deletable=1;editable=1;locked=0;connectable=1;" vertex="1" parent="XSjLxf4Ph_vKjmcvZ095-31">
          <mxGeometry x="40" y="148" width="50" height="50" as="geometry" />
        </mxCell>
        <mxCell id="XSjLxf4Ph_vKjmcvZ095-65" value="" style="whiteSpace=wrap;html=1;strokeColor=#97D077;strokeWidth=4;fillColor=none;movable=1;resizable=1;rotatable=1;deletable=1;editable=1;locked=0;connectable=1;" vertex="1" parent="XSjLxf4Ph_vKjmcvZ095-31">
          <mxGeometry x="310" y="147" width="50" height="50" as="geometry" />
        </mxCell>
        <mxCell id="XSjLxf4Ph_vKjmcvZ095-47" value="" style="whiteSpace=wrap;html=1;strokeColor=#97D077;strokeWidth=4;fillColor=none;movable=1;resizable=1;rotatable=1;deletable=1;editable=1;locked=0;connectable=1;" vertex="1" parent="XSjLxf4Ph_vKjmcvZ095-31">
          <mxGeometry x="94" y="148" width="50" height="50" as="geometry" />
        </mxCell>
        <mxCell id="XSjLxf4Ph_vKjmcvZ095-88" value="" style="whiteSpace=wrap;html=1;strokeColor=#97D077;strokeWidth=4;fillColor=none;movable=1;resizable=1;rotatable=1;deletable=1;editable=1;locked=0;connectable=1;" vertex="1" parent="XSjLxf4Ph_vKjmcvZ095-31">
          <mxGeometry x="148" y="148" width="50" height="50" as="geometry" />
        </mxCell>
        <mxCell id="XSjLxf4Ph_vKjmcvZ095-37" value="LCR" style="swimlane;whiteSpace=wrap;html=1;strokeColor=default;labelBackgroundColor=none;labelBorderColor=none;fillStyle=auto;strokeWidth=1;fontSize=16;fontColor=#F7F7F7;fillColor=#707070;fontStyle=1;movable=1;resizable=1;rotatable=1;deletable=1;editable=1;locked=0;connectable=1;" vertex="1" parent="1">
          <mxGeometry x="-1890" y="910" width="510" height="370" as="geometry" />
        </mxCell>
        <mxCell id="XSjLxf4Ph_vKjmcvZ095-36" value="" style="shape=image;verticalLabelPosition=bottom;labelBackgroundColor=default;verticalAlign=top;aspect=fixed;imageAspect=0;image=data:image/png,iVBORw0KGgoAAAANSUhEUgAAAfoAAAFZCAIAAAD//3peAAAACXBIWXMAABJ0AAASdAHeZh94AAAgAElEQVR4nO3de5AdV33g8V933753NBpJBpehwlZRZYpHsnGVsQELjRwicMHaidk1WJKNFLsSG4QfcoJBBpaUWXYpb2WNKMHil2TDOjaWH5ITbyGM115gstgz2IBJtpxgEEGUt+IKtpEszWhm7qO794/Tfaan+96ee/u+7/l+SlXq6cfpMzO3f3P61+ectqanp0VkcnJSAAAjRwV5EbH7Ww8AQG9Y6r8gCPpbDwBAN1hWGOdp3QOAEQj3AGAEizQOAIywmZkZtUDrHgCMQLgHACMUGm3Q7X8AwPDas2ePWqB1DwBGINwDgBGSyRxyOAAwkmjdA4ARCPcAYISGPXO65/rrr+/9SZuxefNmtXDw4MH+1qSRIarhxo0b+1uTEcCVktsQ1bCXVwqtewAwAuEeAIzQh2SOpm9nBsSuXbvUgr4BpIat0jWki1cHDexvefA/h4Nfw15eKbTuAcAIhHsAMALhHgCMQLgHACMQ7gHACIR7ADAC4R4AjEC4BwAj9HOYVftmZn6llzdseFMfawIMsuee+6VePuOMN/exJuijIQ73MzO/uuiij4nIkSM/E5GZmSeJ+EDac8/9cvv2K0Xk8OHnReSZZ54i4puJZA4AGGEoW/cqh6Oa9tqZZ547M/OkkNUBIiqHo5r22jnnbHzmmaeErI55hi/c6xyOdvrpvyciR4787MwzzxWyOoCIxHI42lve8rsicvjw8+ecs1HI6piHZA4AGGGYWvd1czhpZHVguLo5nDSyOqYZmnAfz+G86U1niMivfvWc+vKRR+4UkYsu+pjqoiMiZHVgrHgO521v+30R+fnP/1F9ed99XxeR7duvVF10RISsjlFI5gCAEYagdZ/O4eh2vdIovUNWB0ZJ53B0u15plN4hq2OIQQ/38RzOeee9WUS++91fZh4hIvIP//CkiJx55rlkdWCIeA7n7LPfKiLPPvuLFY9SUf6cczaS1TEByRwAMMLgtu4TOZzzznvzG96wRi1cd91nJJXDeeSRO1VbXqJHtdoFF1z2ne/cK2R1MIoSOZyzz37rqaeuUwuf+tRnJJXDue++r6u2vESParXNm7cfPHifkNUZUQMa7uM5nHJ5UUS++91f6mRO3WR9vGdOwosvHiGrg5EUz+GoK+XZZ3+hkzl1k/XxnjkJL7zwa7I6I4xkDgAYYeBa9+l+OKXSmFpo5iFtXdu3v/e++74v9NXBCEn3w9FXSjMPaev64AfP+9a3viv01RlRtO4BwAiD1bpPT38Wp0fPJtYnBtmmffrTX0w8xSWJj6GWnv4sTo+eTaxPDLJNu/HG/5J4iksSf5QMVrjP1ugvQTrQv+ENp4vIiy8eUV+eeea5n//8tuW7LH25e/fuztUR6L9Gfwne+MZxEXnjG9/1/ve/S605dOgHIvLCC79WX55zzsZrrrksfkj8S66UYTdM4T6fVKBP2rVrF59jjDYd3zMkAn0aV8qwG7hwrzpTnn767zVK3TRDt+uBUaU6U77lLb/bKHXTDN2uhwkGLtwrR478rNVAX7fTfbxpf9ddMy++eOR739un10xNTamFXbt25akl0G+HDz+/YqCPN+2feOJHhw8/rxvyDz30dbWgrwUROXToBy+88Gu9SbhSRsWAhvuOu+uumW9+8z8mVm7atEliH+VNmzbFP/TAsEvkcJ544kc33XSDZOZtDh36we7dN2YXy5UypAYr3G/Y8CbVL/7MM8/VWZ10x5tEnkd9mZg4IYH0DkbJGWe8Wc9uprM6K3a8UWmfbKR3RthghXuJBkDNzDypwveRIz/TcV/vk34peaIQPSOmXhPP4Vx44YWNzq7a+8DgU/0jn3nmKdVj8vDh53XcVzskcjgi8utf1587IS6ew1FXSt0EDlfKMBq4cN8lU1NT6gOaEeuB0dAoh9OSCy+8kEz9iBnQcB/P6qg1+klsvJnfaE60m2++UUTUxAnACItnddSaw4efb6bbJQw0oOFeYlkd9WU67muJQVUSC/QXX3zNww/fppZ5uISRpLM66su7775Db7rttntleX5m164vNpmdjzftVXd7GvvDbnDDfadcfPE1IqKDPmCI2267Nx7oRWTXri82c2CiYbR79+5Dhw4J4X74DXq41zPbpJv5WrrXjXpUK8x8CWM0M7MNvW4MN+jhXkvH/WZ21nQLJY70DkbYNddctuK8CGnxi0LlcNIXDobU0IT79qk+OXx2gWbUbSFhqA1fuCc/AwA5DF+4b5Pudx9/7sSYEYwMPWllRts8O42ZvhwYrTIajAv36d4FzOkKZGC81cjg5YUAYARTWvd1myfpjgfqJvfd7353r+oFdEtLGZjdu3frayQj1cOt8FAzJdynpROU9MuEyVYcOktfnWFHMgcAjNCH1v3mzZvVQl+e/9TthJNo1/e3hs0Y/BoOo+uvv14t7Nmzp781UXr5W261o5q6ZHRuZ2A/h1wpcbTuyeEAy0xNTWVfFFwyQ4pwDwBGsIIgiH89MzPT7VPqW+ZBo+/7Dh482N+aNDJENdy4cWN/a5JD+pPZ36wOV0puQ1TDHlwp+mNM6x4AjEC4BwAj9LPfvb6dGRD62b2+AaSGrdI17FRWcMOGDR0pp5G6Q+r0T3VA+uoM7G958D+Hg1/DHuTPNVr3AGAEwj0AGMHcSRQAWekef9CyOkA7aN0DgBEI9wBgBJI5MFp8KpX/9PnPq4U1a9cmdiOrgxFA6x4AjEC4BwAjkMzBQLv66qu7Wv7ll1+ul//X44+rhYzuOmR1MLxo3QOAEQj3AGAEkjkYaLfffntXy8/9GnqyOhg6tO4BwAiEewAwAskcGK39eXF1CY995ztq4fwLLmizTKAbaN0DgBEI9wBgBJI5MFqTc+Y0U0IvX0sE5EDrHgCMQLgHACOQzMFAG7Q5czRyOBg6tO4BwAiEewAwAskcDLRBmzOHHA6GF617ADAC4R4AjEAyB0Zrcs4ccjgYAbTuAcAIhHsAMALJHBgte84ccjgYJbTuAcAIhHsAMALJHAy0vsyZ88Mf/lAtkMPBKKF1DwBGINwDgBFI5mCgxZMt3fbvPvABtUAOByOJ1j0AGIFwDwBGIJkDhM6/4IJ+VwHoIlr3AGAEwj0AGIFwDwBGINwDgBEI9wBgBMI9ABiBcA8ARiDcA4AR+jDMSr8MOv4ioYFCDTEIBv+3TA2HC617ADAC4R4AjGAFQRD/ugdTv05OTnb7FPmsX79eLTz99NP9rUkjQ1TDPXv29LcmI4ArJbchqmEPrhR9Clr3AGAEwj0AGKGfEyD/6uJVaqEaWGrB1wvh/+JLuBREm2wrzD5ZEi4UogW9sx+dwo4yVXa05EY7r4r2GrPChbvWhw/x9Q3g+g8+XZufFxGvWhU/UGcNz247xbVrRMSrVC3LEhG/VvM9T0Rsp2A7jogU103Yji0ilbl5EanNz3vVqvo+4+WISHHtGq9SFRHLsvxaTUR8z7OdgojYjlNcNyEitmP/+7MfS9YwuiUcELojBDro0CFHLSwshJ+balVfFw2PsqO23Jo14Se8UokuouhyqNXCNZ4XLjhOdFkVwoXx8SDaFBb47LPJK+X2b/61WlhcXIxqWF3x+7Lt8KSrV08kjlLXlIh4Xi1a8KNqOImFsfHxcE1U4G+P/L9EDblShPnus5WPHQ1vgGzLcl0RGVu7xvd9EaktLJaPHRURCUSs6MIKaiJSi67Ayuyr6vBouy22JSKW646tXSMivu/XFhbDE6mjYkUtL0dEbDm7a98qgFFHMgcAjNDP1v3JwEmuilIcOnXjRJkWJ8rheNG+OiFS1YdFdFJI72xFN72VaM2c/t4b3w67E2sLq0oi4lUqtflFEVk4eiw8mx+VbYnlOCLiTowHvojI2LqJxWOzIuJVK06xqEsrrCp5lYqI1OYXF44eC7/fWDkiYjmOOzEuIoEvY+smRGTx2KxXrYhIvCgY5dVXwyvF0pnM6CNfiD7FOmPjR6nMxcVwp+PHw8O96LOmMzaazupI6mo6fjzakNyy5MTxE+E+dnInnXIZnwgzNrqK5XKY+Zk9ER7uRxkbu5AMDl6t1ujsc7OzUdWjuNGwpkYjmZMpkMWjR0Uk8D31GQ2C+P2QLyKWZQe1qohUjh9X6dLq3KxVcEUk8Goqt+oUSyKyePRooIK77y8vR0R8y7JFJKhVK+rysu3q3KyIWAU3UOnLjDQtAKyEZA4AGKGfrfvGt4YiVrKzjW7Zppu4drRO/+0q2dGN7dI+oUqgT5s8RVp1fk6CqAy7ENXLFxGxwtMGvh/e5FpuVHkRvyYiTrEUeF5Yjki8qNj3Z6u6BL66V1hejoj4NXVzEOhbcRhmYiL81ZdK4ZpKlJRcXAw/2q++mmy66YxosNQ/LbkwPu4njlq9Otx7bs6KzhUuFIvhpt/8JlnD8dVh3xg3SjnWotxLOeqrM6uzQrEqJmpoRTXTnXbGVo0ndl4VnWt+7mR4rmp4roIbBrTFxaPJc4Fkzgrif2RUsLZt2x0TkUKpWF1YEBEr8MNA7FejPyuqz6bUqp6lnj1Yy58TBL664Gx3rFAqikh1YcEKfFEx3Vd90Wz1dyUQqVU9EbGs5JUJAM0jmQMARuhn696JGs+1xukUnahxo/SHbnD7QcOj0jkcT+8c/W8vZYUaPgK1i0W/Fo77cFxXRLxK1a9WRKRSraiy7ELBdksi4ler6szuxDqnUBQRu1Qov3pCRPyaJyLxotSgKr9aqVTVbbllFwoiYrslPxxp4rsT60TEKRTtUkFEVFEw2bFj4SdaJ2p0d5WMbjNLqRI9ejEaxzg7m+zzMzcX7qP7/OgkYtD4itNmT4QZm8CPutJFx1uNL/Mgugb1PrVKeBGfrIUV0n1+5ufn1YLu86NP4QfcAWchmZMl8D19rag+lJZt2YWiiIjlSOCJGnCrrjnfU+G+cnw26po5oQbNBn5FROJFqc+uXSiK5YiIBF444LZWi7pm+pXjsxJ2zZyQaPwtAORDMgcAjNDP1n06h5O+2dMN2krUUT2j87meTqeW7NW+RE+wozvHlBvvbLtFXw3MCnzVM8cuFPywLV8J+907dthVx3ULY0V1lLdYDr8jx1JrRMSXSvS8t6BSN36tJqrhL77l2CIivqjZGgpjRXVUoigY6OTJZA5H0zPbaHofnZ/Ra9J9u2y74fWkd9YdcvS8OmkLCwvhufxkgU4hGWT0Pjo/o9f4frKKdmrclqZ3LhbdqIYkc7KQzMkUzWUW1LygWhURv5zcxbIL4T6+V6lVRcRyyo5bEBG/UnHHV4mIt1gVEbEkqHkiElSr9ctR+/ieiFRqVcspi4jjFvxKRURUUQCQD8kcADDCYLXu0zeWej4cnagpNdGfx42GWekOObVooRqlbqr66MY5Eq+yqAZMZfxdDPylqTzCQSKWeFUREdu21BwMIb/WZDlhUZaIiFcN72eXFQWz+UtJi+TExcViuK1UCtfMz+uxS/rw5ETKutNOeqoOPZ1OS7N4BFEVY4MLnaiG4VAst6hHRYVDsWw9BboXZZCivkfW0ojLZD28qpfYNFhxbWDwY8kSeNXoctIpRUddGEGgxz3ZovrM+FX1EQ98X03FFhuvG85uHC9HRCwrvIQsy49mWnbUMKvA96MLppIx7hcAmkQyBwCM0M/WvZua0zgtNu9HuFCWZMeDQurmrprqwLDK8hIn1X1+5hv/zSuMr1E96GsL87GZih2JRl2JiF+thI13yw4nwPFr+hbbcgoi4pTGRMRynNrCvEh80mNneTkiEoSFWHaUR1pWFAzkuvrlU+EanZbRm3RaJr2gEzX6dVQ64ZN+K9bq1X5UcrhGd/6ZmwvP+tJLqRoWwr2r0VhCPUzEjQrSb6rS++gFTY+ccl07+pZrUQ2jOXPGV4c7R31+CtFR8yfDWXQqi68mqwiSOdkC3wuHwvqezkWqi8evRp3JHEdHeUv95YjWBF5Nd9oRNarW9ySW1rSs5eXIUpS3xJZoTTgBMhkdAG0gmQMARuhn674UTfG4KkrnzEfvt6pEf4e8aBiIHg5SimbE0fukn2QGqTWLUfKmGt0SutHZMxrN3mI5HEtl25a1/E+jH85dbFm27RZEJPAsu+CKyNhr182//IqIeF4gni8iXi2cF0F13VlWlB9Op6xW2m4h8NT8Cu7Ya9eJyPzLr3iqlwJDSEylxzel+8bo2Yl1xkaPikp3ttGpG11guteNztjofJFO72SNyfIbvmoq9rbxcE0hyvzo94/rRI3eeWkanFqy143O2OgRWKuiV5PbNu3XLCRzsliOHc1pE1hRftB2XREJfE+NjHUnJtwxV0Sskrvwr78VkcWjx23HFRHf8aJOO54qTl1V8aJUnscuFNTEOO6Ya5VcEVn4198uHj0uIrbj+o4nIsKcOQDawB9DADBCP1v3ukeNzrToxEohytisiVIuukeNTvjYqddR6fePL73fSvdJiNYspYmi3ju65LTi2jVeWc1UXA5fMyuWV14UEctxVA6nOjfnLTgi4nuer95D4thqMpCx156q7lZriwsi4pWrfrUs4ZNbS0S88qJq6dtuoTo3JyLeguN7noj4VU/NomPZ1thrT5XMGW4x2tLdb3TuRXe20cOsdKJGD8VKv81KrxkbS47J0h1yyuXUlFaNP4E6P1OLOtvo/Iwd3ZWm5ysOoiFYeme9j97kjo2FC6XwFI7uBaTf6aVrSDInEz8dADACufsslePH1V9Eywkfw5Zec4qasKxWrlROzIqIBNH7ZiUcMB6Uo07Nc7NqIWp02OEEmQW39JpTRMSvVGrliohUTsyGg81jRaXLAYDc+hnujwVuYo0VpVx015r5VqbpqJPe0SOw9P2sfil4FFiTIz1i3LXr3NWrRMQv16on50Rk4ZVXovfNLg0OU6mb4tp1Kg+z6pQ1i8dPiohXLtvFpe/RXb3KL9dEpHpybuGVV8JaBcsGmVm2VVy7TkR8z1t1yhoRWTx+0iuXRSReFMyk0yk6Y1Nd+viunOxLz5asJ8/RXXR0dkhnkHTnn/HxjKtRdweKkqXR8KhaNTX7a2PpoYS+nxyTpRM+hWiYVTXKDpVWMWtsFpI5AGAEkjlZLEsWXv6tiASeHw6IDST2Ktxwn6Dmi0j52FH13PXE7KzK/AR+TaVonLGSiCy8/NtA9Z33vUDfh8TKEZGg5pePHRURy3FOzM6KiF1ww8kyeQ8ngDb0M9xbjd9MtbQp+Ubx2DGBJLdFnCiM6p7q6ffwFCQVcVN0Sj2QcBjU0tSVVpg6CvyaFc1yE05vaVsqQFt2wfcDEfGiLH8g4TCrpdk01bFBOAGyFU28EwRhjijwa+rNJ37qPUEwhO4ko1Mu+bpp6cPTnKVBHcnrSo+u0i9GT6tUouFRqfmKW6IPT9M9fPxo/qvYDEJhxWaPH4/OjjpI5gCAEUjmZAr8cLJLid5MYttqVK1TLKne9FYQ9pS39Psclvo1V8NWWNSEtyR6WYqtpkxwnWJJRGqLC1YQdt6PlyNhUVWh3z2A9vQ13Os5PZq494rdYUa9d+rEP52f0dPpJBMg+phaak2a7Y756sVUEs5U7FWrfrUmIr6eCaTgFlw3WuOLSGH1hNrZcpzK7JxI+Ipa36uq9JLjup568221Fi9HRAquG63xC6sn1M7qkYAqCgZKT2Xsp1KQGQOM9KCq2Kw1yXFb+kXkus+PHsNkNdHQqC1NjBMN8ko9arKthlXU8+HoFJB+9ZVO7+gXkceGjyVPqtGMrYtkDgAYgb+CWQK/qlMqnmrtWJaaGU2s8DbD96qe6hEcZX6qJ2ZrjiMihfFxW70dpbIospTl8SoV1dCyC4WoR45q+4tXq4Y9cAKpnpgVkZrjFMbHRcR2mCINQH79DPdnHKgzWPS5LWvqbtXr820648CsWtbJnaBeZ58Eu1hSqZVnv3/e2e/9vojYBSd64Yn/7NT74zu/433ft4tFEfnRYxvPOf8ptXMY1r2SiPz48fecvekJERGroO5V/VpV3ZoGQWA5rirWsl0RsYtFu2CLSFDzwxtbkvemmpjwL7542XDA++8P3+4dBNa2beW6mwqFYMuWZUft36+Pkm3blk04c9994abt2yv33FOSeh+39CgtbXx1OAXxX1yx42t3f11ibxuXILjh6p3xnb90x61qwS24n/jojrqbROSGq66Nb7r59lvUwqev3vlXt3xV6uVw9PutMkdPmqvPrXsVgtNxV0XteLDW8VpvUkf9fr1N6aPa8ez3z6uzcur9InLWHz5uOa74/rNT5/3ke+991/lPtXkuIE3F+ocfdlWC/kMfqn7kIxUV1lWs37+/pPbctq2sN6lYf+BAOBh7y5bqtm0VFfFVrN+/v6guvm3bytu3V3TEz+0vrtiRXqli/ZeiYH3D1TtvuOpaFdZVrP/KXfvUpk98dIfepGL9l+64Vd0Q33D1zk9fvVNHfOTT/2TOzpffkV45JfLcljV601S05y2n/UTybkosN8X3daxfG/xnETm+8Nkgmvbg7RsfPcW9Oeq3f56IrF78y+PBX4qI7/sTlRvn/C+646tUOWEhctNx77OBXw2qqnO9nkHB0v3/wzcdejXbKYiIVSj4i2URCYuCkR5+2P3a1zaq5a9+ddPU1NTevZMf//i0iOzfX9q3b4PatG2biIjedOCAe+ut4VFbtoiI7Ns3uWOHOqq4b99k/Kg775z82Mem1ZpvfGPDFVfMtFRDHesfvvteEfnjS7foTV+6/ZZvP3hQLavo/+0HDqgdvnLXvke+uV9tUtFfb/rSHbd++4ED8aMeffDgH12yWa157ODfnr/5Qy3VEH1+VHvGgdmpmFtO+4n6J7E/A1NTU3p/tTLfJjUsyor+2RKof3pNmlepnnXuY2ed+5heEwS+3v0U9+b0udZZN4mIr7oT+N7MI++ceeSdXqXqReNQgjB748eKCodTBX4t8P3AqwVeTb0dN/B9v1YT3xPfWzx2rPkfLEbJgQNFPbnNVVdNX3VVGJT37p0UER3r459DtUnH+vgmFeV1rI9vuvPOSYneh1UqBeqf64b/LEvUvzTfD/bctXfPXXv1msBXn/FARHSsj59LhXId69ObdKyPb3r0wYMi4hZdEXGLRfXPKRTUvzo1Q0w/w/3zWyee3zqxKSL1svnqN103IaM2Pb91otGmf9463tH61qfO9faNj6U3/fh/bxKRs/7wiXX2TT2oCUbbtddOT01NXXpp5dJLk/O8S/Q5VGn3upt04j69Saf7u0qdS6Xd626KJ+4Tm3bvrbMJrRqgjpgq4sdzOzrWpxM+OtZf9dI76276563jV750TptVCrxq1AxfYllL761V5zrrPY+f4v5VfB+/vBD9GXhUtfcDL/7sKIgXZVm2ZUf/nHBN4Pt+texXy355obYwX1uYD2o8fUJ9OtZ/4xsb6m6Kp24Sm+6/v6huBXpQw7+65auPHfzbupviqZvEpt17bz10f3ITcujn7U8tsETkltN+ksik7Hz5HVOxO7hGsV5EGsV6EUnH+lPtqsTeh16JzhoEDXu8FMbX2M6yv4iWHb29NnaudfZ/TRz490/9kVrQCZ/CeHiDYhVc8YNwqh7LcUphc0y9JEuscMCMFYRpH5Fogh2be1VDLS6GH1EV0PUHb8eOGYl9DhvFeomlbtKb0rH+da/zpN7rsbz0zFORymJyluN4zkefq1Gsl1jqJr0pHetfe+qpEpsJ2Y+ejen3mNNnua4+d8TM7jaj2vui/iS0vume1z/dbhVXos91PPhcfP3bNz7290+dH27yP+eUeMqK/C67rHzvvWGz4IorZu65p3T55WUR2bdvg3rKqj+HV16ZfL6qN6kntHU37dzZ9R5l+lwXbP5wo03xp7uJTRddtq1rVTNI/x/VLi0/VP+dTbec9pO6PfSzN93z+qff+OBCm9XzvVptcbGmexCrB62+J/6yd5KcsG786d99IL7Gdl31SZ2amhLL8r2a70WzNkTPYFVRXnnRKy96lbLluJbjWrYTPg6zHatQsAoF23XFLohdoN+9yS67bKn5rGJ92pVXzsR3i9uxYzrR0V7bufOpzZt7lCe8YPOHP7Pzz+tu+uNLtyQ62msXXbbtE1fW6eKJVvWzdf9PWyb+7YG5uvH651sn3vbQXPyJvPYvl6z6Nw8u1N30i62r3/rQybqbROT1D5YTGw5vXS315kbW/PKCTsvoYlVHnbPOfeynT57f6Fy260pVznrP4z/9Px/46d+9/+0bH00UooXdfizbdi0RsQpjaoIdq+CU1q0RkcWjr3plT0TEI3dvqP37i9u2VeqG8gceKF56aaXu5/DAgeKWLfU3TU05mzZ5jT6973uf9773Jc8isZmQ0+yCo4O1LlY9ev3yvts+teOauufac9fe6z/68bqb7v6bA3/64S2NavhnF1/yZxdfEl/z5X23iYhdDANasFj/b5vh+pwO/qctE9e8nMy/733dj0Xk51snPp5Kze9//Q8Dsf7lklXbf7O+7lG/2Lp6x0vvSmy643U//seta0Tk2pcSjwHepbZm1PCscx9bV1j2GHZdQY7XPisiZ/3B4+ucZNb+5NhN517yf2OHP7qucPMprrxa/XS6qHhpQIa6z1pVfuaBB4p33JHcdN11T/m+deBA8dZbk5s+97kfiMjUlPOFL/xBYtMnP/nkI4+4IvKVr2xcvmVSRHQH0LrqPmtV+Zkv77vtW/sfSmz60OXbVPfN//nN+xOb/uTqHSJy998cuPu/JzvkbLni8q/99TdE5OH/cU+6Dh/ctjWjhuh/z5zbTlsWbffGgu/e5YF4/+t/qJfvW56Xj++573U/im/KjubZLMeVejPVOGNjdqnkrFo1V/xifP3CxH+zC4Xyq8fVm0ksx7EKpRNyY0ZRIqKKKp3ymtIprxk/7TVrT/+dtaf/jipHFWU5jioq9zeCEZBIvse/TATi665bysVfe+2yTSrWK1/4wg/imz75ySc7Us+6EoH4Q5cv5eL/w598JL5JxVu431UAAAk4SURBVHrlT/98WXpnyxWXd6d2prCCYNkN2sxMa0Ppcrj++uvVwubNm7t9rnwOHgxHhVDD3DZu3LjyTsjEldK+wa9hD66UPXv2qIX+t+4BAD1AuAcAI/QhmTM52fUhfPmsXx8+/n366a532M9niGqo7x8HzYYNH2m0aWYm+cywv7hSchuiGvbgSiGZAwBmIdwDgBH62e9e384MCP3sXt8AUsNW9bL/Q0tpmYyd0/u0dHgPUkAD+1se/M/h4Newl2jdA4ARCPcAYATm1MUIaiZ1073DgcFE6x4AjEC4BwAjkMyBWTI60pDDwWijdQ8ARiDcA4ARSOZgWOm0TKfGQA3a6Cqgs2jdA4ARCPcAYASSORhBncq0kLHBKKF1DwBGINwDgBFI5mBYMSoKaAmtewAwAuEeAIxAMgdDps2hT91LAdGNBwOO1j0AGIFwDwBGINwDgBEI9wBgBMI9ABiBcA8ARiDcA4ARCPcAYASGWWHIZLzESq/JGPGUbzAUr7XCCKB1DwBGINwDgBFI5mBYNfNq8h6cHRgWtO4BwAiEewAwAskcjKBmuui0VA4wAmjdA4ARCPcAYASSORhWzWRa0vtkpHdaSt10Kl8E9AytewAwAuEeAIxAMgdmobMNjEXrHgCMQLgHACOQzMEISveWaSmH0+bhwGCidQ8ARiDcA4ARSOZgWLU0vqmZ2ZI7/g4sYKDQugcAIxDuAcAIfUjmrF+/Xi1s3ry592dvBjUcYUOUlhn83zI1HC607gHACIR7ADCCFQRB/OuZmZl+VQUA0HF79uxRC7TuAcAIhHsAMALDrABgBOkcjkbrHgCMQLgHACNY6r/p6Wm1kG7/AwBGAK17ADAC4R4AjGCpNM7k5KT6esuWLX2tDwCgK2jdA4ARCPcAYARL98lRdFYHADBKaN0DgBEI9wBghGQyBwAwkmjdA4ARCPcAYATCPQAYgXAPAEYg3AOAEQj3AGAEwj0AGIFwDwBG6N2ryVuajadTg7/0SQe/wLR8p0gXmFFOvrN3qs75PhLN/Ao6/msCRkDvwj0SVgx2k5OT3Yue+c7e8ToD6BmSOQBghN617jOaiga2B+PN5IyfjFpo5ueTO4fT/Nk7XudmqgqgU0jmdEy+v151d068UbLJ83bq7F06CkB/kcwBACMMTeu+pd4g6Z0zmt4d7xvTS9kJljYL7PZRGYcP/k8eGDpD0LqfnJzMjibde+FiD17lODhvi1zx59zBowD03hCEewBA+wY9mZOvN0hLQ3LqbsrRz6TVZ6SJU7SvUTmtduxp/kFxvqPy1RBAmwY93Gvt92DJcbqupil6cAole+hTvo497XQHAtAXJHMAwAhD07rvnv4+acxOJXWqnEYpqXwdezreHQhADxgd7ke+S0nz+SLGWwEjj2QOABjB3NZ9MxmJfHNMttnmzahYN2YZol0PGGJown2++XizD+94fdosMLGm1dmP2/n59OuodnTwWwZMQDIHAIxg9fGuvMnURJtPGjN6iDffEsw4qqUhXStWL7uEuqfI9/Pp5VGN5H7BWfcePgMjbAiSOSt2L8m+sDMOzzfQqdFRnYovrZaT7+fTy6M6bkCqAQwXkjkAYIR+JnPQKpPf/wWgTbTuAcAIhHsAMALJHAAwAq17ADAC4R4AjEC4BwAjEO4BwAiEewAwQu8mUWhmiFDH5xDuwbmGSL5ZBzo1V0G+GXK696vMOKobc1knCux4nTP26d6EHxguQzBnDtq3YqjNN5lwx2eB7o1uT5I8+JMwG9jWgZDMAQBD0Loffdnv7Wr0+vJ8RzVjcFqUHa/JYKZNMuaOHtL7M+RDuB9K+W7GB3lO457pTaZlYH9oGQl9jDySOQBghKFp3Xevf0gzPTRaOmnHXxTVZlOxBymLNg/vTVs4471mdXeQFu+ihrS9nCMdhyE1BOF+MPuH9PJV4F39Bluq85BGtIRuf1qGInTme5UbhhrJHAAwwqC37jveP6SlcS51N+XrypLep5mjGp2r48N/mikzXdV8bcO+NH5byrDRLR0jqQ/hPl8aJF+vkm7oUleWwfkG01bMeg+yoa58Ix3MJcIcJHMAwAi9a91PT0/n67LSR71sLvXyXHXH3TRKiDWTpBoKQ115ZRgvIgyO/rTuJycn45/aAbwJTdSw1WM7W5mump6ebjI6DGMQ6cvvojcnbfMiaucTjiFFMgcAjNDTR7XDMl4/Xx+b+I12jnZTxyfCzbdzXQPye2lJ75/QNplpaf8s0tGLaBh/uchn0Dtiat2bobeDg5ja6UjTg8FivRwa1nG5K9/OTzX3L2Vgu3KSwDEZyRwAMII1IGNeuj0FTfaAqfQ+zTeC2k/C5DhXq43Hjk/jk3FUO3WoW2yOarTfm6idXFAzmZbcP42MszSfeFzxEIyk/iRzEkmP7M9cvmRlM3mVjH06Pr5pxfq3f/2vuH/Hf4a9CRbtVKPNxxVtDhvuauakpYuo7rEwDckcADBCf5I5I6nJphw/cAB9Qeu+p4j1APqFcA8ARiCZAwBGoHUPAEYg3AOAEQj3AGAEwj0AGIFwDwBG6N0kCvkmCRjYmQWbka/yLU0oBABNGpoJkE3A5LQAuodkDgAYoZ/DrIY6UZMtx/S55HAAdBXJnCydSr63tD9RHkA3kMwBACMMeus+3b7OSHo00xjvwcs6Wnq7RfvvXWqm5EZaeoNVx3+q3X7TLIC4QQ/3zUhHje69x3wodOlt4x38qdIHCeg9kjkAYIQhbt1PT09nNBLVprp5lYzGZuKoHjf2G307uR8U53tvePM/n24cBaBLhrt1Pz09HY8X05HsQ1YsZ9D0MvWR7+czjD9VwDTDHe4BAE0a4mROPgP7kLBuQ7hRPiS7nMRRTZ4r+5Dc0udqs4YA8qF1P9Dy5UNWPKrvf/MGv4bA6CHcA4ARRiGZ01L7N18vl2HMLeTLDnX8O834GXYqfwWgGca17gc2S1C3YpOTkz2ucAeHaPW+8gAyGBfuAcBMo5DMaUYzvUHiO+c7S6OSMwYWNVmxfAOmMuSrRuLYfJXPV0MAbTIl3EsUPvK9Q7GrVqxYx6vRaFRUdjUyiup45Yn1QMeRzAEAI/TzbVYAgJ6hdQ8ARiDcA4ARCPcAYATCPQAYgXAPAEYg3AOAEQj3AGAEwj0AGIFwDwBG+P8yj6kByiB+qgAAAABJRU5ErkJggg==;" vertex="1" parent="XSjLxf4Ph_vKjmcvZ095-37">
          <mxGeometry y="20" width="506" height="345" as="geometry" />
        </mxCell>
        <mxCell id="XSjLxf4Ph_vKjmcvZ095-83" value="" style="whiteSpace=wrap;html=1;strokeColor=#FF8000;strokeWidth=4;fillColor=none;movable=1;resizable=1;rotatable=1;deletable=1;editable=1;locked=0;connectable=1;" vertex="1" parent="XSjLxf4Ph_vKjmcvZ095-37">
          <mxGeometry x="310" y="37.000000000000455" width="50" height="50" as="geometry" />
        </mxCell>
        <mxCell id="XSjLxf4Ph_vKjmcvZ095-84" value="" style="whiteSpace=wrap;html=1;strokeColor=#97D077;strokeWidth=4;fillColor=none;movable=1;resizable=1;rotatable=1;deletable=1;editable=1;locked=0;connectable=1;" vertex="1" parent="XSjLxf4Ph_vKjmcvZ095-37">
          <mxGeometry x="310" y="144" width="50" height="50" as="geometry" />
        </mxCell>
        <mxCell id="XSjLxf4Ph_vKjmcvZ095-91" value="" style="whiteSpace=wrap;html=1;strokeColor=#97D077;strokeWidth=4;fillColor=none;movable=1;resizable=1;rotatable=1;deletable=1;editable=1;locked=0;connectable=1;" vertex="1" parent="XSjLxf4Ph_vKjmcvZ095-37">
          <mxGeometry x="364" y="144" width="50" height="50" as="geometry" />
        </mxCell>
        <mxCell id="XSjLxf4Ph_vKjmcvZ095-95" value="" style="whiteSpace=wrap;html=1;strokeColor=#99FFFF;strokeWidth=4;fillColor=none;movable=1;resizable=1;rotatable=1;deletable=1;editable=1;locked=0;connectable=1;" vertex="1" parent="XSjLxf4Ph_vKjmcvZ095-37">
          <mxGeometry x="39" y="144.00000000000045" width="50" height="50" as="geometry" />
        </mxCell>
        <mxCell id="XSjLxf4Ph_vKjmcvZ095-99" value="" style="whiteSpace=wrap;html=1;strokeColor=#99FFFF;strokeWidth=4;fillColor=none;movable=1;resizable=1;rotatable=1;deletable=1;editable=1;locked=0;connectable=1;" vertex="1" parent="XSjLxf4Ph_vKjmcvZ095-37">
          <mxGeometry x="39" y="37.000000000000455" width="50" height="50" as="geometry" />
        </mxCell>
        <mxCell id="XSjLxf4Ph_vKjmcvZ095-59" value="" style="edgeStyle=none;orthogonalLoop=1;jettySize=auto;html=1;rounded=1;shadow=0;strokeColor=#82b366;strokeWidth=2;fillColor=#d5e8d4;shape=flexArrow;labelBorderColor=#000000;fontSize=16;fontColor=#000000;labelBackgroundColor=#FFFFFF;fillStyle=solid;movable=1;resizable=1;rotatable=1;deletable=1;editable=1;locked=0;connectable=1;entryX=0.5;entryY=0;entryDx=0;entryDy=0;" edge="1" parent="1" source="XSjLxf4Ph_vKjmcvZ095-58" target="XSjLxf4Ph_vKjmcvZ095-47">
          <mxGeometry width="80" relative="1" as="geometry">
            <mxPoint x="970" y="590" as="sourcePoint" />
            <mxPoint x="1130" y="590" as="targetPoint" />
          </mxGeometry>
        </mxCell>
        <mxCell id="XSjLxf4Ph_vKjmcvZ095-64" value="Phenol" style="edgeLabel;html=1;align=center;verticalAlign=middle;resizable=0;points=[];" vertex="1" connectable="0" parent="XSjLxf4Ph_vKjmcvZ095-59">
          <mxGeometry x="-0.0926" y="-2" relative="1" as="geometry">
            <mxPoint as="offset" />
          </mxGeometry>
        </mxCell>
        <mxCell id="XSjLxf4Ph_vKjmcvZ095-60" value="" style="edgeStyle=none;orthogonalLoop=1;jettySize=auto;html=1;rounded=1;shadow=0;strokeColor=#82b366;strokeWidth=2;fillColor=#d5e8d4;shape=flexArrow;labelBorderColor=#000000;fontSize=16;fontColor=#000000;labelBackgroundColor=#FFFFFF;fillStyle=solid;movable=1;resizable=1;rotatable=1;deletable=1;editable=1;locked=0;connectable=1;entryX=0;entryY=0.5;entryDx=0;entryDy=0;" edge="1" parent="1" source="XSjLxf4Ph_vKjmcvZ095-62" target="XSjLxf4Ph_vKjmcvZ095-46">
          <mxGeometry width="80" relative="1" as="geometry">
            <mxPoint x="960" y="750" as="sourcePoint" />
            <mxPoint x="1210" y="760" as="targetPoint" />
          </mxGeometry>
        </mxCell>
        <mxCell id="XSjLxf4Ph_vKjmcvZ095-63" value="Acetone" style="edgeLabel;html=1;align=center;verticalAlign=middle;resizable=0;points=[];" vertex="1" connectable="0" parent="XSjLxf4Ph_vKjmcvZ095-60">
          <mxGeometry x="-0.0508" y="3" relative="1" as="geometry">
            <mxPoint as="offset" />
          </mxGeometry>
        </mxCell>
        <mxCell id="XSjLxf4Ph_vKjmcvZ095-66" value="" style="edgeStyle=none;orthogonalLoop=1;jettySize=auto;html=1;rounded=1;shadow=0;strokeColor=#82b366;strokeWidth=2;fillColor=#d5e8d4;shape=flexArrow;labelBorderColor=#000000;fontSize=16;fontColor=#000000;labelBackgroundColor=#FFFFFF;fillStyle=solid;exitX=0.5;exitY=0;exitDx=0;exitDy=0;movable=1;resizable=1;rotatable=1;deletable=1;editable=1;locked=0;connectable=1;entryX=0.5;entryY=1;entryDx=0;entryDy=0;" edge="1" parent="1" source="XSjLxf4Ph_vKjmcvZ095-65" target="XSjLxf4Ph_vKjmcvZ095-29">
          <mxGeometry width="80" relative="1" as="geometry">
            <mxPoint x="1840" y="370" as="sourcePoint" />
            <mxPoint x="1890" y="280" as="targetPoint" />
          </mxGeometry>
        </mxCell>
        <mxCell id="XSjLxf4Ph_vKjmcvZ095-67" value="Molten Bisphenol A" style="edgeLabel;html=1;align=center;verticalAlign=middle;resizable=0;points=[];" vertex="1" connectable="0" parent="XSjLxf4Ph_vKjmcvZ095-66">
          <mxGeometry x="0.5767" y="-2" relative="1" as="geometry">
            <mxPoint as="offset" />
          </mxGeometry>
        </mxCell>
        <mxCell id="XSjLxf4Ph_vKjmcvZ095-81" value="Gypsum x40" style="whiteSpace=wrap;html=1;strokeColor=#d79b00;strokeWidth=4;fillColor=#ffe6cc;fontSize=16;labelBackgroundColor=none;labelBorderColor=none;fillStyle=solid;movable=1;resizable=1;rotatable=1;deletable=1;editable=1;locked=0;connectable=1;fontColor=#000000;" vertex="1" parent="1">
          <mxGeometry x="-1670" y="720" width="200" height="40" as="geometry" />
        </mxCell>
        <mxCell id="XSjLxf4Ph_vKjmcvZ095-82" value="" style="edgeStyle=none;orthogonalLoop=1;jettySize=auto;html=1;rounded=1;shadow=0;strokeColor=#d79b00;strokeWidth=2;fillColor=#ffe6cc;shape=flexArrow;labelBorderColor=#000000;fontSize=16;fontColor=#000000;labelBackgroundColor=#FFFFFF;fillStyle=solid;movable=1;resizable=1;rotatable=1;deletable=1;editable=1;locked=0;connectable=1;entryX=0.54;entryY=1.03;entryDx=0;entryDy=0;entryPerimeter=0;exitX=0.5;exitY=0;exitDx=0;exitDy=0;" edge="1" parent="1" source="XSjLxf4Ph_vKjmcvZ095-83" target="XSjLxf4Ph_vKjmcvZ095-81">
          <mxGeometry width="80" relative="1" as="geometry">
            <mxPoint x="-1600" y="490" as="sourcePoint" />
            <mxPoint x="-1500" y="440" as="targetPoint" />
          </mxGeometry>
        </mxCell>
        <mxCell id="XSjLxf4Ph_vKjmcvZ095-85" value="Gypsum" style="edgeLabel;html=1;align=center;verticalAlign=middle;resizable=0;points=[];" vertex="1" connectable="0" parent="XSjLxf4Ph_vKjmcvZ095-82">
          <mxGeometry x="-0.2151" y="-4" relative="1" as="geometry">
            <mxPoint as="offset" />
          </mxGeometry>
        </mxCell>
        <mxCell id="XSjLxf4Ph_vKjmcvZ095-86" value="" style="edgeStyle=none;orthogonalLoop=1;jettySize=auto;html=1;rounded=1;shadow=0;strokeColor=#82b366;strokeWidth=2;fillColor=#d5e8d4;shape=flexArrow;labelBorderColor=#000000;fontSize=16;fontColor=#000000;labelBackgroundColor=#FFFFFF;fillStyle=solid;exitX=0.5;exitY=0;exitDx=0;exitDy=0;movable=1;resizable=1;rotatable=1;deletable=1;editable=1;locked=0;connectable=1;entryX=0.5;entryY=1;entryDx=0;entryDy=0;" edge="1" parent="1" source="XSjLxf4Ph_vKjmcvZ095-84" target="XSjLxf4Ph_vKjmcvZ095-119">
          <mxGeometry width="80" relative="1" as="geometry">
            <mxPoint x="-420" y="1890" as="sourcePoint" />
            <mxPoint x="-260" y="1750" as="targetPoint" />
          </mxGeometry>
        </mxCell>
        <mxCell id="XSjLxf4Ph_vKjmcvZ095-118" value="Phosphoric Acid" style="edgeLabel;html=1;align=center;verticalAlign=middle;resizable=0;points=[];" vertex="1" connectable="0" parent="XSjLxf4Ph_vKjmcvZ095-86">
          <mxGeometry x="-0.1694" relative="1" as="geometry">
            <mxPoint x="-1" as="offset" />
          </mxGeometry>
        </mxCell>
        <mxCell id="XSjLxf4Ph_vKjmcvZ095-89" value="Hydrochloric Acid" style="whiteSpace=wrap;html=1;strokeColor=#82B366;strokeWidth=4;fillColor=#D5E8D4;fontSize=16;labelBackgroundColor=none;labelBorderColor=none;fillStyle=solid;fontColor=#000000;" vertex="1" parent="1">
          <mxGeometry x="-170" y="1730" width="200" height="40" as="geometry" />
        </mxCell>
        <mxCell id="XSjLxf4Ph_vKjmcvZ095-90" value="" style="edgeStyle=none;orthogonalLoop=1;jettySize=auto;html=1;rounded=1;shadow=0;strokeColor=#82b366;strokeWidth=2;fillColor=#d5e8d4;shape=flexArrow;labelBorderColor=#000000;fontSize=16;fontColor=#000000;labelBackgroundColor=#FFFFFF;fillStyle=solid;exitX=1;exitY=0.5;exitDx=0;exitDy=0;movable=1;resizable=1;rotatable=1;deletable=1;editable=1;locked=0;connectable=1;entryX=0.5;entryY=1;entryDx=0;entryDy=0;" edge="1" parent="1" source="XSjLxf4Ph_vKjmcvZ095-89" target="XSjLxf4Ph_vKjmcvZ095-88">
          <mxGeometry width="80" relative="1" as="geometry">
            <mxPoint x="1520" y="1240" as="sourcePoint" />
            <mxPoint x="1680" y="1240" as="targetPoint" />
            <Array as="points">
              <mxPoint x="1663" y="1760" />
            </Array>
          </mxGeometry>
        </mxCell>
        <mxCell id="XSjLxf4Ph_vKjmcvZ095-93" value="" style="edgeStyle=none;orthogonalLoop=1;jettySize=auto;html=1;rounded=1;shadow=0;strokeColor=#82b366;strokeWidth=2;fillColor=#d5e8d4;shape=flexArrow;labelBorderColor=#000000;fontSize=16;fontColor=#000000;labelBackgroundColor=#FFFFFF;fillStyle=solid;exitX=1;exitY=0.5;exitDx=0;exitDy=0;movable=1;resizable=1;rotatable=1;deletable=1;editable=1;locked=0;connectable=1;entryX=0;entryY=0.5;entryDx=0;entryDy=0;" edge="1" parent="1" source="XSjLxf4Ph_vKjmcvZ095-91" target="XSjLxf4Ph_vKjmcvZ095-89">
          <mxGeometry width="80" relative="1" as="geometry">
            <mxPoint x="210" y="1430" as="sourcePoint" />
            <mxPoint x="370" y="1430" as="targetPoint" />
            <Array as="points">
              <mxPoint x="-1476" y="1750" />
            </Array>
          </mxGeometry>
        </mxCell>
        <mxCell id="XSjLxf4Ph_vKjmcvZ095-94" value="H2SO4" style="whiteSpace=wrap;html=1;strokeColor=#6c8ebf;strokeWidth=4;fillColor=#dae8fc;fontSize=16;labelBackgroundColor=none;labelBorderColor=none;fillStyle=solid;movable=1;resizable=1;rotatable=1;deletable=1;editable=1;locked=0;connectable=1;fontColor=#000000;" vertex="1" parent="1">
          <mxGeometry x="-2140" y="910" width="200" height="40" as="geometry" />
        </mxCell>
        <mxCell id="XSjLxf4Ph_vKjmcvZ095-97" value="" style="edgeStyle=none;orthogonalLoop=1;jettySize=auto;html=1;rounded=1;shadow=0;strokeColor=#6C8EBF;strokeWidth=2;fillColor=#DAE8FC;shape=flexArrow;labelBorderColor=#000000;fontSize=16;fontColor=#000000;labelBackgroundColor=#FFFFFF;fillStyle=solid;exitX=0.481;exitY=1.064;exitDx=0;exitDy=0;movable=1;resizable=1;rotatable=1;deletable=1;editable=1;locked=0;connectable=1;spacing=2;exitPerimeter=0;entryX=0.5;entryY=0;entryDx=0;entryDy=0;" edge="1" parent="1" source="XSjLxf4Ph_vKjmcvZ095-94" target="XSjLxf4Ph_vKjmcvZ095-95">
          <mxGeometry width="80" relative="1" as="geometry">
            <mxPoint x="-1850" y="840" as="sourcePoint" />
            <mxPoint x="-1690" y="840" as="targetPoint" />
          </mxGeometry>
        </mxCell>
        <mxCell id="XSjLxf4Ph_vKjmcvZ095-98" value="H2SO4" style="edgeLabel;html=1;align=center;verticalAlign=middle;resizable=0;points=[];" vertex="1" connectable="0" parent="XSjLxf4Ph_vKjmcvZ095-97">
          <mxGeometry x="-0.1726" y="-2" relative="1" as="geometry">
            <mxPoint as="offset" />
          </mxGeometry>
        </mxCell>
        <mxCell id="XSjLxf4Ph_vKjmcvZ095-100" value="Apatite Dust x9" style="whiteSpace=wrap;html=1;strokeColor=#6c8ebf;strokeWidth=4;fillColor=#dae8fc;fontSize=16;labelBackgroundColor=none;labelBorderColor=none;fillStyle=solid;movable=1;resizable=1;rotatable=1;deletable=1;editable=1;locked=0;connectable=1;fontColor=#000000;" vertex="1" parent="1">
          <mxGeometry x="-1926" y="720" width="200" height="40" as="geometry" />
        </mxCell>
        <mxCell id="XSjLxf4Ph_vKjmcvZ095-101" value="" style="edgeStyle=none;orthogonalLoop=1;jettySize=auto;html=1;rounded=1;shadow=0;strokeColor=#6C8EBF;strokeWidth=2;fillColor=#DAE8FC;shape=flexArrow;labelBorderColor=#000000;fontSize=16;fontColor=#000000;labelBackgroundColor=#FFFFFF;fillStyle=solid;exitX=0.5;exitY=1;exitDx=0;exitDy=0;movable=1;resizable=1;rotatable=1;deletable=1;editable=1;locked=0;connectable=1;spacing=2;entryX=0.5;entryY=0;entryDx=0;entryDy=0;" edge="1" parent="1" source="XSjLxf4Ph_vKjmcvZ095-100" target="XSjLxf4Ph_vKjmcvZ095-99">
          <mxGeometry width="80" relative="1" as="geometry">
            <mxPoint x="-1820" y="800" as="sourcePoint" />
            <mxPoint x="-1660" y="800" as="targetPoint" />
          </mxGeometry>
        </mxCell>
        <mxCell id="XSjLxf4Ph_vKjmcvZ095-105" value="&lt;span style=&quot;font-size: 45px;&quot;&gt;Epichlorohydrin&lt;/span&gt;" style="swimlane;whiteSpace=wrap;html=1;labelBorderColor=none;strokeWidth=5;fontSize=16;startSize=80;fillStyle=solid;fillColor=#ffffff;fontColor=#000000;" vertex="1" parent="1">
          <mxGeometry x="920" y="-1050" width="2536" height="1541" as="geometry" />
        </mxCell>
        <mxCell id="XSjLxf4Ph_vKjmcvZ095-38" value="LCR" style="swimlane;whiteSpace=wrap;html=1;strokeColor=default;labelBackgroundColor=none;labelBorderColor=none;fillStyle=auto;strokeWidth=1;fontSize=16;fontColor=#F7F7F7;fillColor=#707070;fontStyle=1;movable=1;resizable=1;rotatable=1;deletable=1;editable=1;locked=0;connectable=1;" vertex="1" parent="XSjLxf4Ph_vKjmcvZ095-105">
          <mxGeometry x="526" y="732" width="510" height="360" as="geometry" />
        </mxCell>
        <mxCell id="XSjLxf4Ph_vKjmcvZ095-39" value="" style="shape=image;verticalLabelPosition=bottom;labelBackgroundColor=default;verticalAlign=top;aspect=fixed;imageAspect=0;image=data:image/png,iVBORw0KGgoAAAANSUhEUgAAAgAAAAFUCAIAAADd7RPRAAAACXBIWXMAABJ0AAASdAHeZh94AAAgAElEQVR4nO3de5BcVZ3A8dPd88oLLJQoBbjrPz6ISxW1tRWZuIvyZhUQGYQkkOJlHhLAULDGtQqSCCsI6wgZzYMgCHkAMyDoKggIobaYSFm1VrEQ0T9A44IKpbySTKaf+8e559c393T3dN++3ffeOd9PpYrDPfdxZubec/r8+pxzM5VKRQEApq9du3bpxODgoE6cd955SqlsbCUCAMSKBgAAHJVpEAKSXgMAIL2Gh4cDW0ZHRxU9AABwFg0AADiqx95E5AcAXEAPAAAcRQMAAI6qEQLqglWrVsVy3SkNDQ3pxNjYWLwlqSdFJVywYEG8JZkGeFJCS1EJY3xS6AEAgKNoAADAUfGEgIR0ghLi2muv1QnpNlLCVkkJGU4WocT+lZN/Hya/hDE+KfQAAMBRMfcArjnzQaXUd37yJf8W+V+d6+ffEwDQjpgbAM1f6fs3KqXOXX2k/orc3xg899xzOmF/ex4uCwAcFH8ISFf99od9pdS5q4/078bHfwCIUPwNgGrYBgAAOiQRDYCiDQCArktKA6D4ghcAuitBDYCiDQCALkrEKCDlG6JzzZle+pozg1kP3fya/2thf1aDEzbI2rNnj04sXLgwXLEBIL2S0gDYzl195EM3vxZ3KQBg2kpWCKixwMd/AEA7Yu4B2EH/2588419OUkqpvr7eDc/+o1Iqm8vprNPOzOhENuMlMlmTyEydqFQqOlEqlnRi4/o90f0oAJAyaeoBAAAiRAMAAI5K3JfAfX19OtE/4CXykwUvz7RWAzNn6IQd55Ho0MTEAW9vb4OaMXNAJwp5c0IAcBg9AABwFA0AADgqcSGgXM5rkyTyM3vOLJ3IZr0sCe/MmjXTZAUjP3MOmaMTJiakHtj+Y504Z+iMjhQdAFKFHgAAOIoGAAAclbgQkKoO7PE2ZK3ZXrKlVlY2kCXDgOwhQwDgMnoAAOAoGgAAcFTiQkASn5kxy5u3NbHfG9iTNQOEZPCPb/5XMEuGA2VMCOiCxWfrRJ6JYABADwAAnEUDAACOSmAIyEtUp3TNma0T1YlgJig0a/ZMc5j33/0ma/bsYJhox7ZHdOLcoX/tQMEBIGXoAQCAo2gAAMBRiQsBiUaTtTLBVMaaPmbv7TuIiWAAQA8AAFxFAwAAjkpcCMi8uV0NDHgTwfbt268TMgpIZntVKmWdKJcz9Y6S6NCXFnoTwYoFJoIBAD0AAHAVDQAAOCpxIaCCic/I693lHWESAsrn8zpR46XwZp9cLhfIKpijCsVSZ8oOAGlCDwAAHEUDAACOSkoIaM+ePTpx96Y90Z65YsYV8SIwAPCjBwAAjqIBAABHJSUEtHDhwsCWHTt2dC0LABxEDwAAHEUDAACOogEAAEfRAACAo2gAAMBRGZknJXbt2tXpqz733HM6ce2113b6WuHcdtttOkEJQ+vCjRS5VatW6cTw8HC8JdF4UtqX/BJ24Umx7+fR0VFFDwAAnEUDAACOiicEJB3tpBkaGtKJsbGxeEtST4pKuGDBgnhLEoJ9Z8YbC+JJCS1FJezCk0IICABwEBoAAHBUzGsBSScoIWScgHQbKWGrpIRRxRKPP/74SM5j+9SnPlUvS36rCRkXlNi/cvLvw+SXMMbxcvQAAMBRNAAA4KikLAcNdF8zMYGkxYKACNEDAABH0QAAgKMIAcFd9uIwN1x/vU7MOeSQQBaxIEw/9AAAwFE0AADgKEJASLoVK1Z06MxLliwJbPn5E0/oRIMBQsSCMG3QAwAAR9EAAICjCAEh6TZs2NChMzdYC6gZxIKQdvQAAMBRNAAA4ChCQHBXVOsDy3kef+wxnTj9jDMiOTPQUfQAAMBRNAAA4ChCQHBXS2sBNXOeGF/tBIRADwAAHEUDAACOIgSEpEvaWkCCyA/Sjh4AADiKBgAAHEUICEmXtLWAiPxg2qAHAACOogEAAEcRAoK7WloLiMgPph96AADgKBoAAHAUISC4q5m1gIj8YBqjBwAAjqIBAABHEQJC0sWyFtAvf/lLnSDyg2mMHgAAOIoGAAAcRQgISWcHajrntFNP1QkiP3ABPQAAcBQNAAA4ihAQUHX6GWfEXQSge+gBAICjaAAAwFE0AADgKBoAAHAUDQAAOIoGAAAcRQMAAI6iAQAAR8UzEUxexm2/kikhKCGSIPl/ZUqYavQAAMBRNAAA4KhMpVIJbOrCQriDg4OdvkQ48+fP14nnn38+3pLUk6ISDg8Px1uSaYAnJbQUlbALT4p9idHRUUUPAACcRQMAAI6KeTnoeV/+sk5U8nlvU7nsbTEJkent9RJ9fTrR8/73ewft3RvYR05YPnDAHJ/xsgoFb0N/v05kTWLo6KN1QrqN//Pj03TiQMErTyHvBc1KJnomUbRy2Uvlct61ensygS0V82PlC8EfsMfs3N/rNcwfOMz7cWbOyOnEfc/+c6CE0pFMCBl0gQiN3Hu3ThQL3o1dLBZ1Qu46CedWSt6tle3xbptcThLerSX3YaFYCFxLdu41T9Mh7ztUJ/r7B3Ti/156WSfkPrz6J9/2Cpb3ClYqeAklJVQmYbZks155Mr25wBYpYilfCpRQds6ZxMzD5nhlnuE9y+/b+XaghDwpNnoAAOAoGgAAcFTMIaDyu+96KemiHnKIl2VCNxLVERnTScz/4Q/eJmssk5BQUqa6ydu5vH+/TlR7mCYEJP76TsEU0MRwrEv1ZE3Ap98r2IG8iRcVvb3zheBhvp67CuwzccA7/O33igpQau873pMiUR2Joohcj3f75UyMtGCinaWSd49L4MgEY6oPiMRniuao/OSkTuwzIVZhVxwT7+zzSmgeT3uEYcYEoHr6vZ+iNOmVp1IwJVRWCSvBGJcqmp1NfHfyvYnAtd6n5lhlRBA9AABwFA0AADgq5hBQdo7XTZNxOOUJ05UzndayDNoxXcuyyapGT8wIn+yAN0phxsc+phPFd97Rid4PfUgn8n/8o5f19tvB81hyJrxTjSBlgvsUTWe8nA9GdaoHmaOy5vjZs71ecNGEiXp7vayJieAAoXL9EsIF2Vzws1omG7wRS0XvtimXvUemGiYy+2bMjZgx5+ubMdM7yowdyvV61UJ+0kRYjHI17hQcO5TJWCXMBEsow5NK1silaglV9VHRZGBPxUR+sj1eCQsHzOjBahF5UlpADwAAHEUDAACOijkE1Dt3rk4U3nxTJ6pjEiTOY7aUqwMYrNEFEh0yY4f2797tZZkRESUT8Cnng93GTE/d34OEZWQ8T6kkc1hMb1r6rCYl5ytVRzQE58JMTno/V48V+ZGfT3aG43LmlpLxPGUTD5GbX4JC1TvTDK4rl72dq7eWSchIoR4zvkgiPxVrqmMD2T4zPMmM5ynLADyJO/keFe+/poQS3qne8iZRmvRKWCPy43tUEAI9AABwFA0AADgq5hDQ5KuvBjdZIwdkjlimQUfUzpJQkhlWJANpKmZ6i5LAkZkRZrMncPXIjDCzRRb8qU77mgweZceLJs1aQNKdlTP3maBQn+lW790fXA4FTikWglMCZUaYkDV8fGEiK9ppxYuKeS/AUjChUTlPj5mDKYkDE8H5VqKct0qYtcYF9QbDRCVrJSI7XlSSOWLmEtmsmTfaJ4sCmejQfvN0own0AADAUTQAAOComENANQI+QpaDzmTqJkxUR0Y7VAcRFYMd0sp77wUvkQt2opshcR5ZHahgwkRSrtkzzYAKMzVMAlAyzyVnAkfV2JS5xH6zFpAkgIBSMRgPKVXMPW9uxIGZM3SiaCItMpNL7tWevp5Alpg0Y+okIZqpOCQSVV0dyCzsLFfvnelN8irlg2tHVyeESbDLKqEMB6oxIwxNoAcAAI6iAQAAR8UcAqqGbkrBUS7ZmTNNyvQfzYyVnFlBSOI8srOM8CnJQtMmwJI77DDvombdIVHd2ZIzndWyidDIe7skemVPRjkwGQzd9PdnAztJdEiCQrNnefv0mUsMmKP++g7rQjsta61GnstaD681Fi5vzXns6+sN7CvRIQnLDAx4gaMeM/Gqt9+bTbnXPCmFA9boHVmbSEpohVjtwXol6zy5fln+3Uy9lOhQNXDkLfk1YIYV9ZgSTrwdXLkaDdADAABH0QAAgKPiDgHJe95lOWgzJ6tsDTyQeFHJjOeRoFDJrPncQPGtt+pdvYFZJiwzy7yWfe8+L1ol7+2S6JCsBTTHLPW8b8LbuWCtFF1WwcjRe+bMEneaNZMlTqCULywzYBY8nzBzsvJ5L+wp4+Zk1uEMExo9MOE9TfJGsBrr/JiUnFnOM1AamLKEEpbpm+lFYyb3mYuaOE9GhvGYM/fP9o7KT3jRquqr5K3QanX9InPmgryMbyYzJcOgBwAAjqIBAABHxT0RTNZNtsbzVMncLklYYxtqTCiTd4TJmB8ZTVQMzpfJ1J8RJtEYWY1HVuyZM8s7arZJyACh9/aaH8caRCQG+rKBRM78Mvbt937SSRM4mtFPU+00WcNnwoRGZSHlAfNKrxlm2pcMv5nY5wVUs+Z1XaVKcHxarwmE9pqF0+VwWfmnYMbhyHCg4NgdX7wov28ycJ6ceUD6ZnkBn4x5f31+r/lxzBNsh3Jy/d6D0WOGMGXM1LDCfu/wslnRSIYDoRlUKwDgKBoAAHBU3CEgicbIq4tkZWb71WBNsIM51XiRtYJQ9YXU9d8I9tZ7XgnlRWC2N98KTqVpQMJEE2bJ6Mm8+UnNPr2yypC5aMFalRpO2feeN79J3u1le9e8885+G7tNXjGWnzTL6RSsOVnW+tLFkh378Rx414zfK9ddwGr/W2aWVhNPilxdBhGVJoPTISUWJC8UKxVkwWormAwLPQAAcBQNAAA4KuYQUGmvtXBHE71X36ulTQNmjRTyrZmSC26xLlGu/54ju1wy2sFePlfCO/al7Jdx26+SL5k8ifzkrCw4TlaOknFB1Xve3FES3qnI4s/mppUtdpZ9Y/vWcw5mNXhK7Vd6VSedmTCnhHckq8bOVlZ1qJD8FPIqeSsLzaAHAACOogEAAEfFvRaQ3Y2VLKtLaL8RrDpASHqd1tu1agwisuZ/ZeqPApI+r5TCHg4k5SoWp+5+2kGhojVHTOaaFYn8QCnlnwWpJIYTvLElOlSyXoenrIE5snM14GNdtDoKyLqx7RCQHbqpWHdv9T3vTQztk52rw4qsg+RtaKrEu/PCoAcAAI6iAQAAR8U9ESyb3b1tm3/DMYsWSXr39u3+rHkXX6wTudmzXxgZ8Wcdu3KlTpT27Xvp7rsPOuHixd7Ztm07ZuHCVguYM6MLPrvoqWd2nHxQXkV9dtFT/g3PbD/Z5KgTA1nm2FKpcvKFv/BnPXnfSTpxykW/eGrrSUqpkhV3kqAQ3JTNeZ/Vrlux8taN3zsor1K5bsVK/4ZbN4yYHPVvXzk4yxxbLpa+tvIqf9bNI7frxOqVV98ycodSqlwKxp3sl3yJjFluaNPi61fsWHdwAdXGRdf7tyzfLjtUNi66wZ8lx5bL5U2L1/izlm719tx84dpl29YopSpmaSMJN1WDQmhCzD0AXfsfs3ix/qd8lb5OHLNokWS9dM89OkvX/seuXHncmjXHrVkjW5RSuvafd8kl8y69dN6ll8ol2hSo6P0bn9l+8lNbT9IVt+yma/+nt5/8zI6TddX/2YVelq79n9p60pP3naSr/lMu+oV9csAWqOj9G2/dMHLLyB264pbddO3/7e+P3Lrxe7rqv275FTpL1/63jNxx88jtuupfvfLq9ksYqOj9G5dvX7ds2xpdcctuuvZfvn3tih3rdNW/YaGXpWv/ZdvWLN16g676N1+4tv0Swi/+ENAxixfPfe01/e8zn/mMUmru6697WYsWzX39dZ2ltxz++9/rxLErVx724ouH7tx56M6desthL76oE/MuueTwV189/JVXDn/lFb1FDldKzf3Tn1otoVTrazcV12466Ou1Z7afvHZz8cYtpRu3eN9Prd3s7fD09pPXbS76D5HEU1tPunFL6aa7Sjfd5R0lCaWUnArwk2r9p/eP/vT+UX/WrRtGfvrA2GNjDz829rC3zwNjOvHt74/87MEx/yGSuGXkjsfGHn587EePj/1Ib5GEUkpO1Typ1n+z6enfbHran7V8+7qXNz/92zt3/vbOnXrLy5ufNllrX978jP8QSSzbtua3d+783ZZnf7flWb1FEkopORVCi7kBkPiMUuqNI45444gjdFq3AdIS7DS1vDJtgFT3/iy98fBXX7WzdBugXwGW6e/3/mWz+l+DEvb1ZZ8bO/W5sVNlS6lU0f+Ur7r3X0tvXFcza1NR+ap4f5ZuA/Rb4HO5jP7X0+P9y2SU/gc39fT2Dm/ZNLxlk2wpF0v6n/JV9/47Sm/82YO1su4fVb4q3p+l2wC97HO2J6f/5Xp69D9V/0bM9eeueOimKx66qVpCQ/mqe/+19MaXNz9jZ+k2QKp4f5ZuA/S747NGzuBJaUn8PQCl1BtHHvnGEUfs3rFj944ddq7+23/i/PPrZfm/NghkydcGHaWvpaNANbOe3XFKvaxfPXpaJ4sGh+g7SkeBambdtul79bLW//AHnSzaQdfSUaCaWSvuX1cv66pHb+lgyVyViAZg97ZtUvUHKnqp/T/4l78EjpLaXzoKgax5F18sIaPOkdrfDt1I7X/DpuAailL7Xzc82ekSwgVS+9uhG6n9/2vHaM2s9T/8wUN339udEuqoTs2sFfev+83Gp2tmXfXoLS8MP9bpEjoo7lFApdLu++/XSf1lwAeVUkq9+ZGPKF+/r17tr3xhIjvLrv29V8+bSSg1Fg6yTBxoFJGXa9Wr/ZVS9Wp/pZRd+x99xIBSBXn/14FJ8955JoS5LX+g0QcFuaPq1f5KqXq1v1LKrv0/MPdwpVSfeUdY3qypXqm/FpAs2ty4hPVqf6VUvdpfKWXX/od86DClVG7Ae0dYyVzdnn2GBmJuAHTtf8wFF8z985/nKqWU2rlz57xLLpEd9NfCSin5esDOevPoo+tlvXHUUdEW2CbX+sZlwfFnknXD0uDvWbK+dRVvsEME5I46feicelmfO3+oXtY5S2rEUaMl1/ro5SfUy/r40hPrZX3yKoKl0Yu7B2Bqf6XUG0ceWW8f/Q1Bzaw3jz76pfvuq33UUUft3ro1kkJO6RuX5eqN5rxhaU/NUaRKqW9d1Xf8F5/oZLngltOHzqk3mvNz5w/VHEWqlDpnyaKrL13ayXJVffTyE+qN5vz40hNrjiJVSn3yqtNGvvj1TpbLUfE3ABICEnoYz7wlS166917/t/9i3sUXv3TPPTWzjluz5tdr1tTMUkq9eOedgS3eMKT6gwZ6c9kTFj6p03La/37gFKXU+Nipg0NP1LzWC4+dfuwZj9fM+tUjp/3TF35er4R/9+mfBHJ2PXyqUqqQp2PrtFxv7tpl3hB+uXn+c/MGpdR3t2z+6uVLa95RG7fft3zRRTWz1t9z15UXX1bvPlxy9rlLzj7Xv+X2H2xWShXNKkP27ZjNZTdccH2ghF958JtKqZUP3TRy7jdqXmvV498ZPv2amllXPnrz+rNX1yvhzZ9eoXau8G9Z+fC3lFKlgrUOEuqLuQHQA3jsOL42b8mSw/fsCWzUAZ+aX/C+e8IJSqnj1qw51Lpp/nbssTqyJINENR13atD5UHW+xf3mil6l1PjYqf8+kg9krV89o1KpvPDY6VfdciCQdeMVvUqpXz1y2nXfDYZ01y7r1VPGAlMNtHXLexuUEC6o+S3umYvOV0p9d8vmR7ZuD2RdsOxyVals3H7f/ZvvCmSdtfgCpdT6e+566J5g7/nzC8/TU8YCUw3M5b7UoIQ1v8U95isnKaVWPnTTi+ufDGQd9/WzVEWtevw7v775x8GjVp6ilLry0Zv/d/jxQNYnlp+op4wFphp4uStqDMZDPYkYBdTAmx/+8EH/6wv3v/n3f+/P0rW/9o6JG2p/O/bYTpRN+4+VBwXx16+eIek7vjbgz9K1v3brV/v9WWuXUb+jLV+48KAg/gXLLq+ml17mz9K1v3buxRf5sz6/8LzOlE4ppT555UGDoY/7+lnV9Oqz/Fm69tf+YdXp/qxPLA9+SYB2ZOwvzXft2tXpq65atUonhoaC30olxNiYN32GEoa2YMGCuIuQejwp7Ut+CbvwpAwPDwe2jI6OquT3AAAAHUIDAACOiudL4Oeffz6QSIj58+frBCUMTUqY2BDQ8cfXXRV8167ao43jkvy/MiUMLQlPCj0AAHAUDQAAOCrmeQDSCUoIGScgvUVK2KpujrVoKZjTYGd7n5YO70LgKLF/5eTfh8kvYYzoAQCAo2gAAMBR8a8FBHRCMwGfzh0OpAI9AABwFA0AADiKEBCc02DQDpEfOIUeAAA4igYAABxFCAgpJsGcqGZpJW3+F9BR9AAAwFE0AADgKEJAmJ6iis8Q58E0Rg8AABxFAwAAjiIEhBRj3hbQDnoAAOAoGgAAcBQhIKRPm5OzOhc4YsgQ0oUeAAA4igYAABxFAwAAjqIBAABH0QAAgKNoAADAUTQAAOAoGgAAcBQTwZA+DV4EJlsazMkKN12LV4Nh+qEHAACOogEAAEcRAkKKNfNS+C5cHUgpegAA4CgaAABwFCEgTE/NDAdq6TzA9EMPAAAcRQMAAI4iBIQUayY+Y+/TICjUUsAnqigTEBd6AADgKBoAAHAUISA4h4E9gEYPAAAcRQMAAI4iBITpyR6Z01Lkp83DgVSgBwAAjqIBAABHEQJCirU0A6uZtaMjf48YkGT0AADAUTQAAOCoeEJA8+fP14mhoaFYCjAlSjiNpSiYk/y/MiVMNXoAAOAoGgAAcFSmUqkENu3atSuWogAAOmF4eDiwZXR0VNEDAABn0QAAgKOYCAYA05Md+QmgBwAAjqIBAABH9WQyGZ0aHx/XiSl7DQCAaYAeAAA4igYAAByVkcjP4OCgTpx33nnxlQcA0Cl6/pcy9Tw9AABwFA0AADiqGgISEgsCAEwngdGe9AAAwFE0AADgqBprAdlBIQDA9EMPAAAcRQMAAI6iAQAAR9EAAICjaAAAwFE0AADgKBoAAHAUDQAAOKqrL4VvaZWhqOajyUUTe8IGlxDNXKvBr7fB4d08qqXzNDhzM3+CLvyZgLTragOAKYVbiW/KowYHB0Os+hfhUQASiBAQADiqqz2ABh8n+cyoDv5wrX8hzXQI7KNq5uqEHUXpwlHN4AYAuo8QUJRCt2eBij5cbVjzqCkbkgivBSBdCAEBgKPS1ANo6WOsvXODj+eRf0BuSeO4Svd16IvoVg9Pwq8CmN7S0QDEOPKko2NaIon8+M/W5gs+Y6n6AcSFEBAAOCoFPYBwI09amjRUMyvEmJbQc6Da+ew/Pj4eKGq4skU1Bilch4CAD9B9KWgARLhRLm1ergvxjdjrvnCRqGjjVwC6jxAQADgqTT2Azon3a8wIx8+EmJwVLhKVtJFLAEJwvQGYTiNY2gyRMSMMcA0hIABwlNM9gGbiGOHG0Uc1ZKil6Wyh8dkfcFOaegA16+LBwcEm6+jIoz1JCx+1+fuJ66h2RPgjAw5KUwMAAIhQJt6OfJMBjTa/w2wwYr35j4oNjmpp0llL7BPWvES43083j6on9EviOve1NuCC4eFhlZbvANpc07jB4eFme9U7Kq4aJ9zvp5tHRS4hxQBSjRAQADgq5hAQWsU71AC0T4eA6AEAgKNoAADAUen4EhiCyA+AqNADAABH0QAAgKNoAADAUTQAAOAoGgAAcFRXRwE1M4kpqolO3bxWioRbOyGqFRfCrfzTuT9lg6Mivw9FmytHhfttJGfZEiQKw0BdMWXlOzg4GGLpt5pHJV+n14tO/nrUDn76gY0QEAA4ih6AE8K9OL7N1803kJxPnZGXJJnBlgYraae0D4dI0ACkVbgufJJXeO6a7sRnEvtLa/DFAFxDCAgAHJWmHkDnxqI0MxqkpYtG/rKtNj9OdiHQ0ebh3fm83ODdcDV3UC32tFL6mTpEEA/TQzoagGSORQk3bKbeqUJcKyotlTmldVxAp++WVFSm4V6Hh+mEEBAAOCoFPYDIx6K0NBOnZla4YTP2Ps0cVe9akU9QauacdlHDfX6M5QNyS3E5hsnDBfE0AOGCJ+FGsHRCh4bNJOcHtE0ZPU+yVBe+nggjkHAWISAAcFRXewDj4+PhhsfEqJsfqbp5rZozg+qF0ZoJbaVCqguvpfEhQmLF1gMYHBz038cJ7LoGStjqsdEWpqPGx8ebrC/SWK3E8rfozkXbfIjaucMxPRACAgBHdftL4LSsOhBuPI+/ex7is1XkywKH27mmhPxdWtL9736bjM+0fxUV6UOUxj8uIpGCYaCic+sVRzjNqp1BO12YztbNyWuRC134dn6rof8oiR1IStgHghAQADgqE9fHk5ZWg4lkaZ3GU7rsfZr/oNR+6CbEtVr9gBn58kQNjmqnDDVPG6IY7Y9caieC1Ex8JvRvo8FVmg9XTnkIprfh4WEVYwgoECppfBeGC3o2E41psE/kM7CmLH/7NcKU+0f+O+xO9dFOMdr82qPNqc4djbe09BDVPBaOIwQEAI6KLQQ0LTX5cY/fOYB46RAQPYBuo/YHkBA0AADgqDTNA0g+Pt0DSBF6AADgKBoAAHAUDQAAOIoGAAAcRQMAAI7q6iigcEsdJHZVxQZiXzsBAKZEDyBiU75licV4ASQEDQAAOCrmtYDSGN5poPESxN1/QRUA1BTzctBpEeFau5GvLw0A7SAEBACOSkEPwP4M3uBFSM18YE/jEJ3I3+cV+e+n0+/mBRC5FDQAzbBrn869Qb7J8sT77vVwP2mHjgKQTISAAMBR6e4BjI+PN/j4qbNqBo4afIwNHNXqd7+B89TbrckThnuzebiftBNHAUiydDcAqv57sTvxBvnUifA979Py9wM4jhAQADgq9T2AEDr3MTZcFKWBZmJKbY7MaYl9rTZLCCBG9AA6ol4UJURVOOVRsYdlkl9CADXRAACAozOE/7sAAACxSURBVKZJCKj9dRrqSchqRTWvPmVMKfIyN/hthCshgBi52APoQkSi5iWmXCm6O8UId1T3Cw+g01xsAAAAatqEgJrR5Cwt2blzlwg3pavxdUMUI3BsuMKHKyGAJHCoAVChZjO1WnOFm2bVjgjnbXWo8NT+QDIRAgIAR8X8RjAAQPfpN4LRAwAAR9EAAICjaAAAwFE0AADgKBoAAHAUDQAAOIoGAAAcRQMAAI6iAQAAR/0/3nNLn39fX1gAAAAASUVORK5CYII=;" vertex="1" parent="XSjLxf4Ph_vKjmcvZ095-38">
          <mxGeometry y="20" width="512" height="340" as="geometry" />
        </mxCell>
        <mxCell id="XSjLxf4Ph_vKjmcvZ095-130" value="" style="whiteSpace=wrap;html=1;strokeColor=#99FFFF;strokeWidth=4;fillColor=none;movable=1;resizable=1;rotatable=1;deletable=1;editable=1;locked=0;connectable=1;" vertex="1" parent="XSjLxf4Ph_vKjmcvZ095-38">
          <mxGeometry x="41" y="139.00000000000045" width="50" height="50" as="geometry" />
        </mxCell>
        <mxCell id="XSjLxf4Ph_vKjmcvZ095-134" value="" style="whiteSpace=wrap;html=1;strokeColor=#97D077;strokeWidth=4;fillColor=none;movable=1;resizable=1;rotatable=1;deletable=1;editable=1;locked=0;connectable=1;" vertex="1" parent="XSjLxf4Ph_vKjmcvZ095-38">
          <mxGeometry x="94" y="140" width="50" height="50" as="geometry" />
        </mxCell>
        <mxCell id="XSjLxf4Ph_vKjmcvZ095-147" value="" style="whiteSpace=wrap;html=1;strokeColor=#97D077;strokeWidth=4;fillColor=none;movable=1;resizable=1;rotatable=1;deletable=1;editable=1;locked=0;connectable=1;" vertex="1" parent="XSjLxf4Ph_vKjmcvZ095-38">
          <mxGeometry x="365" y="140" width="50" height="50" as="geometry" />
        </mxCell>
        <mxCell id="XSjLxf4Ph_vKjmcvZ095-153" value="" style="whiteSpace=wrap;html=1;strokeColor=#C3ABD0;strokeWidth=4;fillColor=none;movable=1;resizable=1;rotatable=1;deletable=1;editable=1;locked=0;connectable=1;" vertex="1" parent="XSjLxf4Ph_vKjmcvZ095-38">
          <mxGeometry x="311" y="139" width="50" height="50" as="geometry" />
        </mxCell>
        <mxCell id="XSjLxf4Ph_vKjmcvZ095-42" value="LCR" style="swimlane;whiteSpace=wrap;html=1;strokeColor=default;labelBackgroundColor=none;labelBorderColor=none;fillStyle=auto;strokeWidth=1;fontSize=16;fontColor=#F7F7F7;fillColor=#707070;fontStyle=1;movable=1;resizable=1;rotatable=1;deletable=1;editable=1;locked=0;connectable=1;" vertex="1" parent="XSjLxf4Ph_vKjmcvZ095-105">
          <mxGeometry x="1356" y="716" width="510" height="370" as="geometry" />
        </mxCell>
        <mxCell id="XSjLxf4Ph_vKjmcvZ095-41" value="" style="shape=image;verticalLabelPosition=bottom;labelBackgroundColor=default;verticalAlign=top;aspect=fixed;imageAspect=0;image=data:image/png,iVBORw0KGgoAAAANSUhEUgAAAf0AAAFdCAIAAACGsiMxAAAACXBIWXMAABJ0AAASdAHeZh94AAAfKUlEQVR4nO3dfawdZZ3A8eecc8+9LVTeKYtma9Y/DLS8CTGl54ZYSRT/YBNXL2CFLatCbWmpVIpr3IAI8WUVU7fAtgJqdGErUDWbkFXcLKnR3rvEyCIIGmPYLImrQhWEQntfzjn7x8zzO3PnmZk7Z87LzJzf95ObdO488/L0nDm/+8zvPM8zlenpaQMAUGNMlhqNRo71AAAMSKh9X82rHgCAXBD3AUCXiiy12+0c6wEAGJBKxQ/1XsKH9j4A6ELcBwBdKqR3AGC0zczMeAtev03a+wCgC3EfAHRJyvPIrQEAoLx27doV/JX2PgDoQtwHAF3G3FWkdwBghNHeBwBdiPsAoEtEnmcIduzYkct5lzQ1NeUt7N+/P9+axClRDScnJ/OtyQjgk5JZiWo4/E8K7X0A0IW4DwC65JPnEXKnUxA7d+70FuTekBp2S2pIx7A+Kuy7XPzrsPg1HP4nhfY+AOhC3AcAXYj7AKALcR8AdCHuA4AuxH0A0IW4DwC6EPcBQJecx2317qYvPiTLX/rE5TnWBABKodzt/Zu++JA55XxzyvlmxSqzYlXwbwAAIFK54z4AoFtlzfP4TftTzl+01jb5SfgAQJxStvc76R2x7BSz7BRjDAkfAEhWyrgPAMisZHme6PSOi4QPAMQoU3t/UXpn+UqzfGWn7NAT5tATfqrHQ8IHAKKUKe4DAHpXjjxPRHrnyAuLtojL/JDwAYDFStDeD6Z3Hr13+6P3bk+12+HnzeHnjSHhAwCLlCDuAwD6qNB5nlB659F7t797crW3cMnf/F2wyHfoCbNilb8sC56TzyHhAwCmyO39Rb132gumvXDJtbt/ePDZHx589pJrd4fHbXkS+nfOvkzCBwBMkeM+AGAQipjniei9U/Hrecm1u7Md89Fv3nzJ1bcbQw8fANrR3gcAXQoX9yPmXAvyxuW6QsN3HZe8/9rOLyT6AShWxDxPkri/B6FhXMaYiROMMWb2Zf/XFavaz+2PO+odd9zRh7oBQBkUrr0/CO3n9icEfWPMzp07h1YZAMhXIdv7Rw8ZY8yyU/yUzpKzb0aSlj4AIKCQcd9z9FDXEd/7g7FYsKVfOfMaM/vyO1Z1Njtw4IC3QJMfgBIq8jyeypnXvOO03wSDvjFm/fr169evD/465FoBwJAVLu5/6ROXd6ZUO3rIb8K73XVCHXvi+vkEkfkBgGLmebwRVTd98SF/jh2J/sHHqjhPVA8fxU7GWXnLlLci2NK/9NJL485Okx/AaCti3B+0YNAnrQ9Am8LlecSihI/Ha/iHvrx11xhjjHn0O/c++p17B1xHACifQrf3OwkfjyRz3EAfGqVljD8bjzHyl+PSS/0JeSLb+AzdAqBEoeP+MD3yyCN5VwEAhqEEcV8mzoxo+Au3r45t5jPvJgAElSDui4g/ACk2dklK55FHHpFxW97C+vXrvYULL7ywl6oCQGEV93vd4QiN2wKAkVem9r4gdQMAmZUy7ndFeu+4PXYiR2/R/Acw2hTleSK7b+7cuZOhWwBUURT3AQBGQ57njjvukBZ9QtOecVsAlBj9uG9sTE8O+ozbAqAEeR4A0CWf9v7UlD838pC/U03TV8cbtyVpn8J+65vXazja1q1b5y3MzMzkWxNP8d9lalhGutr7Bw4ckAG6cRsMqSoAkBNdcR8AUGm326FVQ7jD3bFjx6BPkY3cEu7fvz95y7yUqIaTk5P51iQDyfOIfBM+fFIyK1ENh/BJ2bVrV/BX2vsAoAtxHwB0ybn/vtzpFIR84y/3htSwW1LDfmVI3NzLMBWkh09h3+XiX4fFr+HwLy3a+wCgC3EfAHRRMU8D0LuCJHyA3tHeBwBdiPsAoAt5HqA7JHxQdrT3AUAX4j4A6EKeB0W3ZcuWoZ1rz5496Tcm4YOSor0PALoQ9wFAF/I8KLquci+5IOGDcqG9DwC6EPcBQBfiPtA369atW7du3Q++//28KwIkIe4DgC7EfQDQhf48QN94Q8w2btyYd0WAJLT3AUAX4j4A6EKeB0VX2Pl5hNSQDA9KgfY+AOhC3AcAXcjzoOgKOz8P6R2UFO19ANCFuA8AupDnAbpDegdlR3sfAHQh7gOALuR5gFRI72Bk0N4HAF2I+wCgC3keFF2+8/OQ3sHoob0PALoQ9wFAF/I8KLpcEiykdzDCaO8DgC7EfQDQhTwP0EF6BxrQ3gcAXYj7AKALeR6gg/QONKC9DwC6EPcBQBfiPgDoQtwHAF2I+wCgSz79eaampryFnTt35lKBJVFDFEHx32VqWEa09wFAF+I+AOhSabfboVUzMzODPmuj0Rj0KbJZu3att/D444/nW5M4Jarhrl278q3JCOCTklmJajiET0roFLT3AUAX4j4A6JLz/DxXffyT3sLC/Jy30Go2/TLJP1XCe1XsqvrEeHhja6G14JcstPy9av4fuWq15i1MLF8eWnPGicd4C3JveMO/3+EtzB+Z9Raas/bI9qQVp4am6q+aWLEstoZz/nGa8/5CrV4LVfWYE9/gH2/MLzp5+nCohnK3WBDSfQJ9VKvd7y1UKkftwrxd8K+tdjviQvT+abWOsWvCF2LgOHJh1+S0dvfjbJEfMaamfu0tyHV43Rr/Wp1v+yc92g43K5vOh1m2GK807SnDn3z3OBW7zUTF/3SfPub/L44f89e07HXIJ8VFex8AdCHuA4AuOed5Zl97zVuQzIaQ5El9fMKu8v9dmPfv6eaO+Pe80iupYndrtVvhkzXDK+aOHgmvOvHNoRWv/+lVb6FadWpoV0ysWB6q4dwRP2119M+vx9awFa6hJHzE7KvhGp5s3hCuMxSo1V7yFiTTItptN5njX2PV6hG7+yu2SK66qrPG7uyki6rVw0vW8OVW3T+XTcJIVkfWLLMfwpo9xdFOUkiSS2n4+y/Y3X8zb18WPzaYt3VzOG1o7wOALsR9ANAl5zxPbcLeG1b9mjRtP5zWgn9LODfnd6SRu0+na0wnedLpSDPu3/NKwkfyRXOz/s1vp6vPWOzfv/pyf6+q7WwjFWse9W8pO9mY+CpKDWVh2fHH+tvahM/EsX7nn6OvHLHnWrBn58loqkkOR/I80v2mUvGTitXqa3bzhM9K1R5HskMr7HGaoXPJAQNdfeQ6PBo6riRzpLONm7iZt2eft/VK6OEjx1lmK9aWjny2C9NrrfAnt+32/4OD9j4A6ELcBwBdipI9mLfJHNOSQSjhW9SWO+TEhJMnsvv87Kxs5GnaXkCyV1sOuOD09Qmcwz/g4XDfIbeG7ho3vSPbzL0qA3BsLV73b9glWyX/nWbLdlMw9diqQoFq1e8hVqlIPxyn61riAUK712p+MkeGfdVqs6GN5RQyyCvquG27qX8cN4dTcz7C7hrXrE1JjZHe6RPa+wCgC3EfAHTJOc8jfWMkoSEpDsnGyI1g50ZOsiB2Mh83wSJT7rgq9hRjNT9n0mzF5nmk04478CqQurFHroQXmvE1rNXia2hHsY0t92soHXugk3TakfxMuzNrjaRu3MSjXKty/YSTQu5AsOBp/X1ay53jhElfnUB/Hjcxa3Ok8bmghGosSJCwBTKrT93+v444k/nAxWsEALoQ9wFAl7z78zjpHUnddPrqdOZP9hdqY372Y2HOv/nt9MyR7kBN6YEQHtIl0/vIQgI3vSOpG1kjFavYsV1jdjyaeT22n5LMz+MmjhaOzoUWAsadNRh9bnrHTbkEMjYyf7IddViVYVZy1cmCHCc8pKtS8a/eQA+fpUlbMiqHE56xZ4U9u0zU01XPHJnVJzyKDIlo7wOALsR9ANAl5zyPPEZKkh5V28tFOuS0Ws3QNq3OjD2V0MbyH2o7Q7Fkfp5Kzd+oZqflmT0ae5tYHfc3bs/bKWRtDWvj/kJzrhnaZt4uSHJJNpbpm5tz4SyTzOcsJx2z0/IcecVOvfL7uJpilLXbMl5PeoiNhRYCGRt/GxnkFcjhyF6SzAlfh4G5gOSkdXtAmc85dn4ed02lM6QrnMw5YhM1gdl4bEbLHmfO9kqSvVZU/f/guE1bHVP1Fw41Gdi4NNr7AKALcR8AdMm7P4/lzhsr6Z1Oxx6blkmYtFkeqiWTG0tXn7adsUeGwNSX2cxPmi4EThUlvRNI5vgV6+SvbMKnOSvjv+Q+XXpo+EeU6Zcr9nFEy46TJygBnvCFGNUhJzYFFBj/JR+1cEa0Vjtsd5dc67HO2cOW2yFUy22i5nW7+6wMH7N1HrMLy23G5rWW7ZnjDLyS9I4MOTvcCj/5fd4sdDbHUmjvA4AuxH0A0CXvPE9nNh6Z3CNcVKvYbjM2Q9JcsDmTlnQYkJlx7N525FS9LkNX/FPIA7xkBFY1/u61akeNuXPdygE7WR17wAXJ6tjhY/LfkSmWq7Zi9WP8hZo9zuxhP+GzYPv8VCr8hVZNUi7uQ8+lKLCN9OeR8VaS/ZBckOw+YReWh44TeN6WHSAZP/uNnOB1Z9rkus38HG+zOlVb9FLTdq6za1pOUkh6+EzYhXG78GrL333OnnS80tWs1EoRTQBAF+I+AOiSd57H3pN1ut/IRDu2J0zCBMQRz9uyaRQZtzW3cCS0V61uJzeWLkO1+NdBKmYPaLvhmIWWO3mOU0Nn7h3TmefHz+E058L/xbFlfg0lTdQZ9gWlwk/XCkyw08XkOVGT8EgPH3fCH5kMSvr8xH5SZKqczrQ8Ts+al1qxs0tVIoZ9+WRqZberj/QLWrAnlUFeSEB7HwB0Ie4DgC55P2/LZlrcaZMTxlK1nVvCliRf4h+QLjP/dB6w7vTwccngrIRpkyNq6D4UvhXfzcDWWWb+WbAP+arKDEKvSraKkVwaBQZehUdpdSmcJnIFRntJJlOSQq9F7WFM1KzL4YeyRyVzhEzmI8eRhYT/p6R33CmAkIDXCAB0Ie4DgC5553ma4byMmyER1Up16W1q4SFUki9yz5WQFOpsIjP/SCeFhLNXl66hJHPc53bJGqlYc+kHgkGFwGzJkk5JGKDkpljComZvNnFrsulqAFXCA9YDx0noq0M3ni7Q3gcAXYj7AKBLznmesXF/HMe+3V/e8LEbTXBGZWMevPsrwY2v2HqDt1AzY9++e1dkkbvXZZuv9xYe3nunLId0HtflGD/Wn73krvd9att3P28CMyobY/ZsuCW48ZZ9t/k1rI/tueLmyCJ3r033f9pbuOeqz8hy+hpCA3kG1vz8R+r1r5tFnW3M3Nzm4Mbj43vt4tjc3KaYovBeExN3eQuzs9tk2RF7HUqHnG89+6eNq08ygdRNzbS/9eyfght7G3jbPPDsH1MWXbn6ZG/hgWf/KMtx1UCCQrT39+3+srvSC99XbL3B+zGBgO4F/Q9s3eH9BItkr8s3b79883ZjzMN77+y9hne971PuSi98b9l3m/djAgHdC/pbHrz9uoduv+6h2xcV2b0++sCtH33gVmPMPVd9pvcaQoP5+Y+4K73wPT6+1/sxgYDuBf3x8Xu8n8VF/l4TE3d5UX52dlvvNQzF9+DKjatPunL1yV68ls28yH7l6pM3rj7Ji/hukewV+jOAzPKepyEQ9H/3858ZY05bc54UXbH1hj8882Rw4z8886S3wQe27vj9M/8dWeTu9eKvnj71jLPd5ZQk6P9i96PGmDM/erEUbdl32y+/+pj/y4ZbjDG//Opj3gZbHrz9l3v+0y+6/OZFRcG9rjTGmF/f96O3XvMOb0VwGRAS9Ccnv2WMmZ7+gBSNj+9tNL5tf9tsjGk0vu1tMD5+T6Pxr7Zo0+Ki4F7bjDHr1u2fmZnyfg8upyQh+/mV5xhj3vTC01K0cfVJ3krx/MpzVr3wlDHmytUn/3bl2SmLfrvybDlscBldybu9XzEbPnajl+Hxtdr+jzESvg8cOCDl3koJ+m5R5F4v/uppY8xYvW6MqdXGvJ9qreb9mIrxfyJqWNn2vc9v+97nZUXbMsZI+A6ey1spQT+iKGqvX9/3I2PM2LJxY0ytPub/WJWK8X6gVaVe/7qX4fF/r7S8H2OMhO/gFeWtlKAfVRSx17p1+42dnLndHrc/Y/an4v249ZuotK5dc8K1a06IrL0E/eC5vJUS2VMWeSsnTMsYUzPt0E/k2RGSd9xPwXvLI1PzXlEwuR8q2nD9xwdZtUXnikzNe0XB5H6oaOv+zw6yalDEu6IiU/NeUTC5Hyqq1+8bZNUWnSsyNe8VXb36xLiizWuOH2TVdCl63Jeg7zXY3SI3q2MCQf93Tz8xnBpuuv/TXoPdLVqU1VlctHX/Z5+56z8GXUNoIEHfa7C7RYuzOouK6vX7JifvH04N3dSNCQT9/115bmTR5jXH/+rUtw26hnrknN9fmE2aylhu7uKCvglkddwiN+gf84bjTOD57J2plZuxQ0zmXjuapoZxQd8EsjpukRv033DaCSbwfPamnagnaXofKFCtvp5QKldUXNA3gayOW+QG/WbzVBM1UU/CkC55inpyDeOCvjEmLugbY9ygv6o++5wxy+yTxSJmgUa8/L/XTbZ+/Xpv4bQzw9dEp2j1eXFFp599wcCqFj7XGZveGV90cVzRWde/a2BVgyJyRc3MXB5fdEVc0cGDVw2sauFzuV/GSpH3dW5k0VtfDLfwkFnR8zye084898E9/xRdtPq8B//5K5FFp599wb47I3qIDsIZm96594PRXe/P2HTx3g/eEll01vXvuuv9/zDIekGXmZnLZ2eviym6YnZ2S2TRwYNXzc9fM8h6dbzphafjumOueuGpyG6gxpi3vvjkPc+8PMh66ZJze79aq0nXe7mn876nvWLrDQ/e/ZXg9/hiw/Yb9+3+cmTRhz558ze+cHtkkTHma5+7NbTG6/5fqcX+/avVatL1Xg7rfU+7Zd9tezbcEnmubd/93F3v+1Rk0U2P3fmli6+Pq+E/XrTVHNgaXLPlwdtNYG4i6NRuj0nXe7l4vO9px8f3zs1tjryi6vWvzc9/JLKoVtvfbE7FXYfN5nuNeW9wjdf9v92u2xXh/GdwcJYc1vue9sOrT/z6sy9FnmvrWcfd/YtXIos2rzl+7zN/jqvhrT8PJ742rTnBGDPL87ZSyD/PE/nFbFxPfGPM6edeYNpmw/Ybf/fUz0JFf3nBOmPMhz558//8149DRW887+0fvOEmY8z/PflTtw5/sSacKQqK/GI2oie+ddbHLjHt9rbvfu4Xu38YKnrb3/+1Meamx+786W3fCRWdveM91//bF4wxT+/6gVuHMzeHM0XQxv1ittEwUT3xfQcPbjSmXa9/bXLyX0JFP/nJtcaYWm3/RReFO/8cPHh1vf4NY8zk5DdD5zLGTE9vSKih20nfrDz3zS/83Bjz4dUnPuek79ccesIYs/Ws45455fxQkZfVifw6d9ULT3l/TsLfB5x6njHGOx2SFb0VedriiHz6uZ18/ennLMrde0Hf81cXXhQseuN5bx9M7YxZPIzLeEFflre/O1jkBX3P2295f7Do7B3vGUztoEVwGJfxg74s/22wyAv6nh//eNEY3YMHrx5M7Ywx5i2LI7IX9N1lsziVf8aLi4Znul8AIIOKO2PwzMzMoM+6Y8cOb2FqqrsBgUOzf7/fL4IaZjY5OZl3FUqPT0rvil/DIXxSdu1aNKFZ0dv7AID+Iu4DgC755Hka3pdExbN27Vpv4fHHH8+3JnFKVMPQrWVxrFsX++XkzMy+YdZkSXxSMitRDYfwSSHPAwCqEfcBQJec++/LnU5ByDf+cm9IDbs1zF4TXWVsEjZ2t+lq9yFkhwr7Lhf/Oix+DYeP9j4A6ELcBwBd8p+nARiENFmdwe0OFBntfQDQhbgPALqQ54E6Cd1vSO9AA9r7AKALcR8AdCHPgxKTjE2/BlUVbbgWMAi09wFAF+I+AOhCngejqV9JGJI5GD209wFAF+I+AOhCngclxjArIAPa+wCgC3EfAHQhz4Py6XEs1eCyQ3T+QSnQ3gcAXYj7AKALcR8AdCHuA4AuxH0A0IW4DwC6EPcBQBfiPgDowrgtlE/CY7ZkTcIQqmyjq3jwFkYG7X0A0IW4DwC6kOdBiaV5rvoQzg6UC+19ANCFuA8AupDnwWhK07Gnq+MAI4P2PgDoQtwHAF3I86DE0iRh3G0SMj9dZXX6lUoChoz2PgDoQtwHAF3I80AduuhAOdr7AKALcR8AdCHPg9Hk9rHpKr3T4+5AkdHeBwBdiPsAoAt5HpRYVwOm0kza3PendAEFRHsfAHQh7gOALvnkedauXestTE1N5VKBJVHDEVaijE3x32VqWEa09wFAF+I+AOhSabfboVUzMzO5VAUAMAi7du0K/kp7HwB0Ie4DgC6M2wKA0RRK7wja+wCgC3EfAHSpyNL09LS3EHdrAAAYAbT3AUAX4j4A6FKR9E6j0fAWLrvssvzqAwAYlIcfftjQ3gcAbYj7AKBLJ88jJOEDABglXsCnvQ8AuhD3AUCXiDwPAGCE0d4HAF2I+wCgC3EfAHQh7gOALsR9ANCFuA8AuhD3AUAX4j4A6DLU56p3NfNPvwaUyUkLe8B+Hdl9eQd3nIS3MuGk2fbq6jgJR07z8g7uzQWKY6hxHwPSr6n00hxnyW0ajUaGyf4i9wIwCOR5AECXobb3E5qBytt6vTTYg/t6L2O2o6U5jrtNZKm34CZYutorDeWXDZANeZ5+yvZnLHPQD+2YOQhmOE62cxGmgSIgzwMAupSpvd9Vb5CEHEW/eqf0S2Q+ZEnJyZN8jzPovRJ255YCWFI54n6OvUEK2M8kx/ROmuMMdC8AvSPPAwC6lKC9n603SFejdSKLMvQzGcKdQZHTO+l7E/WrD1LRbsWAUihB3BeRH/Jeokaa0xU2HdGvkDfkNFG/kksAMiPPAwC6lKm9PziFbdQnGObcDMl7pW+z9yu5BKAX2uN+GSN+oTCACygd8jwAoIvq9n6atEO2sVSDa8+mOXKaMWvZjtNtTfq1F4A+KlN7PzIMNRqNlKG57ykdckQh6d+L3vfqRY8XElB2ZYr7AIDeVfK9706ZGEnTEEv/mKfglumbeAl7dTVGLKFiS543JbcaPU4U2u0rluG5K13VLfOD2wb0ggPlUo78/pJDqJI/qwm7ZxucFbeXhpCR7b3o8R3sl4JUA8gXeR4A0CXnPA+Gg+eaARC09wFAF+I+AOhCngcAdKG9DwC6EPcBQBfiPgDoQtwHAF2I+wCgy1DnaUgzeqhfI4yGea4SyTZFQb8mNsg2r87g3sqEvfp+HYpBTJq05DY65xRBnHLMz4PeLRlzG41GhvnUIvcqvkFPuVz8KZ0VNnogyPMAgC6091VIfrKYlHoLkcmB9HulUZw2Zt9rUsyMSsJk1CW9Y0MviPtlle0+vciTJA/NcJIwhX3REpL+UII8DwDoUqb2/uB6laTp19HVSfv+UKoeG49DyGb0uPtwWscJT16L3MB0eV9V0hZ0hkwdSq0ccb+YvUqydYCJO1SGc/VLV3UuaWgLGfTVUooYmu1hcxgB5HkAQJcStPf73qukq4EzkUXZOsC426TZK+5cfR9PlOaYblWztRZzaQ53lXyjeztGWD5xP1uGJFtflEEYUAeY4vwHXUtmxous1JWP08c0I7QhzwMAugy1vT89PZ2to0uOhtmAGua5IgfyxOXK0uSvSqHUlfeU8UOEosmtvd9oNIKXbwHvT0M17Hbf/lZmoKanp1OGiTJGk1zei+GctMcPUS9XOEqNPA8A6DLs73XLMiVAtp45wXvwDC2pvs/Hm23jSAV5X7oy/K9zUyZhej+L6euHqIxvLnpRgn6cYnATBfdxVFQv3W+GMPpsmGPN+i5z5Xt5VTO/KYXtCUpuB+R5AECXSl6Nka5maOnLdDfJI7DcbdI3i3rPz2Q4V7fNyb5PGZSwVy91iDxshmr03geplzRRmiRM5lcj4Szpc5JL7oIRllueJ5QPSb74siU006RcErbp+4CpJevfeyBYcvu+v4bDiRq9VKPHrzR6HJA80KRKVx+iyH2hE3keANAltzzPSErZuOM1B5Aj2vvDRtAHkC/iPgDoQp4HAHShvQ8AuhD3AUAX4j4A6ELcBwBdiPsAoMtQ52nINg9BYec1TNCviQ26msUIANIo0zzMpdCXeaHTHAcAsiHPAwC65Dxuq4w5nATJc/+mn9fXPc6IvVAAckSeZwl9nOQ2zby+w380IABtyPMAgC4laO+7Le6EXi5pmueDe4pIj7v3/oiohAPG6eoZW31/VQf9dFwArhLE/TTc8DG4h7BnlnD2vqd3BvSo9D6+qnRYAvJCngcAdCl3e396enrJRnRkdiih+RnaaxBN774/ATzhjNkeep7+9RnEXgAGqtxx38R3cxzEQ9i7EneoQTwBvL/6+ID1vr+qAHpHngcAdCl9ez+DITQ/s82r06+KBdNfGW47+v76uOfqsYYAeqEx7g9UQQZeLZlgGWjPpTSKX0NgVJHnAQBdRqS93/skCnG6mqchTTcV94CDSwFFHjmuj03yXr1IeA2z1RBALzS294eQ3y91qOrjmK9Go0FnHqBoNMZ9ANBsRPI8aaTpQxLcuJdz5dvITXn20P8x2+uTcq+EoWrpawigLxTFfZNpGNGohp4+DrPKNqQr5WEB9B15HgDQJefnbQEAhoz2PgDoQtwHAF2I+wCgC3EfAHQh7gOALsR9ANCFuA8AuhD3AUAX4j4A6ELcBwBdiPsAoMv/A34GSJQebb7qAAAAAElFTkSuQmCC;" vertex="1" parent="XSjLxf4Ph_vKjmcvZ095-42">
          <mxGeometry y="25.5" width="509" height="349" as="geometry" />
        </mxCell>
        <mxCell id="XSjLxf4Ph_vKjmcvZ095-126" value="" style="whiteSpace=wrap;html=1;strokeColor=#C3ABD0;strokeWidth=4;fillColor=none;movable=1;resizable=1;rotatable=1;deletable=1;editable=1;locked=0;connectable=1;" vertex="1" parent="XSjLxf4Ph_vKjmcvZ095-42">
          <mxGeometry x="310" y="151" width="50" height="50" as="geometry" />
        </mxCell>
        <mxCell id="XSjLxf4Ph_vKjmcvZ095-127" value="" style="whiteSpace=wrap;html=1;strokeColor=#97D077;strokeWidth=4;fillColor=none;movable=1;resizable=1;rotatable=1;deletable=1;editable=1;locked=0;connectable=1;" vertex="1" parent="XSjLxf4Ph_vKjmcvZ095-42">
          <mxGeometry x="364" y="151" width="50" height="50" as="geometry" />
        </mxCell>
        <mxCell id="XSjLxf4Ph_vKjmcvZ095-143" value="" style="whiteSpace=wrap;html=1;strokeColor=#97D077;strokeWidth=4;fillColor=none;movable=1;resizable=1;rotatable=1;deletable=1;editable=1;locked=0;connectable=1;" vertex="1" parent="XSjLxf4Ph_vKjmcvZ095-42">
          <mxGeometry x="40" y="151" width="50" height="50" as="geometry" />
        </mxCell>
        <mxCell id="XSjLxf4Ph_vKjmcvZ095-150" value="" style="whiteSpace=wrap;html=1;strokeColor=#97D077;strokeWidth=4;fillColor=none;movable=1;resizable=1;rotatable=1;deletable=1;editable=1;locked=0;connectable=1;" vertex="1" parent="XSjLxf4Ph_vKjmcvZ095-42">
          <mxGeometry x="95" y="151" width="50" height="50" as="geometry" />
        </mxCell>
        <mxCell id="XSjLxf4Ph_vKjmcvZ095-43" value="LCR" style="swimlane;whiteSpace=wrap;html=1;strokeColor=default;labelBackgroundColor=none;labelBorderColor=none;fillStyle=auto;strokeWidth=1;fontSize=16;fontColor=#F7F7F7;fillColor=#707070;fontStyle=1;movable=1;resizable=1;rotatable=1;deletable=1;editable=1;locked=0;connectable=1;" vertex="1" parent="XSjLxf4Ph_vKjmcvZ095-105">
          <mxGeometry x="1026" y="291" width="490" height="370" as="geometry" />
        </mxCell>
        <mxCell id="XSjLxf4Ph_vKjmcvZ095-40" value="" style="shape=image;verticalLabelPosition=bottom;labelBackgroundColor=default;verticalAlign=top;aspect=fixed;imageAspect=0;image=data:image/png,iVBORw0KGgoAAAANSUhEUgAAAeoAAAFeCAIAAADFVMsOAAAACXBIWXMAABJ0AAASdAHeZh94AAAgAElEQVR4nO3dfbAcV3nn8V93z8x9k/yCQSmKVFK1lQQQNiADa3MVJ9olGDupULtErMHEQLFYtmQXi8qGdcySpciGdXiJwCVbfmNrw4uNiYqwySY4NmxUayJh3hyCsQNUbVXYAjaOkXX1cmfuzHT3/nG6z8ztnhnNzJ2XPne+n1LhZk736aN7px+dfvqc014cxwIAuMafdgMAAMMgfAOAkwjfAOAkwjcAOKmU+f/Hjh2bSjsAAAOh9w0ATiJ8A4CTkuQJORMAcAu9bwBwEuEbAJyUHXkyPvv375/YuQaye/dus3H48OHptqQbh1q4c+fO6bZkE+BKGZpDLRzJlULvGwCcRPgGACdNLnli2duHgrj55pvNhr3hooWDsi1kCNMIFfa3XPzvYfFbOJIrhd43ADiJ8A0ATiJ8A4CTCN8A4CTCNwA4ifANAE4ifAOAkwjfAOAkwjcAOInwDQBOInwDgJMI3wDgJMI3ADiJ8A0ATiJ8A4CTCN8A4CTCNwA4ifANAE4ifAOAkwjfAOAkwjcAOInwDQBOInwDgJMI3wDgJMI3ADiJ8A0ATiJ8A4CTCN8A4CTCNwA4ifANAE4ifAOAkwjfAOAkwjcAOInwDQBOInwDgJMI3wDgJMI3ADiJ8A0ATiJ8A4CTCN8A4CTCNwA4ifANAE4ifAOAkwjfAOAkwjcAOInwDQBOInwDgJNKEzvT7t27zcbNN988sZMOhBbOpv3795uNAwcOTLclRvF/y7SwIOh9A4CTCN8A4CQvjmNJx44dG/eZ7C1q0dj7rMOHD0+3Jd041MKdO3dOtyVDyH8zp5tF4UoZmkMtHMmVQu8bAJxE+AYAJ01u5Illbx8Kwj6btjdctHBQtoWjysK9+tWvHkk9vV166aXt/9f+VAsyFqWwv+Xifw+L38KRXCn0vgHASYRvAHDSFJInQEF0u7MuWhYF6IjeNwA4ifANAE4ieYLZZYYB/Off/33zf7eec05mB7IoKDJ63wDgJMI3ADiJ5AmKaO/evRM4y1vf+lZJf/3ww+b/9pjiQRYFBUTvGwCcRPgGACeRPEERHTp0aAJnyax50g+yKCgOet8A4CTCNwA4ieQJZtdGVhO1xz70pS+ZjSuuvHIEbQL6Ru8bAJxE+AYAJ5E8wew665onZz1WE3nNN9ARvW8AcBLhGwCcRPIERVS0NU8sciYoDnrfAOAkwjcAOInkCYqoaGuekDNBAdH7BgAnEb4BwEkkTzC7zjrUhJwJiozeNwA4ifANAE4ieYLZ1W3NE3ImcAK9bwBwEuEbAJxE8gRFNJU1T772ta+ZDXImcAK9bwBwEuEbAJxE8gRFZNIak/G6yy83G+RM4BZ63wDgJMI3ADiJ5Alm3RVXXjntJgDDoPcNAE4ifAOAkwjfAOAkwjcAOInwDQBOInwDgJMI3wDgJMI3ADhpctN27Gth7atMioYWogiK/1umhQVB7xsAnET4BgAneXEcayJLZS4vL4/7FMO55JJLzMZjjz023ZZ041ALDxw4MN2WbAJcKUNzqIUjuVLofQOAkwjfAOCkKSwY+/FP3mM2ms2G2YiiuNvOnpdslEpls1GZqyRHhZHZMPkfSY1GI/0kshWY//h+8g9VpZIcHpSTCk//+P+ZDXvDdcMXbjAbYT1MqrH1dWhi8t+gEiRNnSt1a2HYSCqMwzj9CybHe76XOdyvJG1+wXdfkGmhvQUrCPugHyN0yW8/1qzWJIX1mqL1X0HPLy0uSfL9JP8ZrtWjsCnJC0pBuSRp6fnPK82XJZ3+yc8kNau1sF6TtK4qz5dUWlzyfU9SHMfhWl1SFDa9oCQpKJeWnv88SaX58hW/9GfmIPs9vHb7uWlFcfqf5GscxslGM/3ES/epeMnGBX5ywZ6Kk2tn3osyh6/GyVVge5r19JP04mxV+ML0ezgjVwrrfQMFtXb8uEy3I5a8QFJpYd7zfUnN6mrzzClJiiMT2WyXJW42ojVJOvHDU+YTz/MlyfeT+OkFpYV5SZ7vN6urkppnTik53G+vR1K01qpHvzTWvy4GRvIEAJw0hd53dXXVbASl5Ow2oWHTKaVStmFp+kFnTp02GzY1kRflkx3p8bVaNVNSzh1eP1NPWhgk93TBfLJh0ylBOeh29tpKLT1n16RQFOVbmJ69Wu92FGaKX5nzgkBSHIZRsyGpWa16vvkk/bp4vvxAUnl+axxFksqLC/VTp2S67G21eUEQh6GkqNloVquSPD9YV48kPyjPb5UUR1F5cUFS/dSppMveqYVn0qRHkH59F7zkArFpT5sPaab5kPQuQD8NkwvfplxOdD7PWTS7XmebHMkToKA8PwjXTLa6aW+U257rmE8iRaGkZvWMCZlhvep5gaQ4SmJzUJmXFK7VFDXbDsxUFUlSFDarZyTJ88J6VZLnBXEUqtW7QIGQPAEAJ02h912uJOmKIEjO3mgk6QKbbKivJZ/4QfqUuZn0FOwIDVtUSseQnP+c55iN2tqa2VhYmDcbp1ZOmo1mo5lUmPREFNeamRbaxIjdCNfSp9xpC5vpUV6QtCc/mKRVYTooZcu2LclfMM2QVJaS+8fq8SSrEzXSh+/NUJhhYb2WPFH0fC8oS4rjMM0LRqYoTh9den4kMyTDk18uS/LnFsPaWlKPpDgyGRIvKMdxaOpIOt1xlPbEfc83n/gmjeGXy/7coiRTVca5fnIV2JxJLR0W0khTJWu5T2yf3+ZMbC/SZlqeX0oukGqU7LOtlJxrJUyuppUoyNQ8a0ieAEUVpynpKDLjQOTJxPHSwhaTv1YUJnFcvpcERj+srUpqVqNkzIn93yiSGVLiSZIXlEsLWyQ1q1WTgVEcxeYfAyX/KoS11WY1kh2+giLhVwIATppC73t+fsFs1OvJ/ZHNNtjBJFGU3IuFYfogO73Pys/xsSmXZ/75abPh+8ld1Vo1GeXSbCUikr0DP/m7Z1MnUmUxHQmzlhamN2dxevbW0JH0v62/RX5USTqW5ORPkhyOV0p2bpxJ5y6l2SE7XiUodR3cglnglZKxIvJ9r1SWFDcbcdiQ1FhNetbB3Lz5dkaNuhRIKi0tmnRiaXF+9Zln0yLFYWhGkXulsunLx2GjsZr0rIM5k2b0oiSTGZSWFiWVyuXS4rwkU1XGtiD5Zj8TJgnMRpoqqbUm16TZxdz8HcteMPaoHzXmzMa8Tcs00grtCJb0qix7M/pgleQJUFB+EMS+LymOIpP38HzPLy9KCubmwlpVZjxJvK670Di50gzKkiphaHoUvhl96PtmZKGiyDxA8suLwdycpLBWTYa4tFXVOLkiqRmUK2GotoGAKA6SJwDgpCn0vk+dTBMI9rlzmiVorfuRDkqxqZI4zat4rXsxm8dIEyxpPqSVcmn1GeztVZq1SKcI5XsV1ZVq5nC7ZIr9xGY2bK7D5lXsPrbIplMCLz2qkR5VjjM728NbK65gNnm+6Q77pbIflCSVlhbiZlNSo1o1o7o93zM5k2Buvry0RZJf9mvPrkhq1tbMHB+Z3EIc+aWyJD8olZYWJMXNZqNalRSFcXrpBSaLUl7a4pd9SbVnV5q1NUme3yGV98PGotmw3cD8VLqgdenF6c7pddE9r1JOa7IDV+z1bj+xFYdDTfbZBEieAAUVNRum1xLHsZlxUz/1bNrfSOZUel6SFm9Wq6F5mBQrmKtICpv1wPdMPZLiMEq6CFGzfsoksr00BHomk+6VymZAS1ivm5JgrhI265ICf0ZDZJGRPAEAJ02h9+3n7sKidFhInHskbXe2M2jy64jYrEXYbGaOqqdzDWzNQW41lU4tzP6rZrMf+WVM7M52GlF+fnFrwdg0q2OPsoNbWgNOAgacQJLidAFkz0vGbsexTH7C84JkNHecDglvmwQfrpnnnKXmatXs06pHkufbrJ6ZXm+zNB2rMjnJpKr1gg5z6b3uRYkol+vIj0WpKXsV2Lk5+Z17nGtzI3kCFFRrTZJYrSxHuoRsnC5gkobxyAYxG3vTmtrrUSvxki4hG6drqni+ktEp66riGUxBkTwBACdNI3liFwmxQzXSURx++njEzqmxSY/KXDKM3+YxyulSJ830HnNtLbtS6/xSssaIzZl4adaieuaM2ch3LewAGNvCVjol/W9+5El5PmmPnXwUzGWXmW1Uk6ba3o2dItRagTY9Rf0UK8fONL+SfOfjsG3JHbvmT7KsYJx9EU/K8yJ5JUle+qaqdfVoXVXJV71TVZ5Zh8TrK1bYPIbf2sgq5V6pY+fd2CSInb9j2eVQSunO9nBGngAoFr9UiRrJbJo0HxIlscvzYzNWxPe8cvLqHDu4NlniNQpNttsvVSRFjWSCT5yuVOWla6rEnm+6LF45eZtPe1WmNubtFBDJEwBw0jQWjE2THq2VSdKkR9uaJ23P3M0+tezgjeqZZD2T2A4LyT2AXg2TfWw+xI7rsJN98uz6rnYx2GY1HR+Srgob2sPTFtZr6bK36ZQc+9ae1tSe3MCV+HTuncXpciitN6FgJjVX05dV+r4dNJJ8x1tfDd9LJ9ab4d6L284//dNnJIW1ZB3B9nrUNo5F8bp6zA7magrmKovbzpd0+qfPmNn56nS9zKUJjbbFYNNpcbmuoc2rNOP8qJJkIz9/xyZG7DuLvdxFZJsxa0ieAAXlBSU7Sce8Nc3zA79SlhSHoZmH6QUKkjXgvPrKSUmnf/JPZlFZv1SJwoZaa70mk3S8IDBTKP1K2WTD/aBkBhAG8wvmjPWVk6d/8k+SvKCc5F7ChlAwJE8AwElT6H1HrTVXk4xEqZR9XXB+6kq9nn3Zh82H2NUYbKbFVmg/Ce2jmPQZkH3XT/6e0A44sRs2ndI6e5B9ktPMvbWnlQ+x7Uj/m6+wNTMozZn4Jf5xnWlz553XrCavyzHd5DgKk4eZvh8sbZEUy2tWa5Ki+pqZHO/5SVd668//XLBQlnTmp8clNatr5rU7cZg8jYwaNbOEbLC0xWQtmtVaVF+TFDUbZraOF2jrz/+cpGChLH0n08JKawyJfWdx8onfWs9E6UbXFU5shqTDMJXcMippcrG1lmw4q2/bIUAAgJPIfQMFtXb8uJI7y9iM0S4vLpr+cvPMav3USVNitL02vh6uVSWdOLVi/n+S+/aDZG/fKy8uSpLvN8+sSqqfOtmxHknhWtXWo18ew18SGzCV5IlNV2RfT9O2NkiaiLBPmbsPO22b45NoxNnHLPbotqfWXUee2AEwrRfoNLKDW1rvEc6uRNuphTYXZJe4XMudPbe0bdRh9U3MkGB+3jyxjMPQrCbYOHPGpApbE3A8E5dVWdhqrqzKlq1rKyckxXHUvr6QFyTv7gnr9caZM5I8P1hXjyQ/qCxslRRFYWXLVklrKydMQM8vVSSpno4GmfeT7+rp9PXB/U2lye5jv/H2ZDbTYqf22FEudgTLjKZOSJ4AgKNIngBF5fnp6+Qj2zFNVqpqf+97FEpqnDllPqzW1tJFrBT5kSS/PKfkdfKmkraqMu+Pj8LGmVOm/mryloZkAazI516wcKYQvhv1bGbDZiS8/G2Qfd9NeqPg5dZltdN2bLbBi7Jv5Gm92Se9B2ykq8vmfwRhI5vZyL8Kp62FSmtOW2gXtm/lE7Ov3cm/kSf/Zh+bscFsar3H0vOTJHjcNjXNzIC3i8H69osce0FFUnmpEq7Vk3rM/jYJbr51bVV1rEeSF1TKSxVJpqqM1TibFRwVm3uxk33W4uzAlRnOmiRIngCAk0ieAEVl+8tRM3nQnr4arTQ/b4Z7K0pfgabWet/R2qqktVotnWqfHGveuKYwyb14pXJpfl5Ss1ozeZU4jpPUSltVa7WaWLGqkKYQvm0eo5XraA3jzyY9bM6k9WLi/KCUVtXZwzucPbcmrZQfppIdEpOfgGOTHjbX0cqQNDOr47dXrczOHVpo34bMa3dmm1eeS15/45fMW4ajZsN80liNzNckqMyZL1WULptcWloslcuSSovzq888KylqNmXepOOXJPmlcvL2y2ajsWre3aPALE7rratHUqlcLi3OSzJVTd7MLgbbD5InAOAkkidAQXmSzB1YHJmbTs8P/PKCzAvg16pKHm/K7GP6qY2TK80gkFQJz0mWGDTVBUGy1HfYTJasKi8k76Rfq6aPN9M3rXlqnFyR1AyCSniO2t5zguKYRvIk/R783r533XbwE1qfM7nlxv/QvvNH7rrDbJRKpf3vvK696OOfvMdshGHzpj37Oh71nutv+KODt6tTOqX1rp98C9P0xb3X3LvnM3u0Pmdyz+/e077z3gf2mg2/7N+x+472ohu/cGPSwkZ46KpDHY869OZD1332OnVcS7Z7ggWzwAu8bz3ymvZPLn391+NmU1JYq37zy7vai155+aOVLYuS/HLpqw++bF3Ra49IUujLD771lfVH/cYRSVGz8fj/vvziXV+R5FcWJFW2LPrlkqS1Eyeba3V1yX3bYSGfevL4W7c/p70olvfpJ3/W/snbtp9vNs73mx9/4lR70Q0XnmM2GrF/z/dOtBfZaj/15PG3bL+g49ln1tT+RX3vvhvzH5rYfdvBT3z4zoMfvvOgpPdcf4MpMrH7wH133/fg/fc9eL+kd//7PabIxO6P3XOn+dN+1EbcdfVd+Q9N7N7zmT3X33/99fdfL+nQm5O4bGL3DYdvuOmRm2565CZJB99w0BSZ2L33wb3mT/tRQDfffGSXpFf86795xWuOvOp1j0r62p//y6Toy7skXbzrkYt3fcWE3W8+fJkpMrH7Va979JWXP2qOMvVIMrH7Va979NLXf/3S13/d1rNBn3ryeP5DE7uv2X7BW7c/x4TgP3kyyZ6b2P3uC7fe+tKlW1+6JOmOJ06aIhO797zkPPOnW+UwppM8sbH7ocN/JunK3W+wRbcd/IT50O72l5/709960xslHbjv7v/xmQdM0TuvulrSFz99/7+55mpJH7vnzr+4//OmyERze5SkLx3+whW7/+1ALbSx+wf3/UDSC699oS3a85k95kNJulqSnrr7qRdf92JJNxy+4XsHv5cUvVaSnrj9iQvfdaGkvQ/uferQU0nRVeuOkvT9e7//K+/8lYFaiFmw49cfOdf7Q0kKtWuXjhw5srB664nGeyS9fOdfnVf+cLrjayRVjt900nu/pFdd8bdLa+9Pi45I2tL4wEr8Pkk7Lnvo3OA2rbUVNT9wovFeSXFz7dzSh1dq75NUa9RN3y6Yq5iHpSbNkmfD64+2vVTSLzz997bomu0X/N9tF7Xv/I/bXvaLT39H0rsv3Pp3z31Fe9H3nnvxS575tqQ9LznvB897eXvRj7a91Fb7420XveDp75715zYjptD79gPvo3ff8dG7W3mGSJH5ozSgSzpy5Ijd4S8/96eSbOxuL/rip++XZGN3/qjyXEVSuVIxf/ppoed7ez+3d+/n9rZamFIa0DPneurupyTZ2N1e9MTtT0iysTt/lFk8tlQpmT/9tBCzYMdlDyl9ScJK85aV5i1m+7zyRyTZ2N3+jTon/gNJS7X35YvMPwPnBrfli9KqzCDFUFEYNxpx2IjDRlhL3oRVP3U638JQ3lu2X9Ce0wjlmT+SbOxuP9c/bnuZJBu724u+99yLJdnY3V5k/m0w2ZJAsfnT8aQzpaCPI8xv7r8e/Hi3IpPR7lj0x/d2SHqMnDnXtZ++tluRyWh3LNp3eF++COhopfnelfCWx796xeNfvSJfar5RO371oa5Flz3crejlO/9qlA3twpwrk7ZuL8okzduLbLocHRUxfNvY/deHv9ix6I8O3v6lw1/oWPTH997155/93GRaeO2nr/3hJ3/Ysei6z173/Xu/37Fo3+F9Tx58ctwtxCYQR2Ecx49/9TcffzQJ3JmAmwboh84t3ZY51gboc4MPdStqy71I6fz7OI6SP2EUh1HUaIS11bC2GkfZt5H0w8buH6/Poqgtdpuedb7obdvPN111dDONNU8a2Wkylbachr1j6ha7JXWL3ZLysTutPPsCHbtSSl6zkf2mtuc07Lm6xW5J3WK3pHzsLs2V1Ol1xow8mXHB3OK3/te/Mts7fu3hc/0PnVeWJJPFtt8omw+xbFEmQPcuMm/ITPl2ZatkuXCvr67eXNsqx/Zc3WK30qxIxyJi91kVMdO6a9cus9H+SDNTZB9L9lM0cvZc7Y80M0X2sWQ/RUCeid2veM2RreEHzvUl6ciRIzt+/RG7g/1GrYS3ZI5tK7q1a1H8vhG3OMeeK/+80Ra1P+3MFJnnnOimiOHbuHL3G/7jje/qWPRbb3pjt6GBPYpG7oXXvvDut9zdsejF172429DAHkVAxsW7vnKO/kCSGRwiSWF2OczTpQ8+fuTXOh6+Er/v8Udf27HoROOWv/vbdUVe4CtWaWGL2t+pEjWTtQg38FzwBU9/97Prx4Bbv/D033cbGviLT3/HjjVER1MI3758G5ftjZKZaPORu+54z/U3tD9xtj52z6Gb9uztWHTfg/e/86qrOxZJuvFt77jxbe9o/8QMeom63wz6vm/jsq3WTLTZ+8DeQ28+1PFc+z6/785/d2fHopu/fPNHf+Oj3Vp4++tv1+vXfZIMeiF3MvO+feQ1ZlCgZdLcO35Vj3/1io7fqF1v/4cj//1FHYt2XPbQ4492PkrSt/8me65db/+H0z/+ZzO9U2GH3Heg2AZfW615FPmO7ef/tyef7Xiut20//0+6FN1y0dJt3z3TrYX5QG/ONbPzd6bT++747NEkPT5y1x1mwF+73776Kkkfu+fQX9z/YKboTde9U9J9D97/mUP3ZIp+5+3XmEj9Px/IVijpN6/a3aOFHZ89mqTH3gf2mgF/7bbv2y5p3+f3PXlnNrW94/d2SLr5yzd/8798M1N00f6LTKR+6q5shZJedN2LerQQm555UJlPUhs7Lns4/1hydeFDi9IrX/volsb7M0UnGu/1/HTc93or4a1m7o/p6bfbIq0om35p1+HZYzpM+x3bz/8/ufy1Ker4WHL5+Dci6ZaLlr52wasyRRc+8+13bD9fUrbC3GDzmVLEkSeZ5LWJ3fltpbHb+N29e9qLfuft14yndVIueW1id35baew2XvmfXtledNH+7PMcoJ0XlNY/TmwJFhbLS0ur83/Y/uHp8gejZvP0T572Az9TtBLd6gVleb48P5PyPl3+YHlpqbxlsbxlsXMzSoFXCtSlJb39i/XJ6/Y4m8lrLx//ht2+9GffaC+68JlvD3HqWeCZ4Q3Hjh0b95n2799vNnbv7tXtnaLDhw+bDVo4tJ07d067Cc7jStm44rdwJFdKEXvfAICzInwDgJMmlzxZXl4e9ymGc8kll5iNxx57bLot6cahFh44cGC6Lenm1a9+c7eiY8cemGRLzoorZWgOtXAkVwq9bwBwEuEbAJw0hXHf9vahIOyzaXvDRQsHNcnn+wOlQXrsnN9noMMnkHIp7G+5+N/D4rdwJOh9A4CTCN8A4KTiLlkFDKqfVMn4DgcmjN43ADiJ8A0ATiJ5gpnQY6AIORM4it43ADiJ8A0ATiJ5AsfYNMio5tQUbbYO0Cd63wDgJMI3ADiJ5Ak2j1FlNsiQwAn0vgHASYRvAHASyRM4hlk2gEHvGwCcRPgGACeRPIEbNjiVZnwpF4apYFrofQOAkwjfAOAkwjcAOInwDQBOInwDgJMI3wDgJMI3ADiJ8A0ATmLaDtzQ4yU79pMeM2iGm1zDa3dQZPS+AcBJhG8AcBLJEzimn1cVT+DswNTR+wYAJxG+AcBJJE+wefQzBGWgeoAio/cNAE4ifAOAk0iewDH9ZDby+/RIpwyUKhlVfgbYOHrfAOAkwjcAOInkCWYCg0mw+dD7BgAnEb4BwEkkT7B55EeDDJQz2eDhwITR+wYAJxG+AcBJJE/gmIHmy/SzuuzI39EDTAa9bwBwEuEbAJw0ueTJJZdcYjZ27949sZMOhBZuYg6lQYr/W6aFBUHvGwCcRPgGACd5cRxLOnbs2LRbAgAYAL1vAHAS4RsAnET4BgAnEb4BwEmEbwBwUsmMOTlw4MC0WwIAGAC9bwBwEuEbAJzkmf+88Y1vnG47AAADofcNAE4ifAOAm44ePXr06NFptwIAMBh63wDgJMI3ADjJI3MCAC6i9w0ATiJ8A4CTCN8A4CTCNwA4ifANAE4ifAOAkwjfAOAkwjcAOKk07hMsLy/3v/Oo5hDZkxa2wlHVnP/xjq+eHr/KHicd7qiB6ulRcz8/3vH9coGxGnv4xpgMFM42WM9Z91leXh4o3Pc4CkCfSJ4AgJPG3vvu0Smb8Z7XRrrP7ceaH+NwtfVTT36fjqVmI5+1GOiofsz41wawSJ5s1HD/Gg0duzMHDh3LhqhnuHMRbYExIXkCAE4qeu97oHELPW78RzWOYlQ6JhnOqndGYrr1jPuoHofTwcdsKm74nuK4hQKOiJhizqSfesZ6FICOSJ4AgJMK2vsebtzCQJM1OhYNMSJiAv30IudM+h/3MqrRMkW7MQKmpaDh2+p4rW7k4u/ndIW9xx9V5Jpw7mVUGRsA7UieAICTit77Hp/CdrF7mORE+d5H9d+DHlXGBkDGLIZvFwN3oTB/BygCkicA4KSZ6333cy8/3FSa8fUu+6m5nylLw9UzaEtGdRSA3ore++4YTZaXl/uMsCPPk5B4yej/d7HxozZig18koICKHr4BAB15k7+x7TPb0E+3qP+XvLTv2X+Hq8dRA00R6tGws563T/lmbHApxEF/YkO8rmGgtg392qYx/cCBqStu7vusM2h6X3I9Dh9ubk63o2bhyh/ud7HB3+CoFKQZwMiRPAEAJ00heYLJ4K1GwOZG7xsAnET4BgAnkTwBACfR+wYAJxG+AcBJhG8AcBLhGwCcRPgGACeNfdJ8P5NHRjXBZJLncshw88VHNct8uLVKxver7HHUyL+H1jgWojnrPrO5wMNMKe6aJ9i4s4bO5eXlIZaa6nhU8Y17bdjirz07g32XzY3kCQA4id73ptX7vVS/H4sAAARESURBVEK21Gx0vOPu/6h+FKfHN/KWFDNN0WPVXEfvn5BB+HbJcDe/RV7NdWImk9ko7A+tR0Ic7iJ5AgBOKnrve3zjH/oZgTDQSUf+SpoNduUmkCLY4OGT6av2eO9Sxx004F2Oo/3ZIdJfKJrihu9ijn8YbqhGt6qGONeoDNRmRyNUxri/LU6EwuFeNYViInkCAE4qaO975OMfBpo30bFouKEa+X36OarbuUY+naSfOvNNHa7vNpXO6UAZLYZFwy2TC9/DpR2GGzUxDmMaqlGcv2DeWbPGReZ047sZYe4OmwDJEwBw0th730ePHh1uSMYUTbI7M8lzdZzH0S0B1U9SyAlON95w8SLCBEy09728vNz+LSzgTV+mhYMeO9rGjNXRo0f7vNpdDApT+V1M5qQbvIg28g1H0ZA8AQAnTeLRpSvzs4cbQ9J+YztEv2bkC4cOt3NHBfm9DGTyTyz7zGxs/Cwa6UXk4i8XGQUdOGiNb0XTEU6K2chAkQlMPprkVKORG7rxG/mpDv1LKezQQxImmxLJEwBwkjfJbsJAq16MZAmR3hNw8vv030nZeNJjiHMN2rkb+TIsPY7aSBs6VjtEMzY+WmYjuZd+MhtD/zR6nKX/RN9ZD4FbJpo8ySQZen+Hhkv29ZPH6LHPyOfLnLX9G7+ez7r/yH+Gk7n4N9KMDab7NzitdKyZioEuoo7HYtMgeQIATppo8mRT6rOrxc8ZwGjR+54EYjeAkSN8A4CTSJ4AgJPofQOAkwjfAOAkwjcAOInwDQBOInwDgJPGPml+uEnhhV25rYdRzTIfaGUYADOr6AvGOmEkC9j2Uw8AWCRPAMBJU5i242JipIfei5T2vwBpvp5N9oMCMFokTzoY4Wqc/SxAOvn3ewHYBEieAICTCtr7zvd/e4zH6KezPL6XD2zw8I2/IKZHhd0M9Iadkf9Ux/2mSmBGFDR89yMfBcb3XuOh9Tj7yHMmY3r78Ah/qgytAUaI5AkAOMm93vfRo0fP2qXtmHLp0RnMHDWOjvDIX6rb44zDvUe4/5/POI4CMCj3wre6j6sbx3uNB9KtqnG8VHe0RvjO4pH/VAF0RPIEAJzkZO97CBPoDA63VsmoGtaeUxriJmDkP5/8uTbYQgAZsxK+x6og827OmrUY6xibfhS/hYBDSJ4AgJMc7n1vfEZ7NwNNmu9nQEW+wvHlVTrW3G00SO+jNqLHz3C4FgLImJXe9wRy305HnBFO+VleXmbYCTABsxK+AWCTcTh50o9+Rju077yRc023y9nn2TN/x+F+Pn0e1WOmUv8tBNDNJg/fGmoWyWaNICOcZTPcjJ4+qwXQD5InAOCkKbxtBwCwcfS+AcBJhG8AcBLhGwCcRPgGACcRvgHASYRvAHAS4RsAnET4BgAnEb4BwEmEbwBwEuEbAJxE+AYAJxG+AcBJhG8AcBLhGwCcRPgGACcRvgHASf8f01fpintax7QAAAAASUVORK5CYII=;" vertex="1" parent="XSjLxf4Ph_vKjmcvZ095-43">
          <mxGeometry y="25" width="490" height="350" as="geometry" />
        </mxCell>
        <mxCell id="XSjLxf4Ph_vKjmcvZ095-107" value="" style="whiteSpace=wrap;html=1;strokeColor=#F8CECC;strokeWidth=4;fillColor=none;movable=1;resizable=1;rotatable=1;deletable=1;editable=1;locked=0;connectable=1;" vertex="1" parent="XSjLxf4Ph_vKjmcvZ095-43">
          <mxGeometry x="36" y="147" width="50" height="50" as="geometry" />
        </mxCell>
        <mxCell id="XSjLxf4Ph_vKjmcvZ095-111" value="" style="whiteSpace=wrap;html=1;strokeColor=#99FFFF;strokeWidth=4;fillColor=none;movable=1;resizable=1;rotatable=1;deletable=1;editable=1;locked=0;connectable=1;" vertex="1" parent="XSjLxf4Ph_vKjmcvZ095-43">
          <mxGeometry x="90" y="147.00000000000045" width="50" height="50" as="geometry" />
        </mxCell>
        <mxCell id="XSjLxf4Ph_vKjmcvZ095-115" value="" style="whiteSpace=wrap;html=1;strokeColor=#97D077;strokeWidth=4;fillColor=none;movable=1;resizable=1;rotatable=1;deletable=1;editable=1;locked=0;connectable=1;" vertex="1" parent="XSjLxf4Ph_vKjmcvZ095-43">
          <mxGeometry x="361" y="146" width="50" height="50" as="geometry" />
        </mxCell>
        <mxCell id="XSjLxf4Ph_vKjmcvZ095-108" value="" style="edgeStyle=none;orthogonalLoop=1;jettySize=auto;html=1;rounded=1;shadow=0;strokeColor=#b85450;strokeWidth=2;fillColor=#f8cecc;shape=flexArrow;labelBorderColor=#000000;fontSize=16;fontColor=#000000;labelBackgroundColor=#FFFFFF;fillStyle=solid;exitX=1;exitY=0.5;exitDx=0;exitDy=0;movable=1;resizable=1;rotatable=1;deletable=1;editable=1;locked=0;connectable=1;entryX=0.5;entryY=0;entryDx=0;entryDy=0;" edge="1" parent="XSjLxf4Ph_vKjmcvZ095-105" source="XSjLxf4Ph_vKjmcvZ095-109" target="XSjLxf4Ph_vKjmcvZ095-107">
          <mxGeometry width="80" relative="1" as="geometry">
            <mxPoint x="656" y="112" as="sourcePoint" />
            <mxPoint x="816" y="112" as="targetPoint" />
          </mxGeometry>
        </mxCell>
        <mxCell id="XSjLxf4Ph_vKjmcvZ095-110" value="Hydrochloric Acid" style="edgeLabel;html=1;align=center;verticalAlign=middle;resizable=0;points=[];" vertex="1" connectable="0" parent="XSjLxf4Ph_vKjmcvZ095-108">
          <mxGeometry x="-0.0522" y="-6" relative="1" as="geometry">
            <mxPoint as="offset" />
          </mxGeometry>
        </mxCell>
        <mxCell id="XSjLxf4Ph_vKjmcvZ095-109" value="Hydrochloric Acid" style="whiteSpace=wrap;html=1;strokeColor=#b85450;strokeWidth=4;fillColor=#f8cecc;fontSize=16;labelBackgroundColor=none;labelBorderColor=none;fillStyle=solid;movable=1;resizable=1;rotatable=1;deletable=1;editable=1;locked=0;connectable=1;fontColor=#000000;" vertex="1" parent="XSjLxf4Ph_vKjmcvZ095-105">
          <mxGeometry x="396" y="302" width="200" height="40" as="geometry" />
        </mxCell>
        <mxCell id="XSjLxf4Ph_vKjmcvZ095-112" value="" style="edgeStyle=none;orthogonalLoop=1;jettySize=auto;html=1;rounded=1;shadow=0;strokeColor=#6C8EBF;strokeWidth=2;fillColor=#DAE8FC;shape=flexArrow;labelBorderColor=#000000;fontSize=16;fontColor=#000000;labelBackgroundColor=#FFFFFF;fillStyle=solid;exitX=1;exitY=0.5;exitDx=0;exitDy=0;movable=1;resizable=1;rotatable=1;deletable=1;editable=1;locked=0;connectable=1;spacing=2;entryX=0.5;entryY=1;entryDx=0;entryDy=0;" edge="1" parent="XSjLxf4Ph_vKjmcvZ095-105" source="XSjLxf4Ph_vKjmcvZ095-113" target="XSjLxf4Ph_vKjmcvZ095-111">
          <mxGeometry width="80" relative="1" as="geometry">
            <mxPoint x="746" y="792" as="sourcePoint" />
            <mxPoint x="906" y="792" as="targetPoint" />
          </mxGeometry>
        </mxCell>
        <mxCell id="XSjLxf4Ph_vKjmcvZ095-114" value="Glycerol" style="edgeLabel;html=1;align=center;verticalAlign=middle;resizable=0;points=[];" vertex="1" connectable="0" parent="XSjLxf4Ph_vKjmcvZ095-112">
          <mxGeometry x="-0.3365" y="-2" relative="1" as="geometry">
            <mxPoint as="offset" />
          </mxGeometry>
        </mxCell>
        <mxCell id="XSjLxf4Ph_vKjmcvZ095-113" value="Glycerol" style="whiteSpace=wrap;html=1;strokeColor=#6c8ebf;strokeWidth=4;fillColor=#dae8fc;fontSize=16;labelBackgroundColor=none;labelBorderColor=none;fillStyle=solid;movable=1;resizable=1;rotatable=1;deletable=1;editable=1;locked=0;connectable=1;fontColor=#000000;" vertex="1" parent="XSjLxf4Ph_vKjmcvZ095-105">
          <mxGeometry x="496" y="582" width="200" height="40" as="geometry" />
        </mxCell>
        <mxCell id="XSjLxf4Ph_vKjmcvZ095-117" value="" style="edgeStyle=none;orthogonalLoop=1;jettySize=auto;html=1;rounded=1;shadow=0;strokeColor=#82b366;strokeWidth=2;fillColor=#d5e8d4;shape=flexArrow;labelBorderColor=#000000;fontSize=16;fontColor=#000000;labelBackgroundColor=#FFFFFF;fillStyle=solid;exitX=1;exitY=0.5;exitDx=0;exitDy=0;movable=1;resizable=1;rotatable=1;deletable=1;editable=1;locked=0;connectable=1;entryX=0;entryY=0.5;entryDx=0;entryDy=0;" edge="1" parent="XSjLxf4Ph_vKjmcvZ095-105" source="XSjLxf4Ph_vKjmcvZ095-115" target="XSjLxf4Ph_vKjmcvZ095-122">
          <mxGeometry width="80" relative="1" as="geometry">
            <mxPoint x="1196" y="302" as="sourcePoint" />
            <mxPoint x="1136" y="438" as="targetPoint" />
          </mxGeometry>
        </mxCell>
        <mxCell id="XSjLxf4Ph_vKjmcvZ095-123" value="Epichlorohydrin" style="edgeLabel;html=1;align=center;verticalAlign=middle;resizable=0;points=[];" vertex="1" connectable="0" parent="XSjLxf4Ph_vKjmcvZ095-117">
          <mxGeometry x="0.1072" y="2" relative="1" as="geometry">
            <mxPoint as="offset" />
          </mxGeometry>
        </mxCell>
        <mxCell id="XSjLxf4Ph_vKjmcvZ095-122" value="Epichlorohydrin" style="whiteSpace=wrap;html=1;strokeColor=#82B366;strokeWidth=4;fillColor=#D5E8D4;fontSize=16;labelBackgroundColor=none;labelBorderColor=none;fillStyle=solid;fontColor=#000000;" vertex="1" parent="XSjLxf4Ph_vKjmcvZ095-105">
          <mxGeometry x="2000" y="682" width="200" height="40" as="geometry" />
        </mxCell>
        <mxCell id="XSjLxf4Ph_vKjmcvZ095-124" value="Salt Water" style="whiteSpace=wrap;html=1;strokeColor=#9673a6;strokeWidth=4;fillColor=#e1d5e7;fontSize=16;labelBackgroundColor=none;labelBorderColor=none;fillStyle=solid;fontColor=#000000;" vertex="1" parent="XSjLxf4Ph_vKjmcvZ095-105">
          <mxGeometry x="1591" y="1300" width="200" height="40" as="geometry" />
        </mxCell>
        <mxCell id="XSjLxf4Ph_vKjmcvZ095-125" value="" style="edgeStyle=none;orthogonalLoop=1;jettySize=auto;html=1;rounded=1;shadow=0;strokeColor=#9673a6;strokeWidth=2;fillColor=#e1d5e7;shape=flexArrow;labelBorderColor=#000000;fontSize=16;fontColor=#000000;labelBackgroundColor=#FFFFFF;fillStyle=solid;movable=1;resizable=1;rotatable=1;deletable=1;editable=1;locked=0;connectable=1;exitX=0.5;exitY=1;exitDx=0;exitDy=0;entryX=0.5;entryY=0;entryDx=0;entryDy=0;" edge="1" parent="XSjLxf4Ph_vKjmcvZ095-105" source="XSjLxf4Ph_vKjmcvZ095-126" target="XSjLxf4Ph_vKjmcvZ095-124">
          <mxGeometry width="80" relative="1" as="geometry">
            <mxPoint x="2036" y="262" as="sourcePoint" />
            <mxPoint x="1720" y="1260" as="targetPoint" />
          </mxGeometry>
        </mxCell>
        <mxCell id="XSjLxf4Ph_vKjmcvZ095-128" value="" style="edgeStyle=none;orthogonalLoop=1;jettySize=auto;html=1;rounded=1;shadow=0;strokeColor=#82b366;strokeWidth=2;fillColor=#d5e8d4;shape=flexArrow;labelBorderColor=#000000;fontSize=16;fontColor=#000000;labelBackgroundColor=#FFFFFF;fillStyle=solid;exitX=1.021;exitY=0.612;exitDx=0;exitDy=0;movable=1;resizable=1;rotatable=1;deletable=1;editable=1;locked=0;connectable=1;entryX=0.5;entryY=1;entryDx=0;entryDy=0;exitPerimeter=0;" edge="1" parent="XSjLxf4Ph_vKjmcvZ095-105" source="XSjLxf4Ph_vKjmcvZ095-127" target="XSjLxf4Ph_vKjmcvZ095-122">
          <mxGeometry width="80" relative="1" as="geometry">
            <mxPoint x="2026" y="1002" as="sourcePoint" />
            <mxPoint x="2186" y="1002" as="targetPoint" />
          </mxGeometry>
        </mxCell>
        <mxCell id="XSjLxf4Ph_vKjmcvZ095-132" value="" style="edgeStyle=none;orthogonalLoop=1;jettySize=auto;html=1;rounded=1;shadow=0;strokeColor=#6C8EBF;strokeWidth=2;fillColor=#DAE8FC;shape=flexArrow;labelBorderColor=#000000;fontSize=16;fontColor=#000000;labelBackgroundColor=#FFFFFF;fillStyle=solid;movable=1;resizable=1;rotatable=1;deletable=1;editable=1;locked=0;connectable=1;spacing=2;entryX=0;entryY=0.5;entryDx=0;entryDy=0;exitX=0.5;exitY=1;exitDx=0;exitDy=0;" edge="1" parent="XSjLxf4Ph_vKjmcvZ095-105" source="XSjLxf4Ph_vKjmcvZ095-142" target="XSjLxf4Ph_vKjmcvZ095-130">
          <mxGeometry width="80" relative="1" as="geometry">
            <mxPoint x="390" y="896" as="sourcePoint" />
            <mxPoint x="536" y="992" as="targetPoint" />
          </mxGeometry>
        </mxCell>
        <mxCell id="XSjLxf4Ph_vKjmcvZ095-133" value="" style="edgeStyle=none;orthogonalLoop=1;jettySize=auto;html=1;rounded=1;shadow=0;strokeColor=#82b366;strokeWidth=2;fillColor=#d5e8d4;shape=flexArrow;labelBorderColor=#000000;fontSize=16;fontColor=#000000;labelBackgroundColor=#FFFFFF;fillStyle=solid;exitX=1;exitY=0.5;exitDx=0;exitDy=0;movable=1;resizable=1;rotatable=1;deletable=1;editable=1;locked=0;connectable=1;entryX=0.5;entryY=1;entryDx=0;entryDy=0;" edge="1" parent="XSjLxf4Ph_vKjmcvZ095-105" source="XSjLxf4Ph_vKjmcvZ095-136" target="XSjLxf4Ph_vKjmcvZ095-134">
          <mxGeometry width="80" relative="1" as="geometry">
            <mxPoint x="350" y="1150" as="sourcePoint" />
            <mxPoint x="510" y="1150" as="targetPoint" />
          </mxGeometry>
        </mxCell>
        <mxCell id="XSjLxf4Ph_vKjmcvZ095-135" value="Propene" style="edgeLabel;html=1;align=center;verticalAlign=middle;resizable=0;points=[];" vertex="1" connectable="0" parent="XSjLxf4Ph_vKjmcvZ095-133">
          <mxGeometry x="-0.3436" y="-3" relative="1" as="geometry">
            <mxPoint as="offset" />
          </mxGeometry>
        </mxCell>
        <mxCell id="XSjLxf4Ph_vKjmcvZ095-136" value="Propene" style="whiteSpace=wrap;html=1;strokeColor=#82B366;strokeWidth=4;fillColor=#D5E8D4;fontSize=16;labelBackgroundColor=none;labelBorderColor=none;fillStyle=solid;fontColor=#000000;" vertex="1" parent="XSjLxf4Ph_vKjmcvZ095-105">
          <mxGeometry x="70" y="1046" width="200" height="40" as="geometry" />
        </mxCell>
        <mxCell id="XSjLxf4Ph_vKjmcvZ095-142" value="Chlorine" style="whiteSpace=wrap;html=1;strokeColor=#6c8ebf;strokeWidth=4;fillColor=#dae8fc;fontSize=16;labelBackgroundColor=none;labelBorderColor=none;fillStyle=solid;movable=1;resizable=1;rotatable=1;deletable=1;editable=1;locked=0;connectable=1;fontColor=#000000;" vertex="1" parent="XSjLxf4Ph_vKjmcvZ095-105">
          <mxGeometry x="180" y="722" width="200" height="40" as="geometry" />
        </mxCell>
        <mxCell id="XSjLxf4Ph_vKjmcvZ095-144" value="Hypochlorous Acid" style="whiteSpace=wrap;html=1;strokeColor=#82B366;strokeWidth=4;fillColor=#D5E8D4;fontSize=16;labelBackgroundColor=none;labelBorderColor=none;fillStyle=solid;fontColor=#000000;" vertex="1" parent="XSjLxf4Ph_vKjmcvZ095-105">
          <mxGeometry x="990" y="1240" width="200" height="40" as="geometry" />
        </mxCell>
        <mxCell id="XSjLxf4Ph_vKjmcvZ095-145" value="" style="edgeStyle=none;orthogonalLoop=1;jettySize=auto;html=1;rounded=1;shadow=0;strokeColor=#82b366;strokeWidth=2;fillColor=#d5e8d4;shape=flexArrow;labelBorderColor=#000000;fontSize=16;fontColor=#000000;labelBackgroundColor=#FFFFFF;fillStyle=solid;exitX=0.5;exitY=0;exitDx=0;exitDy=0;movable=1;resizable=1;rotatable=1;deletable=1;editable=1;locked=0;connectable=1;entryX=0.5;entryY=1;entryDx=0;entryDy=0;" edge="1" parent="XSjLxf4Ph_vKjmcvZ095-105" source="XSjLxf4Ph_vKjmcvZ095-144" target="XSjLxf4Ph_vKjmcvZ095-143">
          <mxGeometry width="80" relative="1" as="geometry">
            <mxPoint x="1140" y="1180" as="sourcePoint" />
            <mxPoint x="1300" y="1180" as="targetPoint" />
          </mxGeometry>
        </mxCell>
        <mxCell id="XSjLxf4Ph_vKjmcvZ095-146" value="Allyl Chloride" style="whiteSpace=wrap;html=1;strokeColor=#82B366;strokeWidth=4;fillColor=#D5E8D4;fontSize=16;labelBackgroundColor=none;labelBorderColor=none;fillStyle=solid;fontColor=#000000;" vertex="1" parent="XSjLxf4Ph_vKjmcvZ095-105">
          <mxGeometry x="1100" y="810" width="200" height="40" as="geometry" />
        </mxCell>
        <mxCell id="XSjLxf4Ph_vKjmcvZ095-148" value="" style="edgeStyle=none;orthogonalLoop=1;jettySize=auto;html=1;rounded=1;shadow=0;strokeColor=#82b366;strokeWidth=2;fillColor=#d5e8d4;shape=flexArrow;labelBorderColor=#000000;fontSize=16;fontColor=#000000;labelBackgroundColor=#FFFFFF;fillStyle=solid;exitX=1;exitY=0.5;exitDx=0;exitDy=0;movable=1;resizable=1;rotatable=1;deletable=1;editable=1;locked=0;connectable=1;entryX=0;entryY=0.5;entryDx=0;entryDy=0;" edge="1" parent="XSjLxf4Ph_vKjmcvZ095-105" source="XSjLxf4Ph_vKjmcvZ095-147" target="XSjLxf4Ph_vKjmcvZ095-146">
          <mxGeometry width="80" relative="1" as="geometry">
            <mxPoint x="1140" y="920" as="sourcePoint" />
            <mxPoint x="1300" y="920" as="targetPoint" />
          </mxGeometry>
        </mxCell>
        <mxCell id="XSjLxf4Ph_vKjmcvZ095-149" value="" style="edgeStyle=none;orthogonalLoop=1;jettySize=auto;html=1;rounded=1;shadow=0;strokeColor=#82b366;strokeWidth=2;fillColor=#d5e8d4;shape=flexArrow;labelBorderColor=#000000;fontSize=16;fontColor=#000000;labelBackgroundColor=#FFFFFF;fillStyle=solid;exitX=1;exitY=0.5;exitDx=0;exitDy=0;movable=1;resizable=1;rotatable=1;deletable=1;editable=1;locked=0;connectable=1;entryX=0.5;entryY=0;entryDx=0;entryDy=0;" edge="1" parent="XSjLxf4Ph_vKjmcvZ095-105" source="XSjLxf4Ph_vKjmcvZ095-146" target="XSjLxf4Ph_vKjmcvZ095-150">
          <mxGeometry width="80" relative="1" as="geometry">
            <mxPoint x="1180" y="930" as="sourcePoint" />
            <mxPoint x="1270" y="930" as="targetPoint" />
          </mxGeometry>
        </mxCell>
        <mxCell id="XSjLxf4Ph_vKjmcvZ095-152" value="Hydrochloric Acid" style="whiteSpace=wrap;html=1;strokeColor=#9673a6;strokeWidth=4;fillColor=#e1d5e7;fontSize=16;labelBackgroundColor=none;labelBorderColor=none;fillStyle=solid;fontColor=#000000;" vertex="1" parent="XSjLxf4Ph_vKjmcvZ095-105">
          <mxGeometry x="685" y="1272" width="200" height="40" as="geometry" />
        </mxCell>
        <mxCell id="XSjLxf4Ph_vKjmcvZ095-154" value="" style="edgeStyle=none;orthogonalLoop=1;jettySize=auto;html=1;rounded=1;shadow=0;strokeColor=#9673a6;strokeWidth=2;fillColor=#e1d5e7;shape=flexArrow;labelBorderColor=#000000;fontSize=16;fontColor=#000000;labelBackgroundColor=#FFFFFF;fillStyle=solid;exitX=0.5;exitY=1;exitDx=0;exitDy=0;movable=1;resizable=1;rotatable=1;deletable=1;editable=1;locked=0;connectable=1;entryX=0.5;entryY=0;entryDx=0;entryDy=0;" edge="1" parent="XSjLxf4Ph_vKjmcvZ095-105" source="XSjLxf4Ph_vKjmcvZ095-153" target="XSjLxf4Ph_vKjmcvZ095-152">
          <mxGeometry width="80" relative="1" as="geometry">
            <mxPoint x="800" y="1220" as="sourcePoint" />
            <mxPoint x="960" y="1220" as="targetPoint" />
          </mxGeometry>
        </mxCell>
        <mxCell id="XSjLxf4Ph_vKjmcvZ095-139" value="&lt;span style=&quot;font-size: 45px;&quot;&gt;Propene&lt;/span&gt;" style="swimlane;whiteSpace=wrap;html=1;labelBorderColor=none;strokeWidth=5;fontSize=16;startSize=80;fillStyle=solid;fillColor=#ffffff;fontColor=#000000;" vertex="1" parent="1">
          <mxGeometry x="-580" y="-720" width="1430" height="730" as="geometry" />
        </mxCell>
        <mxCell id="XSjLxf4Ph_vKjmcvZ095-138" value="Distillation tower" style="swimlane;whiteSpace=wrap;html=1;strokeColor=#6c8ebf;labelBackgroundColor=none;labelBorderColor=none;fillStyle=auto;strokeWidth=1;fontSize=16;fillColor=#dae8fc;fontStyle=1;container=0;fontColor=#000000;" vertex="1" parent="XSjLxf4Ph_vKjmcvZ095-139">
          <mxGeometry x="210" y="137" width="510" height="370" as="geometry" />
        </mxCell>
        <mxCell id="XSjLxf4Ph_vKjmcvZ095-137" value="" style="shape=image;verticalLabelPosition=bottom;labelBackgroundColor=default;verticalAlign=top;aspect=fixed;imageAspect=0;image=data:image/png,iVBORw0KGgoAAAANSUhEUgAAAf0AAAFUCAIAAAChvXL5AAAACXBIWXMAABJ0AAASdAHeZh94AAAgAElEQVR4nO2de5RdVZ3nf/dZr1RelWQRFME1M7AWDrS2SwMVkQoECYzikFTSJChrlkMHhNgawZYZCQEC3egMRLuDvGet1pFXKsGRGUEBcwOaIroUHzOuDvZqESQhCUnlVY/7nj/23r97svc5p+7znHvu/n7+ya79Or97c+7v7vO9v/3bsV27dhHR4OAgERFRuVwmAAAAHUcsFhOFeLh2AAAACBjp/rHMBwCAzmZ0dFQUsN4HAAC7gN8HAAC7SE7bgx8NAAAARJfNmzeLAtb7AABgF/D7AABgF546D+QdAADoSLDeBwAAu4DfBwAAu5g+ngcAEC6cRqXdWLRokSjs3r07XEu8iJCFHGwTAFjvAwCAXcDvAwCAXUDnASAyPProLlEol0uiUCoVtT6lkmxKJJJaYcaM2aKQz2dFIR6XK79isSAKuZxsisVkU6GQU/MkVJMsHDr0siiwivLMM89oZnDBzUI5TzIpLZw5c6YyI2dYKF9pNqsbz515Qi7s2bNHs3B4+DQ5nO0pyzRlsUoNaTVcSiYL6lXElRmyNyc5K6umMnFVXOvDEy46b5gCB+t9AACwC/h9AACwC+g8AESGyclxUUgmpY7R0zNDFPL5vGrSF3PxuOx8+PA7olAo5FVjjHQMJYLMJO3mKMnExIQyQ/qW3t5ezcJUKmVYKG0+ePCg1pmPCqnYp7QSbjLTyJujKsOVCMMCWTwudSeeJR5T0g2xBCRrCvmk1lRQE3le0u0ddKsKDqz3AQDALuD3AQDALqDzABAZenv7RCGZTIsCB9twhI+pkHAkDOshHOGTSnWJwrx5C0VhclIKNRz8c+LEEVHIZmVTqSRjWqamTAulqpNOSws52IbDeAqFgmbhlJqI1SEu8DwLFixQFk6KAgf/HDt2TGvil2wSj8umhIrD4XiesiqY4TdvvvW2KJx22mnahAklCnGoD8/z7qG9ojBfvb1FpTJR2UcWajlY7wMAgF3A7wMAgF1A5wEgMsyaNV8UTpwYE4WS2mLEITq8A6saOOzl7bf/VRR6eqSUlMuxZpJXl5AKSXd3j9eEAwMDonD06FFRYHGJ5R0usCTlsEdXP7jmrbfeUhbKq/MGLp6HZ2a5ySSVLKrOMsyppCJxONSHd5q9+ae3lBmyxox2Ypkop0J99u39s+wT55ifhOqugpFCDejBeh8AAOwCfh8AAOwCOg8AkWH//jdFIR7nEBRSBY4qSWpN5h4mVodMOECIFQlWkFhOKZV0fYZ5++23lYUcElPWCrxvi01lfYabzKw+DJvBE04ZcUUnTpzwGp7Npb2aTA3n9NNl9M7bf1aCj0sv9beqOPXU94rCn9+Wgg8n82kT2ssaAAAArQZ+HwAA7AI6DwCRwSdZDQsjnD/ZJ0cNpynm3V7c2bH16bg2imWZRMJTKqnOwphXZzcL5XAz+IfFHFaHuDPv9nLDM91QzKWPrHMIY2baIn3bFzco+cpbGwoJrPcBAMAu4PcBAMAuoPMAEBkcwohUDjiwJ5Xq1vqwrtLVJZs4aw2n5eFMO9mslHdYYOnu1nMB5fM5NY9nPI8p3XBgD6sxZv7krq4ubRQLNWyzeYDX/PnzlYVJZaG+gcsXw9SYKQGpKCm17yqm+sRiHHHE2750vYjVpmSCUyQZuYDCAOt9AACwC/h9AACwC+g8AESGZJJPqlKJXwqcoyZndJafbtZw+BD2qakJrXMl/4ySOiYnZTwPJ1LmtDwcMuRmYVL1iSnD9G1fZmcOImJRiGsYlm541Pj4uLLZc2uYCb9S3oHFCXZK3tpLQYk6DqEm4dWZySu1qWjm5wk1sgfrfQAAsAv4fQAAsAvoPABEhlSKD7GS8k4yyZEwvD1KD4AxdyqZ6X0csoPexJmZOdTHZ/sRx+FwkmRzUxULR9yHMc/JMg/eMlUdprtbD2oyqZyiXuINbpwbWfLmmzKvDl+AC5wOmmvep07g4iaeh5fVnN5HHXRGp556qpeFAYD1PgAA2AX8PgAA2AV0HgAiA4fE8F4qPuvcsVOphoOc4nEp3bAwwhIQN7FwxMl8qrGQZRmOzGELTX3GB+7ssDCuFcwT230oVeQdFnxULiDV5z3G4enV4DhyXe2qU4oPp/eJ6xvvwgHrfQAAsAv4fQAAsAvoPABEhqmpcVXkqBs9ubEbukLiyHXDwT+k+kjRgxUbHsX4HIY1MTGh2VONqmNqOHwJjvDhAocV1WdhubJLa/qNV9XgltbZzN5MXjWhgPU+AADYBfw+AADYBXQeAKKIHuVSaTACYBhWdRzoepHZh2t4C1U168WagnYYc9+WqReZfRz5pT3T8lQM827yibXxPGTLbeZqLhEuWO8DAIBdwO8DAIBdQOcBIDKw0nL99UsefHCH1nr99Uucfz788MuisHbtx7/73deIqLe3X9SMjx8VBc7zw3Bi50LBUxQywmcqXH311Wbl008/LQqrVq1y1o+MjIjC8PDwc889R0QzZswQNcePyyzQZg6fag7VMiN8mG3b3jArh1ecIU06uXXlitNFYeu2P/3VX51GRIkYBxqp0CPjWHbO/NO2wO8DEDE0/+6s5C+D669fsnbtx9n1Bwl7eQ3h9J3fAcPDw+z6g2RYeXOF9NjC6Tu/A7Zu+9NKvXMnAL8PQJRgp//kk3cQ0VVXbeSmBx/cISq52+OP37ZmzZ2i5rHH1n/hC48GY+S3v/1ts3LVqlVPP/00N4mvgS1btqxbt07UfP3rX9+0aVMwFr576P2u9cMrznj30BnOmoOH3j9/4I+ivH//vzn1lD+02rYAgN8HIDKUy/TAAzuI6POfl97fqXWw089kMlz5+OO3rV2bOXr0EBEdOPCmqHSE+ugbphIJ/Ugvx14q3uTlF6uzatUqp57zve99j8vs9J0WbtmyZXh4eGxsjIj27t1rWEiGhfp+K7f9aH6phEa2/cn5Jy/wiYidvtPCg4feT0TFQoKIcnnvk7w4yEoVylWFCIVAu+tQAICaEA5ry5YXQ7n6U0899dRTTw0pyE3xFxY+/vjjgVtHRDS84ozhFWc4LRwxFH9h4QrH90GHAb8PQOfATn9k5K6wbSEiEo71kUce4Rp2+g8//HBIRp2EsNCp7bDTP3Sy4NNJQOcBIDKYW5a6u3u5zNKE6fSTyQQ5xJN0ulubkPdtcSGhjoYqFvk8dJV2xmX/10kWrl271rHJi4jokUceufrqq9lC0+mL/g4L04aF+jFbLPiYb4tffh4iIhoYeEPTWYTrZwundfqJOGtKxtY512I7Ab8PQOcgVq9ENDx8aygGrFmzxl/AYQvXrl0bhEEG27a94S/gsIUDA2+03pxwgM4DQKcxPHzrunVLw7r6mjVruKwF7DNr1651dgsYZwi/Ke4LBgbecI307wyw3vdj/fr1YZvgzvDwsCiEEv5cDWzh4sWLw7Wkk4jH4zfccJEosyIhYvYfemjndddd6IxCcXL99Uu0qP9t2/6FiFiI6O2dKQrvvisjajjncywmV4csAfnsinryySevuuoqV5++devWlStXelmoRQER0SuvvEIOVYe3dO3fv18UfHI++1g4vOKMkW3uPn3V8OlPj/zJy0LzG2LNVe8hIpW4uqL85PNJZY8KNKroPW2RoQd+H4Ao8e1v/+Tpp+/UKkUU/0MP7XziiY1a0+rVdzz00E4iMpuI6AtfeMSsbJAnn3zywQcf1CpvuOEGItq6dev999+vNd14441bt24lIrOJiO68U3+xjWMG6RPRvIE/EtGq4dMPvKuH9s8b+KPYvXVQj/r/d0S0MIIR/dB5AOgcVq++w+fPwLj++uudfwqnL7jxxhudTdqfgTHvZO1+ntqZRUQL5v3Rq6lj8DwTZ3R0NHBj2g7WeVi1aBNuvvlmUTjvvPNEoW0tjOKNxP/vmzdvDtcSQdveh4wz0064lnjR/hYGoIjy/Yz1PgAA2AX8PgAA2AV+1wXAkzYRfHbv3q0V2oRFixaJAiysG7YwyMg3rPcBAMAu4PcBAMAuoPOAaHD++ec3fU6OhvKCYz/aRPD538PyA8vZZ8zkMLxFKKEWdcmYrJqVluOyRZVjWY0uqlFmU15dIqHm4ab/+1H5/rB48vL3lyjD1DHoRqYcbkom5ETJpCzMmSlf4FSW0wQpM5SJ2SxvzlJNOc7Yo4xXo3b98+WahbtGLtEtNLINlcqeFs5WFmZzvItNNhUKZa+mXJ5fjnozVdPL/3KJfvnWg/U+AADYBfw+AADYBXQeYC/Vb+FpE8FnsiAXanElucxIyYKSFsg8DkpJC3RgUsofhbJ+FDjDGzjdToryHMWMT0jRhIWRGb3yorm80mdS+gQsSe07mBOFvOpsnLtFvMeUm4xdpy6jKhZOSgtZcmEL+aKszzgslDXvsIWFVlkYAFjvAwCAXcDvAwCAXUDnAfbCSYQ0Nt52myj0z5ypNYUr+PQmpZqTikvhgINtykq6ybHIoEZNlQ3VQlWkE3LCU7plYUrpRTPUtY5JYYMmi+oELu9TpFgzSaXlNTjYpqziZ7LqKHjWOopqRtZDWCbqSsu16SnzVajPlBRqZs6UZ3IdUyYePSGnjpF+9jrTpyxMq0vklGLDYTz5rGGhOsCLXzqH+rCFCxdIeyYmpRmz+6XqduR4XjXJCQq+Z9O3Gqz3AQDALuD3AQDALqDzgGjw+c9/vulzXnPNNa71P/rxj0XBJ+AnFMFnbpfSXvLqICfVxIKPjwhjklO7tN6ekOpHvKQUibQK/jG2hrHKZDJvrlI2jkmtg/UMllN4f1M1xGLyJb7x1qQo9PbKS0xkpbxTUHE4RTVzT69nuMz8OXL4mLJQHSNWiecp1PQmqj1Z//rmCVHo65WCz2RWD/4pFuRFe7rNwKvgwHofAADsAn4fAADsAjoPiAYPPPBA0+ecNj9PNQQp+Oyd4A+sub9Kwll03LdeeYzKF6S8k0pK/YEDTvKGzjNV9FRR3twrQ2E4eQ6H6HAhlYppNeYmppKR1SeZkq+d93+RqSCxUHPCyLnDFu7L6hfV56tEE3m/zS5bsZgchzCpGg5qyhfU2etmVqAAwXofAADsAn4fAADsAjoPsJfmHrHNsz3/3HOisOyyy5o4vz8cNuNILeOpRHB6Hx6l5Acq5KTgc8JQWnq60tPO7JOshvMex1Qnnxw1nDynXPaMAsqqXM35vAyb6enp8pyRLTRqeF62kPPz+Fmo2kpqglhcutPJKSklHR/Xbe6twsIAwHofAADsAn4fAADsAjoPsJc68vNUM9vo6GiDhnkRIz1QhItdCe4j4XiRngTnhCHVWW0jUql7jqneSRXPU8kFxAdvFdUuJG+/YQojHNjTlYqrPmqLmdJVerplE2+Y6lLpfTjsZUJlDmLhqK9HvcDuPm3Cqez0SlTZqOnu0i0sKXu6lYWcSohfDgc+HTueVfNIMaevT/ap5ALKydeT946JCgCs9wEAwC7g9wEAwC6g84Bo0G75eZgA5B0mxes0FZDDCXbM3VW8gWuyoKfumSrqCz4+/TyulJ8T+crFxD8lpbl0GQdmMemkGqW68JHiWd5vpSQW3h7FGg5H1ExM6jObZ1cd4+TGU7Kmcmq5t4iSYrlJ1WSVhTnTQhXYMzkp+xTV5dlmhkWqmMpfdHxcqVSVoCaZn6erC/l5AAAABAX8PgAA2AV0HhAN2i0/T5DyDpNWcThZJe9wDSsJLOaU9BYnet6ZVErKDrFSzqU7ERH1ps3sQIaFKg6HN1WlWZyq7BFTu8a8z5wy0/uwzsOxMfmY7JRSNazz+Bz9nlYiVVYdRc+ROWxN0TiByyXDkZHeJ51W72FZl3eYXpWiOdRj1bHeBwAAy4DfBwAAu4DOA+yljvw8ocg7jFImKideOWJ1VEKbWiY0415iiZTWxMJR3sjY42KhConhc9UnVCQMJ9jxyWDsYqGyg3UV3n2WSia1mmIVU/OhWixATUxKWaZgHO9em4WqJhaThiWUfy2qo+Q5IXO4YL0PAAB2Ab8PAAB2AZ0H2Ev1+XnClXeYyYK+54ilF5/4EG7iFM0lI/jHnIDFk7gxtXcYDo1PSM2EZRk+OcsnpzE3cQJkDvXhfDicqCehMhGxYhM3TPSJFBqfbJWFTMXCrGGhkZU6FLDeBwAAu4DfBwAAu4DOA6JBKPl5Xn31VVEIV94x8T7u26/JECRc9CKzD9dwwp+4jyDCZnifme7TZGomphpj9uGaVCVxUJtayCmJTG0qSLDeBwAAu4DfBwAAu4DOA6KBlybTCi79xCdEod3kHVZalm+XWXS2L+ezziuVgv+1QjZ9elvupauSRNSXVPmB8ypHjZG9mRM7l8p6kyMhjWcsSioVW7oy46x5cesQl7Wmn2xbIgoXrdjxi+cvJqL+PumRjp6QO52yxslZnNjZPGmdiXsvaFlpWbL6xR1PLHU2LVn9otn/5ScvIaL+vsSHPvW8s/6XP7hUFD58xY92jXzC2cSJnV1EIZdSCMDvAxAlXD0+13Pl8u25T2/LsesPDOHZ2dcvXZlZujIj/jSbLlqxg11/wLi6eCLSvgkSSrwXTv+1Z5f1z0gQ0b9d8n8+fMWP2PVHDvh9AKLH9uXpfzg8KMp/M3eXWbmciIg2HxpcPyBbN73zsXve+0oAtr24deiu+2X5rvuHMpnMXffTrTfqTUtXEhHd+Y/l274gfetX7ik+uCkIj8RO/46HCkS08bqTLioqNTJX0WvPLlt/rzzhJbOEiOim+7L3flkepftft+T+bl3Q37J1A78PgM6yyy4L2wR31KK+i/37jXNGOTMPV2YyGR6y+dDgp4nGsgki2juRoJMxt3TxeVl8Rjk3+WzyYl54eojLX11bGXDX/bR0JbHTd1p45z+WL1pBh8YKRLG39smjyd3OZ5dVSSOpkLmXquSTSqhMOx5fSkRL1kjv79SLlqx+cclqx8v57sVcrjh9h/E33ZfNXCGlJ54nZWTs4QgoziBUUwqgpgO/D0DEWL49u1yVt17ZpbUKrzRyZdfwM9lAzXLwtRuoUChftmana6uw8PknLly22r1DWAgvf/djckNvJpO55LMvOV0/KeN/8vjSi9a4K0WRAPE8AESYlSc7d3b6W8bOD8cgIiK6ZFWGnf5zj1/obGKnf89D4R49Mj1DQ0Pk+Bogh9O/82EXLShCYL3vB+fp9UrkEjrtbyFoLk6fLtxQjzpyi/UH0+nHYyfJCt1qCGtElcO5VIEFH06/zH7a3NvFFItlXsUrNT9GRHd+Me600HT6IsyG5Z3udJwn1C7KprKckjcM8sl+UzSaenuk/CVO4LptbVIbfvdjxUs+WzHedPocI6SurtfnlQRUeQ9Dzc8Dvw9A9BC/5W5fnl6+Pfff3x0kok8SkVqiEtG6OeFEoAqn71zOZzKZl5+5iDuwhbdc1xaZ6J1ctObFnzy+1KcDG6/9FBw5oPMAECWcqr0WsM+smzMaorjPTv/WG2UYj8kt15XbTdwXOFX7pZ95ybXPxuuSXmGgUSHa31qtZvHixaLQbvt3mPa3EDSR7cu7lm/POuNJmO+vSP/HbTnXJiJavj23/OSaVz9zUmxPf0quvt+ZVKdQqZzPZvZm/9Qyy1bvXLb6pJrbvlUiog3FJRcP7/CycOnKjIjsZP75lUuJqKyEp/5+eRDYvv0yrmZiQuopMSUPcWef7DfxeIydOxsjwvZ3PnHJhatfcP3BVjR5Gf+xlS9kTjb+tWeXEdH4lPxtIK4EnhJNb2EAwO8DECW2L+/6h8O6fC9kn++vSH/z0KDW9KWBXd9fkSYio+kCImp6RP+Pnxoior97wL31pZElm7bo8s6GdbGXRpYQkdlERA/c2fygeNcfZoV0s/OJSzY+lNea7rgu5dX06Ma+P/zkPxDRX985bl7orhtTzbK5uUDnASBi/M3c0ZP/3MXlLw3scjZpf7YDG9bFfP5sB4SXd/1Ta3p0Y19ANjUb/fmIgW4AQJuwfv16UajjIPhgGBkZEQVYWDes2baOzZs3iwLW+wAAYBfw+wAAYBf4XReAdmf37t1aoU1YtGiRKMDCumELA9B5GKz3AQDALuD3AQDALqDzABAZ1n2gXxQmynLFlleFMnHuX/OMJ1kzI1706pxXiXqyasIuPkVd9ZmbkDHvKdXUr2JjWDw55ZRT6nhdHE8Yq+rE9ho6DxsW/tOSbjWP7FM0RpXVu8EHnHHu5/6k3CyWU0eV8fvDyY5yZW6ScKZnNpl3ze27PIT4Iqz3AQDALuD3AQDALqDzABAZDpfkftGEt5gzNy7VGE4pMKWkm+Ml+Xkveh+YdWRsTBTME6uOz5mj1XyoKqt1zF2ipmJjptxh4urQdG7K5/X0CamUZ4KEKXVwPCfI6U2og9qVPhOLGRdVb++hXELvTLoZZiIjM+lyVzrMFA5Y7wMAgF3A7wMAgF1A5wEgMsyISQ2nRwkRU0ptmFRizmEl5rD+UFLLO5ZuuKmy7hs/Iv49ba4MGZqt9CKe8NBRKQHNm9XfyKuoKWjHpFTS0y8nk0mtyQc+ayyt3kMOv+Fr5o14p1JZXyJzqE86LgunqqOOOciqT2k540qImlAqU1HNfGxai1sA1vsAAGAX8PsAAGAX0HkAiB6svZQrBzmZeMopPKqyZalPxupMKLFjophQsyg9RF0ja4geNVGNzsOYgk+xKK1meccn+MdkTkq+jOMF3QzevMY7sHzeQ4bflr2TspCKy6oTSt4pqD4JZXPaCBkKEqz3AQDALuD3AQDALqDzABAZJstSe+GNV7xwM3dymX18gl3M4WNHZIQPp6ZZOKdfzdyQRlGNGmPCu6J89mRVM/P+bGLaPom6RBjWnXgwy0VcmMrLKKlcAvu2AAAABAX8PgAA2AV0HgCih5t0o6s6XaqxR6VfPlGSEocjnkcvMDNn69l43jos923NNRL1BImZjadZmHl1fOCgJNaWSmV92GRJrymq/7D09GpTC8F6HwAA7AJ+HwAA7AI6DwCRIalCRQqqhtWC7phUEDjrcl6t6gqG2sDz8KgDR2SemJmzZotCv8rPwwdvDfTJ4VMxvn6T8TlLyyeMh+EtXT7wvGbITlecr64mLOtNvKWLN17xJU/kZDGRlKbOTKgtZmrCvCoU4ti3BQAAICjg9wEAwC6g8wAQGXxUjCkjZ05PTHaPVxIyx7TOfGhU3ywZonNInbc1xieAq8J75syQE7ZMoqgpdY8J52FOJDzDZVKG9XxCer6yz0r+G+d816oPB+1kjQioeEK+q9mcjDjKqSa+ZHdautxEmDIP1vsAAGAZ8PsAAGAX0HkAiAwcWpM1VAKOGEmq7VoFJUSYaZNZ+eFpelVgz/wBKeYkVM1xtduLg1vqS18TABzz45OoJ6mMzyvpJm0oPwVVUeajuGoxoy/t6VdZx2pIz2oYrPcBAMAu4PcBAMAuoPMAEBlMtaFcCdFh5aCGxRynX86q4bnKPFLe4b1dHA7U7ZfReXoaPG+rwUtwCBMrYxyrw0JWuRYZxlS9WGFz7LNTB7XX9XKaDtb7AABgF/D7AABgF9B5AIgMU+q8rYZ0Fgdm+mWONHFIQHJ1mFKCxuGSDJt5rznYOOK8GlXHR8wxh9en/DCTRflyYsZ2Nh9DuTOnaOakzUUj/bKpnvEoVpBK2LcFAAAgMOD3AQDALqDzABAZmiXvMKxImIJPwVgU5su822t66aa+TDs+qg43+cxckwRU9pZ3eBazyVR1TL3I7GNueavmSK/WgfU+AADYBfw+AADYBXQeACJDr0qtHCN6+P8dEeVrzp4rCt/5/WFnZ2f9fzr7pJPQS9UINd45aZLeglO5XN63b5+zZuHChVyuo2nfvn2i3GAYD3PdznGz8tGhXiK6NjNhNv2PJT1E9Lkdk09d3E1EvUlpxnjB3Okmm3Ilz6Adn9O+ggR+H4DoIZz+2g/MZu8vnP41Z88VsvV3f3/oO78/zK4/MIT7dnptdtz1NbUC4eUZp7vXmuLtmoGuQeD3AYgYjyin//r8DxLRmwvOFfXXnD2Xy4I3F5z7vgO/FeU3FvzFGQd+E4B5CxcuPOuss0R5aGgok8mcddZZe/bs0ZoE1TRp5abwP+mjXL5W/Xmt0cTL8s8REdEDxfNuSo420YywgN8HIEo8ohb4wuk7YaefyWS0SiHsODYoSX/GSYljlYTDeh+mmjAe5yL99ddf57Lw6ezZnRZO29RceEW/uvwLs/XazMS1jj8furCPy0cLcYrR/qx+khe/KbGY/q5ylBQ3lYxQn1CA3wcgMgin/9cfmP2H+R8kotPd1u/Cb1599sD3fn8oWOsq7NmzJxaL7d2717VVWLhw4UJN0/dvai6foZ8XKaZp/cLLPxH7CBtz3c5xp+vvGBDPA0CUqNLpv73gnIANc7Jv3z52+qeeeqqziT27uZb3aWopXp59aGiIHF8DnQTW+wBECdZ5TFghMZ2+ti3LkWpZ30aUULE685IFUThQkNl4ONWzW1afCrxUFx78zDPPJCKhzrOFXk7ftam5cIyNWOw/OtT7ROyjRPS5+G4Rh/MZ+rkWh/NE7CPXGTut+JQujjPiU+852qlytldZ3yNWDPUHY/h9ACLD1WcP0Mlu3amGk1qiEtF7DvwuOLMccGTOWWedJTx4JpNxiv5sofk7rU9TixgaGiKSTp+Irs1MaPE8nQp0HgA6jfcc+F2I4j4LNXv27PHy4Hv27PFS8H2aWoRw+gJnTOfanS7h/J0B1vsARAYhy3BoppNrzp77nd8f1pb/jPk18KV/309EvXGpSXCg+rtK1TlQkM6BD2HnCB89ouVkTK8tvgbEr7WuFvo0uU7YSGi/mRiHt1k9tqT3P++YcN29RUaoDxE9e2kXUSXWs0++c3RwSh2CVuJ4HtnEolC4+Xng9wGIMNecPZe84/eJ6MyDv177gdlkxn3O+zARDR52iWVsBOGRvTR6199sveL3RZPrhPw80Yipjw71kjNUn4iIHlvS+92yXvnZ2M8fW9JLREbT+UR0U2srGUkAABP6SURBVDp6Ef3QeQDoHLRHgTMP/josS7zQnLXzT5+mIPls7Oc+f3YG+uE4zOho9L7EAOhI1q9fLwrDw8PhWuLFyMiIKMDCulm8eHGrL7F582ZRwHofAADsAn4fAADsAr/rRpvBwcGwTXBn0aJFosCPlu3G+eev9moaHX0iSEuqh8WKNoE1k927d2uFNoHvw/a3MACdh8F6HwAA7AJ+HwAA7AI6T4fw65/2i0IuL2O0Jibl9pqyd+pXTg/blZb7d1IplUK2KEfl1blCJVUTT8g+6ZQctWBeXtZ0y5rvfT+4qImaFBufzmafmoYHoA61WyzKzTffLApf+cpXRCF3YPv0w0oqgU1crjtjaitYPMEbnHxGmwmi+RgyfUvZN/9J5oJmeeeXL88UhWxWX/UW1K1eLE3/kUmrTwqPYpLqTK5kUr7SHvW5mNkvsx6lumSfID8pDNb7AABgF/D7AABgF9B5OoSxozI5SCKuPwWbYk5CCTWsBU2pU4TGVW6ShHpiLnJ6WUZJSVNTct1w7Hib3kjVqDqtGx5FbrnlFq+me+65Z9rhZeN2SSTTolAqKzUmntL6cPqaYj6nOnNSIOMSXOA+sUp6Y69RjHmvmne4Q6hR52QV9SlNeYcl1v0HZK5s80M0b94cagOw3gcAALuA3wcAALto08dzUCss73CwDX+l8wNpNifr+OnVDPXhJ1OesK9XPqNyhA8HJ7BMZERYRACf8Bub5R0fMaeaPvGEVHXMzMNMWQk+LMeUCrrUUjmsXN2RyWS3HF6SITGxOEesFVWTfgaWiZsQyobJEn9kTDGHPyCpFKewljXZrJR33nfaTG3UpFJEjxwZE4VZs8IUfLDeBwAAu4DfBwAAu4DO0yGwdMNijgkH9vDTKz/z+gg1U1P8oC07nZhQ8o5Sfnh4KKcIsWLTrE1V7bZdK1x8InxMEgl5+5XU5izeVMWhPrWJgmpUgaZEobI5q5RXnfTbLlbFfcibszjYhjUc3pPVa4icvI2Rb3X+WM2Z06/V8NYw/uyklMdlmSgUsN4HAAC7gN8HAAC7gM7TIfCeEYYfNvmBlEN9qslDUlRP4/wUXKwcEq1vBOvq0iN82oRmiTAdL+aYmNE71Qg++dzUtH0a1AJZOKoIRsaMZoAQY97zLMKYn5QT455JrhyfL7WNMav3GRsbU5eQNfMGZomC+YENEqz3AQDALuD3AQDALqDzdBr8+MlPphXFpqSH8fT2yS0wUyrwwAzRSXrfI+MTCa2QCEPmsXCbVeuoZnNWAFT2ZJX0cCCmqEKG4pV8ztNjRu84JvSMT+vukZ+UQkFdK6bHJfWqKKD9+4+Lwty5s6Xx6sOYzelmhALW+wAAYBfw+wAAYBfQeToEjkngWB1+DuWmfF6JOeoJdco4cogjcxjzvK0ZM9SZQWpmzthzaExPsds6GtxL1Tp1qG2DfzZs2KDVbNq0SatpUN7hlMhlI0VOzFsEjMc4bIbn4TbOAaWH8aQS8mZjnYcvWulsUMk3VdJvbIrxcH0U717kUJ+EISqxvNPfL+Wd2bMKykKVMloVTpwI0/fC7wPQ+QiP393d7Vpven/Q2UDnAQAAu8B6v0PgI857e/TcIPw8yylBOJ7HzKjMo8xHXY5J4BOLKgqS9zYZEDobNmzQVvpTU1NE1N3dLeo3bNhQzeasqiQgI7SmkpbHCGFh5YdlGbMPU/LJrVy5uJww5p0oqq9X3vOzZsr0PmNHpF7EnwJzU1V3d1E1saak98lLUYcOj8mEzEeOyhqVtYh6e5UZff3+r6WlwO8D0LF4yTtaTSqVguBjFdB5AADALrDe7zQ4aCeldpGkVZRCv4rD4WAJVmwcm1BkG2s4rCCxKMRNPJzVIb4oCB1T3tEYGxubOXMmEXV1dfGQBuN5ODKncoq6z14+ztVcjYaj7lqfCSspmr3p6pKGmcFsyaS0p3+Gfs87Ek/JGnMD14L5s7Qa/jjkjOzo6VSY0ijW+wAAYBdY7wNgC8lkslAokCNP5LFjx4hIrPqBPcDvdwj8HFpJy2M8R44d0f+7uTM/mZrP0BMFDnLQc/hwgFA+r2+cCQCfY7a4xmcLVX27q6J48NbU1JQQfITTJ6I5c+aQQ+dpIhV5hzjBjgyb4XujplvEJS7HTL+sasqx6cWTve/o2pf5STl2vErriBwfGTPzz1RWFsysWT7n4gUAdB4AALAL+H0AOhzz191isVgsFnt6ekKxB4QOdJ4OwdxFYmbscYuDUGlDzOzNxrFESiSowM+qfK1QThGq5lz1AK7ebmzatMmM3y86RI1UqpJMKZ/PUzPi90tF1nlkgfdbxbwPO/e5aVxEoVJDkTBm/uSEmWrH6Gwqoibd3UosVfsiWf9kkikOB8J5WwAAAIIC630AOhaxfjfTcHr1BJYAv98huOU10R8kfY/40TubUQo+ffKhHhLtQzWBPTXNE0VC8emVoBtD3il7Kz+mhsI9Si45mj07+xlmBLz5BOSY8qmPPmM28TysDrE06qMXBQB0HgAAsAv4fQAAsAvoPB1CWmUCuWDZ4Z3PzaWTIxAuvOyws/Mrz88VhWIpNnT5IWeTGCuGa00vPTsgChd/6pAom8/FoTy9ViPCmH18lJ+aVJ1mSUmdASsd6VOGc++MOJvSpwyb/fMHnyGieCyRmHeFs7747g9EITHvCtGHg9F8cjX7nPZlkkgQ3+Hitk8k9Hs+88MBLvt8HJzdyO1T4CYBhSmNwu93FBcsO2xWCqfPDv3Cyw5fsOywcP3iVs78cEBEnl2w7PCFl8mvDW4Sn7KLP3WI3T0A/ri6eCLSvgk4w5pw+sV3fyBOTIzN/WRi3hXs+lsE3+Hs0LmG/xy6XPp0synSHwf4/c6Bnf7Gr59LRLf/7e+4aedzc0UlEWUuIyLacM+5m275LRFlfjhw+zfOkU3L5PA7vqo3XfwpIqJN956z4SY5rbMMAMNO/xNXbSGiHz+5ztkqKjUymSuL7/7g4uH71J+fJKKLh+97aeTLouaSld96YesXm2gk+/Hbv3FO5nL5kclcdvLH4XIiotu/cY74KJlNzo8Ad4sE8PsdQldX6ec7ZhPRR5fIs36cT8MVp5/JcOWGe87NLKPKrexo2vj1czOXuTdtuveciz9FvT0lcohL5uFc7U+kQ3TaGbGoZ+/vvDXSpwxnMpVHgaxj+e9w+hlnZSZzBadrFlTyMHM9n6vuG7ImSMTLvELiO5xxvefFd4PPx0E8Lvf2yKsn1NnrExPqgcYQQs1IoSDB77oWIe5XTYt0NrHubzb98uVZrTQNdD7Zd0ay74wMKYioy5CDxM2myUHNRTj9V56fK2xwXaQLM1gaNZt+9sKc1lkYAPD7tsBO31zjsNPfcM+5rk2/fHnWTbd9qPU2AosQbvdSh+zDTt9VC2oifKv7O31+StaafvbCnK/d/RcttbDVQOfpEI6f8DtpiJ9MvZw+EXk5fSIynf6pC6eIqKtLPmibZ7i3CWaMTU3yToPDARHFlcYhRBhN7ieiS6/akskM883m4vTjHstTQ96pMp7ngmWHxU9ZJmyGl9MnItPp9/YWiWhgjsw4zbLn/IGcKOw/mBYFTmZuZrsKEvh9WxDLKyISv9nW2vSNjb9umWnACszITg2+2czvhiYidE7nAsip1zvNMJ8GfD4p0QI6j13c8dXfarH81TR9Y+Ov+ediAOrGGd/pFev54yfXeTUFye1/+zstYJ/x+aREBaz3O4R0qhKlwOsX8Tvt6Itzzl86pi1qBL98edaHP37Utem1n8780MeOuTYR0ekfmNRaXn1pNhHFw9B5atowVU3S5qaf0mUV7LX55hHL/PyBZ1ILrnTfvXXgmdSCK71uttT8KzOZK501IrS/crZXnM/2mj6eRxwSd/fXfsNnpjM+n5TXf9V35l+Oe1n44Y8f1VrER48Fn7j6WHDGci6EAvx+5+D2w6wM0h99cc5/uUsXJe/b9Fq57P6b7X+7/TUieu2nM9ff+pda09/f+hsRzGConB8koru/9psGXwWIOq4/zArpJn/gmUtWfUtreuHpL3o17dh+c+nws0R00fJ7zQs1K6L/1Zdmi7uXPD4pj37zF6USvf6rvrVf/ojWdPfXfjP64hwiMkadS20sB0HnsYW/v/Ukj3zfpte4fO+drzmbhNMXbL7rVz6TAFArwsu7/qk17dh+c0A2nYx2kz/6zV9w+eH7fuFsiu4qx/Pn79HR0cCNATWzfv16URgeDl8SdWXx4sVhmxB5fvazn4nCzTeH4wqn5bzzzhOFtr0PR0bkT8pta2EAn5TNmzeLAtb7AABgF/D7AABgF9B5AADACqDzAACApcDvAwCAXSB+HwAAOhmWdxis9wEAwC7g9wEAwC5iIpKH85fu2rVLFMxHAwAAAB0A1vsAAGAX8PsAAGAXUufhXVqDg4OisHLlytCMAgAA0DKw3gcAALuA3wcAALvQdR6GBR8AAACdBNb7AABgF/D7AABgF546DwAAgI4E630AALAL+H0AALAL+H0AALAL+H0AALAL+H0AALAL+H0AALAL+H0AALAL+H0AALCLEM5VrynzD5//1ayLtu2EzZrZfHtbN4/Pf6XPResbVdM8PjNX8/a27j8XgHYgBL8PWkSzUulVM8+0fQYHB2v6nvAZBQBoLtB5AADALkJY7/ssAy1f6zWyYHeOFW9jfbNVM4/Zx7VVFEyBpaZR1WD5bQNArUDnaT71fY3V7fS1gXU7wTrmqe9acNMAhAt0HgAAsIvorfdrigbx0SiaFZ3SLFz1kGnxF0/CnafVo3yG45ECAB+i5PdDjAZpwziTEOWdauZp6SgAQCNA5wEAALuIzHq/vmiQmnbruDbVEWcSwJNBO8s71UcTNSsGqd0exQBocyLj9xnXD3kjXqOay7WtHNEslxewTNQscQkAUAfQeQAAwC6it95vHW27qPchyNwM/qOqX7M3S1wCANQH/D5RND1+W4ENXABECOg8AABgF1jvVyU71LeXqnXr2WpmrmbPWn3z1GpJs0YBAJpC9Nb7rm5ocHCwStfcdEkHGpFG9f8XjY9qhAZvJACiS/T8PgAAgEaIlctlIhodHQ3RiCqFkWoWYtUf8+TsWf0Sz2dUTXvEfAyb9rpVYprRYKLQWt+xOs5dqcm2ug9ua9EbDkBUiJK+P+0WKv/Pqs/w+jZneY2ywWXU93/R4P9gs2gTMwAIC+g8AABgF22h84BgwLlmAADCeh8AAGwDfh8AAOwCOg8AANgF1vsAAGAX8PsAAGAX8PsAAGAX8PsAAGAX8PsAAGAXIeRpqGb3ULN2GAV5rShS02uvL7FBs9Ih1JeNp3U3gM+opt+9TIOvq8FRphkgokQpPw8Ii2l97uDgYB1Z2FxHtT+tTtRc62EP9eW/awSbl0qdAXQeAACwC6z3LaX6JaH/eWTcKgqu4kD1o6qhfdaYTbekPkXF551vCj4prCP6xAbg96NNg9p0TbRzauXACOY0rkaOW2gprft2AUECnQcAAOwieuv91sWHVBOhUdNFm34oVbPWzjWt2gJQMxocHswjhc95ba4dqMansbofwrzekGCW5HUodSB0ouT32zM+pIkBFe35Av2pNfikdZYERqv/C2qdX/PybXJmGWhnoPMAAIBdRGa93/T4kJo2s7g21RfKYvapZpTXtcJa/tchtpgvsIk/L7eamgSxUMLb2+1BELQzYfr9+hSS+qJKWkGLQlna5wWaeBng/0qnVcbbmUgb70Uou71A+wCdBwAA7CKE9b5rBIJrtwCMqZIgl0Jtu+xqZFdR9f3blkgbL4jiRw+0gpD1/VZvNWycRkxqw/Cb+miK1hHFtyKUGzKY26bBj14bflRB9UDnAQAAuwhnvR+Vzf31ReY4n6brWBY1Kxtws6jpTfD5UTpaBP9zbpUiTONXoaZ+9KL4nwsiE8fJtC7lbxOfrxsJv2lbdaiJVgWvEtQdwdLIq677v7JtEx1D3ukMoPMAAIBdxMrlMhGNjo6GcvmaQkSaku7GfweW2af6BU7j+kwd16p1YVjHe1jTEq/Wl1P9mxakGY3HIDUiE1UjwlTz/+7fp/qPXvvrsaBWQtZ5akotUp80WY3k4tOn6RumprW/bgfXbrTJrziNmFG3hU3ZkNxSUaWRrD7tfNeBaoDOAwAAdhGyztORVLlMw6IJABAKWO+HA5w+ACAs4PcBAMAuoPMAAIBdYL0PAAB2Ab8PAAB2Ab8PAAB2Ab8PAAB2Ab8PAAB2EUKehvryELRthsJqqO+kKgAAaAXRy8McLZC3FgDQbkDnAQAAu2iLfVuR1nB8gLwDAGhDoPNURYNp7uHuAQDtA3QeAACwi8is980Vt4+KUtNpRCYNLs8bP62pmpm9qOkU2aa/P60+sRYA0DiR8fvVYDqd1h3CHjB1H9E+bYdmvT+IXAIgKkDnAQAAu+iE9f6uXbt8FpuiyVUd8lm0aqPqXv57GVb3Qdv1HURe/SttxSgAQFvRIev9Xbt2Od3NLoX/kGnnaR1BqiL1vdJw3x8AQOvoEL8PAACgSjpB56mPAFbcrktjL6nEfx5tVJXX8h9SN+a1GrQQABAkWO8HTX1SybSjQg+naX8LAQAC+H0AALCLjtJ5alpH1xdRE65YUZ9w1HSbfd6NZklbAIDWYe96PwDZwfUSg4ODASseTdzzFbzxAICmY6/fBwAAO+konacaqok8cXZu3SXq24Hlf906zNDG1md8fRYCAELBOr9PyvvUd9xjsy7RdA/otc3K3wyfqZpuPJw+AG0CdB4AALCLtjhvCwAAQGBgvQ8AAHYBvw8AAHYBvw8AAHYBvw8AAHYBvw8AAHYBvw8AAHYBvw8AAHbx/wH7pQyFAwINewAAAABJRU5ErkJggg==;" vertex="1" parent="XSjLxf4Ph_vKjmcvZ095-138">
          <mxGeometry y="25.999999999999545" width="509" height="340" as="geometry" />
        </mxCell>
        <mxCell id="XSjLxf4Ph_vKjmcvZ095-140" value="" style="whiteSpace=wrap;html=1;strokeColor=#97D077;strokeWidth=4;fillColor=none;movable=1;resizable=1;rotatable=1;deletable=1;editable=1;locked=0;connectable=1;" vertex="1" parent="XSjLxf4Ph_vKjmcvZ095-138">
          <mxGeometry x="421" y="95" width="50" height="50" as="geometry" />
        </mxCell>
        <mxCell id="XSjLxf4Ph_vKjmcvZ095-159" value="" style="whiteSpace=wrap;html=1;strokeColor=#99FFFF;strokeWidth=4;fillColor=none;movable=1;resizable=1;rotatable=1;deletable=1;editable=1;locked=0;connectable=1;" vertex="1" parent="XSjLxf4Ph_vKjmcvZ095-138">
          <mxGeometry x="151" y="202.00000000000045" width="50" height="50" as="geometry" />
        </mxCell>
        <mxCell id="XSjLxf4Ph_vKjmcvZ095-185" value="Distillation tower" style="swimlane;whiteSpace=wrap;html=1;strokeColor=#6c8ebf;labelBackgroundColor=none;labelBorderColor=none;fillStyle=auto;strokeWidth=1;fontSize=16;fillColor=#dae8fc;fontStyle=1;container=0;fontColor=#000000;" vertex="1" parent="XSjLxf4Ph_vKjmcvZ095-139">
          <mxGeometry x="930" y="112" width="260" height="120" as="geometry" />
        </mxCell>
        <mxCell id="XSjLxf4Ph_vKjmcvZ095-186" value="Distillation tower" style="swimlane;whiteSpace=wrap;html=1;strokeColor=#6c8ebf;labelBackgroundColor=none;labelBorderColor=none;fillStyle=auto;strokeWidth=1;fontSize=16;fillColor=#dae8fc;fontStyle=1;container=0;fontColor=#000000;" vertex="1" parent="XSjLxf4Ph_vKjmcvZ095-139">
          <mxGeometry x="1030" y="280" width="260" height="120" as="geometry" />
        </mxCell>
        <mxCell id="XSjLxf4Ph_vKjmcvZ095-187" value="Distillation tower" style="swimlane;whiteSpace=wrap;html=1;strokeColor=#6c8ebf;labelBackgroundColor=none;labelBorderColor=none;fillStyle=auto;strokeWidth=1;fontSize=16;fillColor=#dae8fc;fontStyle=1;container=0;fontColor=#000000;" vertex="1" parent="XSjLxf4Ph_vKjmcvZ095-139">
          <mxGeometry x="730" y="500" width="260" height="120" as="geometry" />
        </mxCell>
        <mxCell id="XSjLxf4Ph_vKjmcvZ095-188" value="Distillation tower" style="swimlane;whiteSpace=wrap;html=1;strokeColor=#6c8ebf;labelBackgroundColor=none;labelBorderColor=none;fillStyle=auto;strokeWidth=1;fontSize=16;fillColor=#dae8fc;fontStyle=1;container=0;fontColor=#000000;" vertex="1" parent="XSjLxf4Ph_vKjmcvZ095-139">
          <mxGeometry x="1030" y="590" width="260" height="120" as="geometry" />
        </mxCell>
        <mxCell id="XSjLxf4Ph_vKjmcvZ095-141" value="" style="edgeStyle=none;orthogonalLoop=1;jettySize=auto;html=1;rounded=1;shadow=0;strokeColor=#82b366;strokeWidth=2;fillColor=#d5e8d4;shape=flexArrow;labelBorderColor=#000000;fontSize=16;fontColor=#000000;labelBackgroundColor=#FFFFFF;fillStyle=solid;exitX=1;exitY=0.5;exitDx=0;exitDy=0;movable=1;resizable=1;rotatable=1;deletable=1;editable=1;locked=0;connectable=1;entryX=0;entryY=0.5;entryDx=0;entryDy=0;" edge="1" parent="1" source="XSjLxf4Ph_vKjmcvZ095-140" target="XSjLxf4Ph_vKjmcvZ095-136">
          <mxGeometry width="80" relative="1" as="geometry">
            <mxPoint x="550" y="-250" as="sourcePoint" />
            <mxPoint x="710" y="-250" as="targetPoint" />
          </mxGeometry>
        </mxCell>
        <mxCell id="XSjLxf4Ph_vKjmcvZ095-156" value="" style="edgeStyle=none;orthogonalLoop=1;jettySize=auto;html=1;rounded=1;shadow=0;strokeColor=#82b366;strokeWidth=2;fillColor=#d5e8d4;shape=flexArrow;labelBorderColor=#000000;fontSize=16;fontColor=#000000;labelBackgroundColor=#FFFFFF;fillStyle=solid;exitX=0.75;exitY=1;exitDx=0;exitDy=0;movable=1;resizable=1;rotatable=1;deletable=1;editable=1;locked=0;connectable=1;entryX=0.5;entryY=0;entryDx=0;entryDy=0;" edge="1" parent="1" source="XSjLxf4Ph_vKjmcvZ095-122" target="XSjLxf4Ph_vKjmcvZ095-25">
          <mxGeometry width="80" relative="1" as="geometry">
            <mxPoint x="3070" y="40" as="sourcePoint" />
            <mxPoint x="3230" y="40" as="targetPoint" />
          </mxGeometry>
        </mxCell>
        <mxCell id="XSjLxf4Ph_vKjmcvZ095-157" value="Input" style="whiteSpace=wrap;html=1;strokeColor=#6c8ebf;strokeWidth=4;fillColor=#dae8fc;fontSize=16;labelBackgroundColor=none;labelBorderColor=none;fillStyle=solid;movable=1;resizable=1;rotatable=1;deletable=1;editable=1;locked=0;connectable=1;fontColor=#000000;" vertex="1" parent="1">
          <mxGeometry x="-880" y="-421" width="200" height="40" as="geometry" />
        </mxCell>
        <mxCell id="XSjLxf4Ph_vKjmcvZ095-158" value="" style="edgeStyle=none;orthogonalLoop=1;jettySize=auto;html=1;rounded=1;shadow=0;strokeColor=#6C8EBF;strokeWidth=2;fillColor=#DAE8FC;shape=flexArrow;labelBorderColor=#000000;fontSize=16;fontColor=#000000;labelBackgroundColor=#FFFFFF;fillStyle=solid;exitX=1;exitY=0.5;exitDx=0;exitDy=0;movable=1;resizable=1;rotatable=1;deletable=1;editable=1;locked=0;connectable=1;spacing=2;entryX=0;entryY=0.5;entryDx=0;entryDy=0;" edge="1" parent="1" source="XSjLxf4Ph_vKjmcvZ095-157" target="XSjLxf4Ph_vKjmcvZ095-159">
          <mxGeometry width="80" relative="1" as="geometry">
            <mxPoint x="-320" y="-230" as="sourcePoint" />
            <mxPoint x="-160" y="-230" as="targetPoint" />
          </mxGeometry>
        </mxCell>
        <mxCell id="XSjLxf4Ph_vKjmcvZ095-160" value="" style="edgeStyle=none;orthogonalLoop=1;jettySize=auto;html=1;rounded=1;shadow=0;strokeColor=#82b366;strokeWidth=2;fillColor=#d5e8d4;shape=flexArrow;labelBorderColor=#000000;fontSize=16;fontColor=#000000;labelBackgroundColor=#FFFFFF;fillStyle=solid;exitX=0.5;exitY=1;exitDx=0;exitDy=0;movable=1;resizable=1;rotatable=1;deletable=1;editable=1;locked=0;connectable=1;entryX=0.5;entryY=0;entryDx=0;entryDy=0;" edge="1" parent="1" source="XSjLxf4Ph_vKjmcvZ095-136" target="XSjLxf4Ph_vKjmcvZ095-80">
          <mxGeometry width="80" relative="1" as="geometry">
            <mxPoint x="710" y="350" as="sourcePoint" />
            <mxPoint x="650" y="430" as="targetPoint" />
          </mxGeometry>
        </mxCell>
        <mxCell id="XSjLxf4Ph_vKjmcvZ095-162" value="Propene" style="edgeLabel;html=1;align=center;verticalAlign=middle;resizable=0;points=[];" vertex="1" connectable="0" parent="XSjLxf4Ph_vKjmcvZ095-160">
          <mxGeometry x="0.1563" y="1" relative="1" as="geometry">
            <mxPoint y="-1" as="offset" />
          </mxGeometry>
        </mxCell>
        <mxCell id="XSjLxf4Ph_vKjmcvZ095-167" value="&lt;span style=&quot;font-size: 45px;&quot;&gt;Acetone&lt;/span&gt;" style="swimlane;whiteSpace=wrap;html=1;labelBorderColor=none;strokeWidth=5;fontSize=16;startSize=80;fillStyle=solid;fillColor=#ffffff;fontColor=#000000;" vertex="1" parent="1">
          <mxGeometry x="-1080" y="150" width="1760" height="1380" as="geometry" />
        </mxCell>
        <mxCell id="XSjLxf4Ph_vKjmcvZ095-33" value="LCR" style="swimlane;whiteSpace=wrap;html=1;strokeColor=default;labelBackgroundColor=none;labelBorderColor=none;fillStyle=auto;strokeWidth=1;fontSize=16;fontColor=#F7F7F7;fillColor=#707070;fontStyle=1;movable=1;resizable=1;rotatable=1;deletable=1;editable=1;locked=0;connectable=1;" vertex="1" parent="XSjLxf4Ph_vKjmcvZ095-167">
          <mxGeometry x="491" y="220" width="510" height="360" as="geometry" />
        </mxCell>
        <mxCell id="XSjLxf4Ph_vKjmcvZ095-32" value="" style="shape=image;verticalLabelPosition=bottom;labelBackgroundColor=default;verticalAlign=top;aspect=fixed;imageAspect=0;image=data:image/png,iVBORw0KGgoAAAANSUhEUgAAAf4AAAFTCAIAAABXj/lCAAAACXBIWXMAABJ0AAASdAHeZh94AAAgAElEQVR4nO3dfawdZZ3A8eecc18L6NpVtsXQBjYBF5NNNrtJuadmg3IttFKV9hYtL250U3zZaCzUlxBRkVKUWK+bjWKLaBZsq1gQYd1CqVqN3Csbs/uXZvljMRa0WlZwgfa+39k/npnfmTvPmblz5syc88x5vp/cpE/nmZfnnjPnd5/5nWeeqXiepwKTk5O6UK/XFQCg50xMTCilKuHQX6lUdCG8EADQM3Scr3a7GQCATiP0A4BzKp7nkecBAEfo73Tp9QOAcwj9AOCcvpTrybhPAEB5jY+PK3r9AOAgQj8AOGeZhA95HgDoPfT6AcA5hH4AcE7aET7F2blzZ7eb0NzY2JguHD58uLstiVOiFq5fv767LekBfFIyK1ELO/ZJodcPAM4h9AOAc7qf8BFyyWOJXbt26YJcJNLCVkkLGSqWI2vfZfvPQ/tb2LFPCr1+AHCORb3+mzY/oJT60qPXhJfIf3VtWHhNAEB6FoV+LRzuwwuVUls/+Xr99Xf4z8CTTz6pC+Y349mqAKDn2ZXw0UHf7OArpbZ+8vXh1ejyA0BmdoV+lRj9AQC5sC70K6I/ABTMxtCv+AoXAIpkaehXRH8AKIx1I3xUaPjNTZv98k2bo1UPfv634S9+w1UJO0yoOnHihC5s3749W7MBoCxsDP2mrZ98/YOf/223WwEAPcLehE+ySJcfAJCeRb1+M7n/z09s/PvLlVJqYKD/7p/8rVKqWqvpqis2V3ShWvELlWpQqCxf8DxPFxbmF3Tha/9yIr9fBQCsVtZePwAgM0I/ADjHooSPaWBgQBcGh/zCI987qguSutl6zdsiS6QguaCpqWl/j/4CNbxiSBfmZueKaDkA2IxePwA4h9APAM6xOuFTq/l/mWZn/LTM2Luu0oVq1a966Ls/CKo2B1V+Wufwd/5NF67Z/g5dCDJA6jsHH9GFq8c2FtJ0ALAYvX4AcA6hHwCcY3XCRzUG7fgLqsZ9WzJqx6xqDPWpRlc21wEAd9DrBwDnEPoBwDlWJ3wkGzN8ln8H1oMP/Huk6prtmyNLqhX/79m7rvUH9jxw6BHZpf7n3df5VbPc0gXAPfT6AcA5hH4AcI7lCR+/8L3DR3Rh27vlvi3/j9bUGX9+nrPOXhFs5v97Jqh693XvDHbo1x068LAubB3bVEDDAcBq9PoBwDmEfgBwjtUJn1Qq0VLFuBHMXDu0Ebd0AXAOvX4AcA6hHwCcY3XCJ3h2urp6qz+1sszDLFkdGfPjeYu6sLjoVw0N+TeCnT59JrKVTOM8P8ctXQCcQ68fAJxD6AcA51id8JkLsjHygPWr3jHqLwlu6ZqdndWFZnM1++vUarVI1Vyw1dz8QjFtBwB70esHAOcQ+gHAOTYmfE6cOKEL39x3It89e8GYIR7OBcBl9PoBwDmEfgBwjo0Jn+3bt0eWHDp0qGNVANDz6PUDgHMI/QDgHEI/ADiH0A8AziH0A4BzKp7nyf1NcseTmJycLLoFTz75pC7s2rWr6GNl88UvflEXaGFmHTiRcjcyMqILljSeT0r77G9hB0628fFxRa8fABxE6AcA53Q/4bNz586iD5HN2NiYLhw+fLi7LYlTohauX7++uy3JQBI+oruZHz4pmZWohR34pJDwAQBHEfoBwDkWzeEjlzyWkDEAcpFIC1slLcwrVWImYTrJkjE/1r7L9p+H9rewY6cWvX4AcA6hHwCcY1HCBygLSzI/QGb0+gHAOYR+AHAOCR8gOzI/KCl6/QDgHEI/ADiHhA/K5IMf/GDHjnX33XenX5nMD8qFXj8AOIfQDwDOIeGDMmkpCdMVZH5QCvT6AcA5hH4AcA6hHyjEyMjIyMjIY0eOdLshQBOEfgBwDqEfAJzDCB+gEPrus/e85z3dbgjQBL1+AHAOoR8AnEPCB2Vi7Rw+QlpIqgc2o9cPAM4h9AOAc0j4oEysncOHPA/KhV4/ADiH0A8AziHhA2RHngclRa8fAJxD6AcA55DwAVpGngdlR68fAJxD6AcA55DwQZl0dw4f8jzoGfT6AcA5hH4AcA4JH5RJVzIt5HnQe+j1A4BzCP0A4BwSPkBz5HnQw+j1A4BzCP0A4BwSPkBz5HnQw+j1A4BzCP0A4BxCPwA4h9APAM4h9AOAc7o/wmdsbEwXdu3a1d2WxKGFsIH97zItLBF6/QDgHEI/ADin4nlepVLR//E8L1I9OTlZdAvq9XrRh8hm3bp1uvDUU091tyVxStTC8fHx7rakB/BJyaxELezAJ0Ufgl4/ADiH0A8Azun+CB/xn49coQvTc4u6MDvjJ6AWlV+QjNTiol+qVf1s1eCA/2esr89fshCsMzOzGDlWNchxDQ35W71uZb8unLXCf03uO/4mXZCLxFWrVmX5xQojwxWkhd//fk0X5ub8X3B2VrJ5Kij4SxaDV6Xmb6T6+/1FfcF5IevIfkTwEqrBQX/XK1f6a69Y4S/5yU/GWvydsLz3jazRhcXgTV0I3tNGxjaokiWS161V/GXBR6dxbsx7xrsc7KAv6CUOB5+vvmD786+KnoeStZidnfX3PD8f2fNicG5JnrlalY+wf/7VglNTVjb3I79Xf7//EX7Vq16lC4ODg7rw/PPPR1ooCRZLyGe5Y+j1A4BzCP0A4ByLEj7/+6c5XegPriiDhE0ot9Dvl6o1/4/WdJDMmZ6V3IT/rySFPGM/co05EySX/u/l6IWkKWEoVJvMPcuSlvzpT/4Fcn9/kCtbrAQ79IIq/1eWPM/MjGSHqkFBBZuroGHS1OgSyQW9/DI9iU6YWTBOEuPtqVUiC9R8sMpC8J4uBDsMnc3RE1v+P7sgBS9Seb7RwpdfftlvhpGxkayO5Gfkt5BkztzcXKSQ5hMnm09NTUWqhoeHl93cNXxWAcA5hH4AcI5FCR8ZmVNt5DqioxRm5xtjEfwq40JQNu4PkkLDw35hIbhWHQgSR6fPRAf/JFxZ5p7nSdhztmP19UkqwF9SrUZfqPl5ub6WY8WO3pEdDg0Fg0mCC/+BAX/JmTPRDkRhrxOUCmVIZPiNZ6QHF+Rz0EjPmB+V4BMXLOgzzhb5MM4tmm9qbE5S8jzSVMnzNFooZ1JAkkKhBkY3HxgYiKwsw4FmZmYimxf3ge0B9PoBwDmEfgBwjkUJn/5gUMJckJaZD7I6tZoMU/FXlktNuSD1jOyQ3Ag2PS3XhrF5nsVM14bFjfnJRgbtyMW0pHekSob6NF7MipluihZkFFCtRp6ny6rBib2ooqdfIwVjpIAa56qxQ1kyH3ws5G4vM8/jxed5Gi0M8jOSlpH0TkIKyFxikjE/sjJ5nmzo9QOAcwj9AOAcixI+jdE7AcnPyBWmzNgzH1yHzgXXqOYtUNVg5dngJpaZuWDPQQZJZv4ZCApnjFxQgjSXli0lhdrMIEl6Ry7im4358QtmUqjZa+gXguvsxg1cMs+P3CMmY36mpuhSFCiUg4m9AdBMCiWkNGVjOfVDd1PGzvwz32TMT1AVjB5rbC4JRzmocaqbY34SVhbmzD9SkBmEYOIjCgDOIfQDgHMsSviIxqwj89FkhVxiylXnn53j/wpTwTAe88K2Wosd23B6yr/GPDPtL2kp0ZImP9NS6sZcOdv0PqHXMJrMkRyO3O11zjlBQmxGjhXdoWxlVkl6ZzrTa4js4k+/RtYyeN8HgoyLDOMxx+oknFjzjT228O7KuWomc8yhPjLTTktT9whJ75h5HpkvCIJePwA4h9APAM6xKOFTCy4AFxujUyqRqgVjHmbJ2Mi9XYODkpvw/52bi2519lnRgT3DwVbPvxiMZUmhAzePtDS9jzljj4zwkYyNTOMsU/dIokaSQjJWx5z5R5x1lp8CkItpeVzXiy/SpSiQeXNWk1l9jOTN3GJ0nT7jVr7GfMzB5v3BO1lrJAz90owxJE+YN2eZs/qYT+mSRI2sI2N1Gi0MEkey1dDQkN/U4ESUwksvvRTXQvARBQDnEPoBwDkWJXxWBFMry6PSXznjX9zNzUaH+kgu6Kxh/0JSMj/mQ9gbM9IES146HaSJTvsrv+rs4IK0rV+iExISPjK1shTOnAlmRpqToT4yM5K/1fCw/yLIWB3zIeySHZKDv/JKNdihv0RSQCiUTK0cfAjUnDx4yxyaZTxXXcbqmA9hb5AkTCNNFKSAUuQ4ZWpleTC6PDnLnMxHckGyskzLYz6EXU5+KUwH+UoprFixInIImOj1A4BzCP0A4ByLEj5yHSk3Zw0EF7RDwTiDc4K0jEzj/KeX/EvCamOQg0+u9voHg+xQkEqSzSXzI091lye/d1fCDVxpLmOnp4PL8+D6XApnnx1N+Lz0UjQXJK9iaMyP//pIKklmbz59OpomkgFCKJQMsZGTX2517A/eXBkdN23cIBka4BO8p5JQlSm+gyrJKS0aB00gqRsZqyO5IBmZI8OBzpw5E7cfc8yPZIdkc8kpyUghGeqTMDuQs+j1A4BzCP0A4ByLEj4yRGfBGKYgo0oS7rcyrz5lFNDCtL+9DP6RA/QH68h8QTISpiXZxhIkjNXJtsOpKZkyxRyi4xdefDF282avobx0ktUx7xpTwUH9gnn/F3I017gpr/HM9cg60/EZjtB7E00qSgZp3tjcnAW6En/2SsolIdOScL+VefLLKCCZ3scc/CPryEGlwBw+Jnr9AOAcQj8AOMeihI95+SjP5JKpe0IzD5vjXqL7kUL0yVWhJXPy5HdjmqCWWPIkaM+4Scd8ULs5e7OQET6hG7iiQ30ar2pjXujoDmWaIBQizczeUmVunvRRiX3jGnme+GmCGisvRm/uMx/U3ph3yHzEmLGyuZXJvFnMbAYEvX4AcA6hHwCcY1HCxxzYM2/OSBK/ssm8rjWrJHE0H6y0GJ/wyX1KkIT7trJlkMzxFMY4iKSVzfRAs9cw9rFfskOuswtlnhlJD4lrsij+1Erx6PbQoKIWnkyXkHsxV04YF9TSoDhL0rB2otcPAM4h9AOAcyxK+MgdWG/efuzHh0bV0nEHb95+LLyyXkGv85Zrm1ctLHij1/8wXPXE/Zfrwuj1P9RlSRzJxaJM72OS68eTJ0+uXr06Unvy5Mnwf8MrpK8677zzZLmUI0dPIHdgXXvt7MGDA2rJEB3v2muXPK5ar6DXue66maZV1147e//9g02PJc0xxw7J9D4ogmQ27v/5b264dK1SSz4q9//8N+GV/RWUUp53/1MnmlZ5nvetpVXXr1ujC9966oQum+9oQv5T7q665ZZb9uzZo0IJn2q1esstt4RX1ivodT71qU81rVpYWLj11lvDVbfffrsu3HrrrbpsfkCkGTBZ1+uPhPjwwh8fGv3RwdEfHRwNr6bj/o8Ojh4/NHr80JIqHfePfevyJ+6/XAf6t97wQ3PnrYoE6/DC1YHwammqzjvvPB3of/e737XfwkiIDy88eHDgwIHBAwcGw6vpuH/gwOChQwOHDg3E7QFWiYT48MIbLl17w7o1N6xbE15Nx/0b1q254dK1OuhLlY77169bo39kSZsiIT68cM+ePbt37969e3d4NR33d+/evWfPHh30pUrH/dsDsgSZ2RX6JWrftm/+tn1LvqD88aHR2/bNf27//Of2z8s6uvCjg6Of2z//2X3zn90XrTr2rct3f33hjnsX7rjX75pKIVJOSaL2xRdffPHFF4erVq9efXFA1klZddFFF1100UV6iRQi5ZQkau/fX9+/vx6uOnhwYP/++j33jNxzz4isowsHDgzec8/Ivn31ffvqkSql1L33jrTaDBRKovazQxc8O3RBuOqGS9c+O3TBs8MXPjt8oazjV61b8+zwheFNpHD9ujXPDV+of/QSKUTKKUnUPnr06NGjR8NVe/bsOXr06LFjx44dOybr6MLu3buPHTsW3kQKt99++w8DeokUImWkYVHoHxqoTj64YfLBDbJkcdHTPyoUzY8fPy4r6IXyx8Cs2v31BbNKR/zhoapSqr+von9qNf8nuZHSczdJNA8fSy9stUpHfH0B6wWSG6YNDHiHD/cfPtyYsWRx0f9RoWgePpZeKH8MzCo92/OrX72gf845Z1H/DA15+qe/3/+p1fyfNE1FZn0V770ja947skaWeMGPCkXz8FupF8ofA7PquWZVeqH+TFQMSS3s67vrrrvuuuuuRgtDp7FE8/Cx9EL5Y2BWSXAPV+mFeiLomiGhhbAo9Keh33VJ2ZtVP/32W+OqfvHIFUU2bcmxImn6cFXTvxwJVbnTx7rvviYZfF317W8PdKAZKJR+KyVlb1a959LYqvfV15pVudPHkpS9WXXnnXfGVe3du7fIpjmhTKFf4r6ZqJG4/+mvRaf2lLi/60szqmAS981EjQT3SJoouaqgFt533+A3vhHN4Ujc/9rX6sZ2KBOJ+2aiRuL+iaHmVe+rr31m4AJVMIn7ZqJG4v7jjz/etGrv3r2PPvpo0S3seRaN8JFJm0U4ySFXeXFxXykVF/eVUmbcP3/1kFJzQ4P+H7/pYD7nlqbwCV/2yrHi4r4KpXfSVGkJt32Z5Lnqoc2bHCsu7iulzLivEzgyD7M87eu1r/XfiFOn/CtreUoXc/gUai7xjjl5K+PivlIqLu4rpcy4f/ZARSnVF8zv1HiYe3wSUh7OldzCuLivlIqL+0opM+6vXLlShWZmlomdmcMngUWhf1mXXXaZLnz6xmizpeoz74+tuvMjhecx5FhPP/10LlW5k2Pt2DEZV3XjjRNFNwOFkrfy/KlnYqumfx1XdcFMdKvcybFGR0fjqjZs2BBXtWnTpsKa5ooyJXy0T9/YFxnILz7z/r6mY0OVUnd+ZGBky9GmVbl7+umnmw4AzVyVux07JiMD+cWNN04wsrM3nD/1zP0xYzTPn/5107GhSqkLZp755mQOIzvTGB0djQzkFxs2bGg6NlQptWnTpo9//ONFtssJFvX6+2qVy7ZHv9/XX9v+7LtvfdO2J8Lf7Iv/evTKv9n8WNOqXzxyxd+9/fGmVUqptW96NFIz+dAGpdTcbFLGR6Kz7FZ/N7t69eqTJ082PVa2KtXsBoJlvwfu6/O2b5+NtFB/bfvAAwPXXDPb9FiPPNL39rfPxzVj27a5bduWLNFj/8+cqcpBdUGexj4X+yw15KASum9L3jX9te0/XLrmX39+oulb+Y/1tfdO/KZp1fvqa78RU6WU+spPo38k9OCihJHRtVpNArfsVn9t+4UvfOETn/hE02N9+ctf/uhHP9q0au/evTfffHNcC3fs2LFjx47wEj24iKexJ6h4nmdO9i0mJ6NpgdzV635y+ccHL1dKfXZfdL6xz32gv1pTSqlPfSUaUcZvHtKFnXunI1V3fmRAP3zRzPLf9v5+/Rub3w3ow+nCfzznjwj62Mc+pgurVq1SzZLykqjpQFW49uabb4608ODBfqWUjM0XH/jAhJ5k7atfjVbddNPPdOFLX3pTpOrDH35Sh/Xx8WiV3qcuSOiXLyPkIZfPPeffjbl+/XpzD2iJfFL0uJ3IcH6l1JrpZ/Tr/hsjlf+Xs35653+MVP4FM8/oCGBm+ddM/1oPGTW/G9CH04W/HvuILsh5eMcdd6jQIE5xxRVX6Ln4jxw5Eql65zvfqQsPP/xwpGrTpk16pKaZ5d+wYYNuvPndgD6cLsjXANLCdevWmet30djYmC504JMyPj6uypXw2f1PSx6wKXE/UlZL0/pfvGnJKMbb3l/gUzojyfrwf7NV5e5DH1qSx5e4HykrpT784SeLawYKtXZ6SbJe4n6krJam9S9cWrXG+DIgRxs3bgz/V+J+pKyWpvU3b94crjK/DEB63e/179y5Uxfk755tDh8+rAu0MDN6/e3jk9I++1tIrx8AUBRCPwA4p/sJH/nyyjbyRdBTTz3V3ZbEKVEL9TWmhUZGtsdVTU4e6mRLlsUnJbMStbADnxQSPgDgKEI/ADjHolu6/urKq4OiMUmI+UzoSnTRYqVm1ATjzRuJrPgHSVfkr6C//dhboheJ1o4Ftr+FHdBS6iZhZXOdljbvQJrI2nfZ/vPQ/hZ2DL1+AHAOoR8AnGNRwkfSMo2kjDlNcSU2dVP1/Pk6KsG0y16weSXFI64qHtN99Kw06Z3iNgcsRK8fAJxD6AcA51iU8AmNsTHr4jM2Rk7IMxYt1PojK3vB37zqYpAmaiR8eMKUQxIG5JDnQQ+j1w8AziH0A4BzLEr4LAYJn6qZe5F/zcxPfCpIMj+S1QnfEpZiCcpEUjd53W9l251cQI7o9QOAcwj9AOAcixI+tcXoU3k9c/ROK3dphTYz5gKCS/LKxpDVQc+g1w8AziH0A4BzLEr4eOaMPQEzvdNYOcUInYosalSZO0zZTFiKO7CA9Oj1A4BzCP0A4ByLEj5NUjdS05jeJ7qSVwuqPGOu5sbKi5GtvWo1WBA9WJXZm0ulzdusiksTMRwINqPXDwDOIfQDgHNsSvhUjFLjVizzBq7gkesyP0+wSjXFJDyyVbNhRYz1AdDj6PUDgHMI/QDgHJsSPqZMqZeEW8NyOwYAlBm9fgBwDqEfAJxjZ8InOuVOpaUnZyU8t6vJzD/G9D5kgEol4eFcsiTh7qpsN17xuC6UHb1+AHAOoR8AnGNRwqe1B28FzPE8CftJ9VR3nspeTmkey96BowOlQK8fAJxD6AcA51iU8GlTtnyRaMzezAifnpNmqE9L+wHKjl4/ADiH0A8AzrEo4eNVKr868lB4ySUbt+hCxfN++dj3llRduSUoVn515MGlW22VslG1JVj+0BuvvDqXZsMSabIx5joJKaCW0jt55ZSAzrCo16/j/iUbt+gfWaKU0nH/jVde3ah67KFgqweVUpds3PqGq655w1XXqFC4lyr9E94hALjMotCvlLpk45Zzp17QP5dddplS6typF3TVG6+8+nXTL+oqveTc6ReCrbaeO/XHVa+cWvXKKb9q6o/hKv0TVL0gh3vd9IuF/0oAYB+LEj6hHI56fug1UtbBWsL08ePHG1XTL6hQoF9SNfXH+KoXVPCo92YPfIdDGLQDN9nV61dKnRpa+fzQa3752PciyX1NR/Cmafplq8LfAQCAyyzq9WuSxFc6yROqkuBuJmqWrdKZn/ybCwAlZFHor6jGMB4dxHXcPzX85yqUsYkL7slV8XE/mudp89YwWMgcddNSnqfNzQELWRT6ZRiPBP3jx4+HszT6i1+19JuASNWpoZXpqwDATRaFfhXK2JjBXehvAppWnRpaGc4XpawCANfYFfrNmK4TNZdcueVXjz0UHqUjLtm45VdHmle94W3v+u8ffKdplTLu9lLBEKMWn+oOW7R0L1WaGZ5zf7YXYA+LQr8enBM31v6SK7fIQH5xanilCu4GiFT9/uxzlafe8LZ3rTr9h0jVH4Zfq+8Li2x1bmifANDDrBvcmSCSrA/H6Ei8/v3Z5zbKZ/1FuOoPw68tpnUAUBrd7/WvW7dOF8ZG13e3JXEaLRwb625L4tjfQmuVKHVj/7tMC0ukTL1+AEAuCP0A4JyK53mVYEyLZ9zNNDk52fEmAQCKMj4+ruj1A4CDCP0A4Jzuj/ABABRN53kEvX4AcA6hHwCcUwmP6pGhPhMTE7oQuUYAAPQAev0A4BxCPwA4Z0nCR27gqtfrurBt27YuNAoAUCR6/QDgHEI/ADinecJHSOYHANAz6PUDgHMI/QDgnGUSPgCA3kOvHwCcQ+gHAOcQ+gHAOYR+AHAOoR8AnEPoBwDnEPoBwDmEfgBwTtcey97S7EDy1LC8DmrtDvPas/nyFrefhLcy4aDZtmppPwl7TvPyFvfmAl3XtdCPguQ1416a/Sy7Tr1eb+lPRcJWAHJEwgcAnNO1Xn9CZ9DxHl873fbwtvplzLa3NPsx12laqwtmpqWlrdJw/LQBWkLCpyjZ/pJljvuRDTPHwQz7yXYsIjXQRSR8AMA5Ze31tzQ+JCFZkdd4lbw0TYwsKzmL0t39FL1VwuZcWABxyhf6uzg+xMKRJ13M86TZT6FbAciMhA8AOKdkvf5s40NaupGnaVWGkScduD6wOc+TfnxRXqOSbLsgA2xWstAvmn7O2wkcaQ5nbV4ir6jX4XxRXlkmAK0i4QMAzilrr7841nbtE3Ry8obkrdL33PPKMgHIgNDfUMagbxXu7QLKgoQPADiHXr8vTf4h221WxfVq0+w5ze1s2fbTakvy2gpA+8ra628aier1esronHtuh2RRRPr3ov2t2tHmiQSUVFlDPwAgs4rnefKfycnJLjYlZYYkTXcs/cOhwmum7+glbNXS7WMJDVv2uCmZzWhzStFWX7EMj2ppqW2ZH/dW0AsOlEL5cv3L3l2V/HFN2DzbfVtxW7kQNbK9F22+g3mxpBlAV5DwAQDnWJTwQWfwNDQA9PoBwDmEfgBwDgkfAHAOvX4AcA6hHwCcQ+gHAOcQ+gHAOYR+AHBO1yZySHNjUV43H3XyWCWSbQ6DvGY+yDb3TnFvZcJWuZ+HooiJlZZdx81JRxBRvjl80L5lw269Xs8w7VrTrexX9PzM9s//7GC/ByR8AMA59Pqdk/w8MqnVhaZZgvRbpWFPTzP3ltiZWkmYubqk123IgNDfC7JdsNs8o3LHdCYbY+2LlvAFAHobCR8AcE5Ze/3FjTNJM9KjpYPm/iirNruQHUhrtLl5Z/rICc9ra7qCavHqqqT96AwpO5RR+UK/neNMsg2JidtVhmPlpaU2lzS6RRR9tpQijGZ7RB3Ki4QPADinZL3+3MeZtHRPTdOqbENizHXSbBV3rNxvNUqzT7Op2fqMXekUt5SFY9g7ek/3Q3+2VEm20SlFKGhIjD2/oGnZLLnNSt34ODnmG+EIEj4A4Jyu9fonJiayDX3pok52ozp5rKb3+MQlzdIkskqh1I3XyvghgiWs6PXX6/XwGWzhhWqkha1um29jCjUxMZEyUpQxoHTlvejMQdv8ELVzhqOMrAj9AIBO6ubXvGWZMyDbWJ3wxXiG/lTuk/dmW7kpS96XlnT+292U2fR6nr4AAAKmSURBVJj2j6Jy/RCV8c1FBt0f4ZNNcbMK53jDVDsDcjpwY1onb0PLXebGt/OqZn5TrB0eSpLHWSR8AMA5Fc/z5D+Tk5NdaURLs7jkMiVO8s1Z5jrpO0ftJ2oyHKvVTmXu0wolbNVOG5ruNkMz2h+V1E6+KE02JvOrkXCU9MnJZTdB77Ei4RNJjCSff9mSm2lyLwnr5H4v1bLtbz8WLLt+7q9hZwJHO81o8+uNNm9XLjS70tKHqOm2cAoJHwBwjhUJn56UsotHhwtA59Hr7ybiPoCuIPQDgHNI+ACAc+j1A4BzCP0A4BxCPwA4h9APAM4h9AOAc7o2kUO2iQqsnQExQV4zH7Q00xEAJLBiDp9elcsk0mn2AwAtIeEDAM6x6JauMiZzEiRPFJx+EmBzPz32QgHoPBI+LchxRtw0kwB3/pmCABxBwgcAnFOyXr/Z704Y95Kmk17cg0fa3Lz9B0sl7DBOS0/myv1VLfrJugBEyUJ/GmYEKe4Z7pklHD33PE9BT1rP8VVlCBPQYSR8AMA5vdPrn5iYWLYr3TRNlNAJjWxVRAc89weIJxwx2zPT078+RWwFoAi9E/pV/NjHIp7h3pK4XRXxAPF85fh89txfVQCZkfABAOf0VK8/gw50QrPNvZNXw8J5sAwXH7m/Puax2mwhgAxcD/2FsuSerGUzLYWOZUrD/hYCPYaEDwA4pwd7/e3PshCnpYkc0gxcMXdYXC6o6Z7jRt0kb9WOhNcwWwsBZOB6r78Duf5SR6scbwer1+sM7wEs4XroBwAH9WDCJ400o0rCK7dzrO52dVMePfI7Znt9Um6VcBdb+hYCaIejoV9lusOoV6NPjndgZbvbK+VuAeSFhA8AOMeip3QBADqDXj8AOIfQDwDOIfQDgHMI/QDgnP8HRBzWan2PbDoAAAAASUVORK5CYII=;" vertex="1" parent="XSjLxf4Ph_vKjmcvZ095-33">
          <mxGeometry y="21" width="510" height="339" as="geometry" />
        </mxCell>
        <mxCell id="XSjLxf4Ph_vKjmcvZ095-70" value="" style="whiteSpace=wrap;html=1;strokeColor=#97D077;strokeWidth=4;fillColor=none;movable=1;resizable=1;rotatable=1;deletable=1;editable=1;locked=0;connectable=1;" vertex="1" parent="XSjLxf4Ph_vKjmcvZ095-33">
          <mxGeometry x="369" y="143" width="50" height="50" as="geometry" />
        </mxCell>
        <mxCell id="XSjLxf4Ph_vKjmcvZ095-72" value="" style="whiteSpace=wrap;html=1;strokeColor=#99FFFF;strokeWidth=4;fillColor=none;movable=1;resizable=1;rotatable=1;deletable=1;editable=1;locked=0;connectable=1;" vertex="1" parent="XSjLxf4Ph_vKjmcvZ095-33">
          <mxGeometry x="99" y="144.00000000000045" width="50" height="50" as="geometry" />
        </mxCell>
        <mxCell id="XSjLxf4Ph_vKjmcvZ095-76" value="" style="whiteSpace=wrap;html=1;strokeColor=#97D077;strokeWidth=4;fillColor=none;movable=1;resizable=1;rotatable=1;deletable=1;editable=1;locked=0;connectable=1;" vertex="1" parent="XSjLxf4Ph_vKjmcvZ095-33">
          <mxGeometry x="45" y="144" width="50" height="50" as="geometry" />
        </mxCell>
        <mxCell id="XSjLxf4Ph_vKjmcvZ095-87" value="" style="whiteSpace=wrap;html=1;strokeColor=#97D077;strokeWidth=4;fillColor=none;movable=1;resizable=1;rotatable=1;deletable=1;editable=1;locked=0;connectable=1;" vertex="1" parent="XSjLxf4Ph_vKjmcvZ095-33">
          <mxGeometry x="152" y="144" width="50" height="50" as="geometry" />
        </mxCell>
        <mxCell id="XSjLxf4Ph_vKjmcvZ095-102" value="" style="whiteSpace=wrap;html=1;strokeColor=#97D077;strokeWidth=4;fillColor=none;movable=1;resizable=1;rotatable=1;deletable=1;editable=1;locked=0;connectable=1;" vertex="1" parent="XSjLxf4Ph_vKjmcvZ095-33">
          <mxGeometry x="315" y="143" width="50" height="50" as="geometry" />
        </mxCell>
        <mxCell id="XSjLxf4Ph_vKjmcvZ095-164" value="" style="whiteSpace=wrap;html=1;strokeColor=#99FFFF;strokeWidth=4;fillColor=none;movable=1;resizable=1;rotatable=1;deletable=1;editable=1;locked=0;connectable=1;" vertex="1" parent="XSjLxf4Ph_vKjmcvZ095-33">
          <mxGeometry x="45" y="198.00000000000045" width="50" height="50" as="geometry" />
        </mxCell>
        <mxCell id="XSjLxf4Ph_vKjmcvZ095-58" value="Phenol" style="whiteSpace=wrap;html=1;strokeColor=#82B366;strokeWidth=4;fillColor=#D5E8D4;fontSize=16;labelBackgroundColor=none;labelBorderColor=none;fillStyle=solid;fontColor=#000000;" vertex="1" parent="XSjLxf4Ph_vKjmcvZ095-167">
          <mxGeometry x="1171" y="155" width="200" height="40" as="geometry" />
        </mxCell>
        <mxCell id="XSjLxf4Ph_vKjmcvZ095-62" value="Acetone" style="whiteSpace=wrap;html=1;strokeColor=#82B366;strokeWidth=4;fillColor=#D5E8D4;fontSize=16;labelBackgroundColor=none;labelBorderColor=none;fillStyle=solid;fontColor=#000000;" vertex="1" parent="XSjLxf4Ph_vKjmcvZ095-167">
          <mxGeometry x="1180" y="413" width="200" height="40" as="geometry" />
        </mxCell>
        <mxCell id="XSjLxf4Ph_vKjmcvZ095-69" value="" style="edgeStyle=none;orthogonalLoop=1;jettySize=auto;html=1;rounded=1;shadow=0;strokeColor=#82b366;strokeWidth=2;fillColor=#d5e8d4;shape=flexArrow;labelBorderColor=#000000;fontSize=16;fontColor=#000000;labelBackgroundColor=#FFFFFF;fillStyle=solid;movable=1;resizable=1;rotatable=1;deletable=1;editable=1;locked=0;connectable=1;entryX=0;entryY=0.5;entryDx=0;entryDy=0;exitX=1;exitY=0.5;exitDx=0;exitDy=0;" edge="1" parent="XSjLxf4Ph_vKjmcvZ095-167" source="XSjLxf4Ph_vKjmcvZ095-70" target="XSjLxf4Ph_vKjmcvZ095-62">
          <mxGeometry width="80" relative="1" as="geometry">
            <mxPoint x="1511" y="725" as="sourcePoint" />
            <mxPoint x="1271" y="725" as="targetPoint" />
          </mxGeometry>
        </mxCell>
        <mxCell id="XSjLxf4Ph_vKjmcvZ095-71" value="Acetone" style="edgeLabel;html=1;align=center;verticalAlign=middle;resizable=0;points=[];" vertex="1" connectable="0" parent="XSjLxf4Ph_vKjmcvZ095-69">
          <mxGeometry x="0.1577" y="1" relative="1" as="geometry">
            <mxPoint as="offset" />
          </mxGeometry>
        </mxCell>
        <mxCell id="XSjLxf4Ph_vKjmcvZ095-74" value="" style="edgeStyle=none;orthogonalLoop=1;jettySize=auto;html=1;rounded=1;shadow=0;strokeColor=#6C8EBF;strokeWidth=2;fillColor=#DAE8FC;shape=flexArrow;labelBorderColor=#000000;fontSize=16;fontColor=#000000;labelBackgroundColor=#FFFFFF;fillStyle=solid;movable=1;resizable=1;rotatable=1;deletable=1;editable=1;locked=0;connectable=1;spacing=2;entryX=0.5;entryY=0;entryDx=0;entryDy=0;exitX=0.5;exitY=1;exitDx=0;exitDy=0;" edge="1" parent="XSjLxf4Ph_vKjmcvZ095-167" source="XSjLxf4Ph_vKjmcvZ095-75" target="XSjLxf4Ph_vKjmcvZ095-72">
          <mxGeometry width="80" relative="1" as="geometry">
            <mxPoint x="615" y="75" as="sourcePoint" />
            <mxPoint x="701" y="45" as="targetPoint" />
          </mxGeometry>
        </mxCell>
        <mxCell id="XSjLxf4Ph_vKjmcvZ095-78" value="Benzene" style="edgeLabel;html=1;align=center;verticalAlign=middle;resizable=0;points=[];" vertex="1" connectable="0" parent="XSjLxf4Ph_vKjmcvZ095-74">
          <mxGeometry x="0.108" y="3" relative="1" as="geometry">
            <mxPoint as="offset" />
          </mxGeometry>
        </mxCell>
        <mxCell id="XSjLxf4Ph_vKjmcvZ095-75" value="Benzene" style="whiteSpace=wrap;html=1;strokeColor=#6c8ebf;strokeWidth=4;fillColor=#dae8fc;fontSize=16;labelBackgroundColor=none;labelBorderColor=none;fillStyle=solid;movable=1;resizable=1;rotatable=1;deletable=1;editable=1;locked=0;connectable=1;fontColor=#000000;" vertex="1" parent="XSjLxf4Ph_vKjmcvZ095-167">
          <mxGeometry x="600" y="115" width="200" height="40" as="geometry" />
        </mxCell>
        <mxCell id="XSjLxf4Ph_vKjmcvZ095-77" value="" style="edgeStyle=none;orthogonalLoop=1;jettySize=auto;html=1;rounded=1;shadow=0;strokeColor=#82b366;strokeWidth=2;fillColor=#d5e8d4;shape=flexArrow;labelBorderColor=#000000;fontSize=16;fontColor=#000000;labelBackgroundColor=#FFFFFF;fillStyle=solid;movable=1;resizable=1;rotatable=1;deletable=1;editable=1;locked=0;connectable=1;entryX=0;entryY=0.5;entryDx=0;entryDy=0;exitX=0.5;exitY=1;exitDx=0;exitDy=0;" edge="1" parent="XSjLxf4Ph_vKjmcvZ095-167" source="XSjLxf4Ph_vKjmcvZ095-80" target="XSjLxf4Ph_vKjmcvZ095-76">
          <mxGeometry width="80" relative="1" as="geometry">
            <mxPoint x="341" y="335" as="sourcePoint" />
            <mxPoint x="391" y="265" as="targetPoint" />
          </mxGeometry>
        </mxCell>
        <mxCell id="XSjLxf4Ph_vKjmcvZ095-79" value="Propene" style="edgeLabel;html=1;align=center;verticalAlign=middle;resizable=0;points=[];" vertex="1" connectable="0" parent="XSjLxf4Ph_vKjmcvZ095-77">
          <mxGeometry x="-0.2359" y="3" relative="1" as="geometry">
            <mxPoint as="offset" />
          </mxGeometry>
        </mxCell>
        <mxCell id="XSjLxf4Ph_vKjmcvZ095-80" value="Propene" style="whiteSpace=wrap;html=1;strokeColor=#82B366;strokeWidth=4;fillColor=#D5E8D4;fontSize=16;labelBackgroundColor=none;labelBorderColor=none;fillStyle=solid;fontColor=#000000;" vertex="1" parent="XSjLxf4Ph_vKjmcvZ095-167">
          <mxGeometry x="360" y="100" width="200" height="40" as="geometry" />
        </mxCell>
        <mxCell id="XSjLxf4Ph_vKjmcvZ095-103" value="" style="edgeStyle=none;orthogonalLoop=1;jettySize=auto;html=1;rounded=1;shadow=0;strokeColor=#82b366;strokeWidth=2;fillColor=#d5e8d4;shape=flexArrow;labelBorderColor=#000000;fontSize=16;fontColor=#000000;labelBackgroundColor=#FFFFFF;fillStyle=solid;exitX=0.5;exitY=0;exitDx=0;exitDy=0;movable=1;resizable=1;rotatable=1;deletable=1;editable=1;locked=0;connectable=1;entryX=0.25;entryY=1;entryDx=0;entryDy=0;" edge="1" parent="XSjLxf4Ph_vKjmcvZ095-167" source="XSjLxf4Ph_vKjmcvZ095-102" target="XSjLxf4Ph_vKjmcvZ095-58">
          <mxGeometry width="80" relative="1" as="geometry">
            <mxPoint x="861" y="75" as="sourcePoint" />
            <mxPoint x="1021" y="75" as="targetPoint" />
          </mxGeometry>
        </mxCell>
        <mxCell id="XSjLxf4Ph_vKjmcvZ095-104" value="Phenol" style="edgeLabel;html=1;align=center;verticalAlign=middle;resizable=0;points=[];" vertex="1" connectable="0" parent="XSjLxf4Ph_vKjmcvZ095-103">
          <mxGeometry x="0.1328" y="-4" relative="1" as="geometry">
            <mxPoint as="offset" />
          </mxGeometry>
        </mxCell>
        <mxCell id="XSjLxf4Ph_vKjmcvZ095-119" value="Phosphoric Acid" style="whiteSpace=wrap;html=1;strokeColor=#82B366;strokeWidth=4;fillColor=#D5E8D4;fontSize=16;labelBackgroundColor=none;labelBorderColor=none;fillStyle=solid;fontColor=#000000;" vertex="1" parent="XSjLxf4Ph_vKjmcvZ095-167">
          <mxGeometry x="140" y="550" width="200" height="40" as="geometry" />
        </mxCell>
        <mxCell id="XSjLxf4Ph_vKjmcvZ095-120" value="" style="edgeStyle=none;orthogonalLoop=1;jettySize=auto;html=1;rounded=1;shadow=0;strokeColor=#82b366;strokeWidth=2;fillColor=#d5e8d4;shape=flexArrow;labelBorderColor=#000000;fontSize=16;fontColor=#000000;labelBackgroundColor=#FFFFFF;fillStyle=solid;exitX=1;exitY=0.5;exitDx=0;exitDy=0;movable=1;resizable=1;rotatable=1;deletable=1;editable=1;locked=0;connectable=1;entryX=0.5;entryY=1;entryDx=0;entryDy=0;" edge="1" parent="XSjLxf4Ph_vKjmcvZ095-167" source="XSjLxf4Ph_vKjmcvZ095-119" target="XSjLxf4Ph_vKjmcvZ095-87">
          <mxGeometry width="80" relative="1" as="geometry">
            <mxPoint x="351" y="635" as="sourcePoint" />
            <mxPoint x="511" y="635" as="targetPoint" />
          </mxGeometry>
        </mxCell>
        <mxCell id="XSjLxf4Ph_vKjmcvZ095-163" value="Oxygen" style="whiteSpace=wrap;html=1;strokeColor=#6c8ebf;strokeWidth=4;fillColor=#dae8fc;fontSize=16;labelBackgroundColor=none;labelBorderColor=none;fillStyle=solid;movable=1;resizable=1;rotatable=1;deletable=1;editable=1;locked=0;connectable=1;fontColor=#000000;" vertex="1" parent="XSjLxf4Ph_vKjmcvZ095-167">
          <mxGeometry x="151" y="273" width="200" height="40" as="geometry" />
        </mxCell>
        <mxCell id="XSjLxf4Ph_vKjmcvZ095-165" value="" style="edgeStyle=none;orthogonalLoop=1;jettySize=auto;html=1;rounded=1;shadow=0;strokeColor=#6C8EBF;strokeWidth=2;fillColor=#DAE8FC;shape=flexArrow;labelBorderColor=#000000;fontSize=16;fontColor=#000000;labelBackgroundColor=#FFFFFF;fillStyle=solid;exitX=1;exitY=0.5;exitDx=0;exitDy=0;movable=1;resizable=1;rotatable=1;deletable=1;editable=1;locked=0;connectable=1;spacing=2;entryX=0;entryY=0.5;entryDx=0;entryDy=0;" edge="1" parent="XSjLxf4Ph_vKjmcvZ095-167" source="XSjLxf4Ph_vKjmcvZ095-163" target="XSjLxf4Ph_vKjmcvZ095-164">
          <mxGeometry width="80" relative="1" as="geometry">
            <mxPoint x="281" y="405" as="sourcePoint" />
            <mxPoint x="441" y="405" as="targetPoint" />
          </mxGeometry>
        </mxCell>
        <mxCell id="XSjLxf4Ph_vKjmcvZ095-166" value="Oxygen" style="edgeLabel;html=1;align=center;verticalAlign=middle;resizable=0;points=[];" vertex="1" connectable="0" parent="XSjLxf4Ph_vKjmcvZ095-165">
          <mxGeometry x="-0.2787" y="-4" relative="1" as="geometry">
            <mxPoint as="offset" />
          </mxGeometry>
        </mxCell>
        <mxCell id="XSjLxf4Ph_vKjmcvZ095-169" value="LCR" style="swimlane;whiteSpace=wrap;html=1;strokeColor=default;labelBackgroundColor=none;labelBorderColor=none;fillStyle=auto;strokeWidth=1;fontSize=16;fontColor=#F7F7F7;fillColor=#707070;fontStyle=1;movable=1;resizable=1;rotatable=1;deletable=1;editable=1;locked=0;connectable=1;" vertex="1" parent="XSjLxf4Ph_vKjmcvZ095-167">
          <mxGeometry x="491" y="780" width="510" height="380" as="geometry" />
        </mxCell>
        <mxCell id="XSjLxf4Ph_vKjmcvZ095-170" value="" style="shape=image;verticalLabelPosition=bottom;labelBackgroundColor=default;verticalAlign=top;aspect=fixed;imageAspect=0;image=data:image/png,iVBORw0KGgoAAAANSUhEUgAAAf4AAAFiCAIAAACYqS1KAAAACXBIWXMAABJ0AAASdAHeZh94AAAgAElEQVR4nO3de6wk1X3g8V9Vdfe9c+cFE+9f/iPaKLJFlD+MvdaYOwRj5uEZHg6I4TE4YWVnjcyKf8B4gAEMDmaAwWG8WrR4SWy0cRaMd7yJMB7wwKzBYeYa7a7ZP6IgUJTYaL1SrNjD3LmPvl1dVfvHqTq3blV33+7q6uqqPt+PkDjTpx7n3tv961O/OueUFQSBiIjI3NycAAAMUEu/NDs7W3w7AACjdvr0aVWwx9sOAEDxCP0AYBxL5/oty1IF/QoAYJLoOE+vHwCMQ+gHAONYukSeBwAmmx7ET68fAIxD6AcA43SY0pXGRF8AmABHjx5VBXr9AGAcQj8AGKdXwoc8DwBMJHr9AGAcQj8AGKevET6jc/vtt4+3Ad3s379fFY4dOzbelnRToRbu2LFjvC2ZAHxSMqtQC4v8pNDrBwDjEPoBwDhjTvho+pKnJO68805V0BeJtHBQuoUMFctRaf/K5X8flr+FRX5S6PUDgHHK0uu/46rvicgTP7g+/or+p6qNi29ZjPK3EAD6VJbQr8SDafxFiUXSdJAtUo8WXnv3B9UN+ngLT506pQrpe/fZqgBgeCVK+KiQ2jGyx6PtEz+4flwd6h4tvPbuD8Y3o8sPoMxKFPqlZ2wtifK3EADWVa7QL1WIreVvIQD0VrrQL1W4QVr+FgJAD2UM/VKF2Fr+FgJAN+Ua4dOnjsNs/vHdd3X5dz70odGdXQ+/ueOqsHzHVcmq7z/6y/iN33hVjwP2qHrvvfdU4cCBA9maDQBaBUL/Ez+4ft3E+j++++4XPvc5EXn7nXdE5I3Tp0ca/ROuvfuD33/0l4WdDgCGVNKET2/lT7YkuvwAUCpl6fWno3liLH+3HVWeR3X5tYtnZ984fVpyzfyk2/AfXtl3yU4RkUaj/tTrHxMR23FU1aevslTBtsKCZUcFa/1CEASq4LU9Vfjmf3wvrx8EAMoS+rPReR7tgg9/WETefuedi2dnpfDMDwBUQiUTPgCAYVS1198xz5M2isyP1mg0VGFqOiy88NcnVEGnbq69/orEK7qgc0HLy83wiOELsmFmWhXclpt7swGgkqE/nuf5/d/7PRH5u7//e/XPP3/mGRH5wuc+p4b6iAiZHwBIIOEDAMapWK8/nefR/X2lWwpoFJkfxwm/OFsrYVpm/w1XqoJth1X//b/9MKq6KqoK0zrHnn9RFa4/8IeqEGWA5PlnX1CFa/bvy6u1AKBVKfTH8zy/e8EFIvIPb7+97l4q4l88O0vmBwAUEj4AYJxq9PoTeZ7fveCCzeedpwp3HTwoqTzPnz/zjOrjS3SbV/vjAwe+89xzkkvmZ3XQTviCnZq3pUftpKtWh/rYyY3T2wBAjioQ+uN5nmazKSL/8PbbOuHTMbkfH+GT8E+/+AWZHwCGI+EDAMYpda8/PZ5nejqc69TPDd6OPrVnz49PnJA8xvzobMyGjWGrvv+944mq6w9clXjFtsKv2xtuCgf2fO+5F/Qh1f9u/GxY1WJKF4ARoNcPAMYpb68/vTRbnJ61m3g9Mbk37aEHH0zcASbpD8A05Q39vXX7VkgH/X/9278tIv/0i1+ofyYG/AxDj77562MvqcJ1N+p5W+Hl1PJSuD7Pxk0z0W7h/5eiqhs/e3V0wLDuuf/6N6pw7f7L82otAGgkfADAOKXu9asBmhd8+MPd0jv90P19AIBS6tCvvP3OO4MG/W6D+pVECmi0rGTJSk0ES28d24kpXQDyR8IHAIxT3l7/73zoQ3rlNZ35SQ/gSeSC1D9738vV/f3RPcUFAMqsvKFfoqD8xunTKpS//c47+jtAb5N+IHviIPr7I/36kEE/ena6XHNtuLSyXodZZ3X0mJ8g8FXB98MqPT1tcXEpsZdexrntMqULQP5I+ACAcUrd61fimR/1ir6LG+/+d7u1e/+DD4qIWrxBIc8DwHAVCP0Sy/yof6a/A7T06B0d9PXueQV9N8rG6AesX/mHu8JXoildrVZLFTqt1Rxu4zhOosqN9nLbXi5NBYA4Ej4AYJxq9PoV3VtPd/+19Gj93Dv7AFB1VQr9Wvo7oJ+N8/Lee++pwjP/+b18jxxEY4Z4OBeAkSLhAwDGqWSvXyOHAwAZVDv0j8WBAwcSrzz33HOFVQHA8Ej4AIBxCP0AYBxCPwAYh9APAMYh9AOAcVanDun5RNrc3NyoT3/q1ClVuPPOO0d9rmy+/vWvqwItzKyAN1Lubr/9dlU4evToeFui8EkZXvlbWMAnRb+f6fUDgHEI/QBgnDEnfPRlddns379fFY4dOzbelnRToRbu2LFjvC3JIP3OHG/mh09KZhVqYQGfFBI+AGAuQj8AGKcsa/joS56S0GMA9EUiLRyUbmFemcOLLrpIRD7xiU/kcrQ+6d9qScb8lPavXP73YflbWORYOHr9AGAcQj8AGKcsCR+gf2O5YC9b5gcYBr1+ADAOoR8AjEPCBxXz6T17CliD5YGvfEUVNm/Zkqgi84MJQK8fAIxD6AcA45DwQWXceuutInLzzTcXMPPlRydOqEKP0URkflBd9PoBwDiEfgAwDgkfVMZTTz0lha/h0w8yP6gcev0AYBxCPwAYh4QPqqdsi+5qumEvv/SSKuzdt298zQG6otcPAMYh9AOAcUj4oGLGvoZPD2N53BKQAb1+ADAOoR8AjEPCB5VRtjV8NPI8qBx6/QBgHEI/ABiHhA8qo2xr+JDnQXXR6wcA4xD6AcA4JHxQPeNdw4c8DyYAvX4AMA6hHwCMQ8IHFTOuNXzI82CS0OsHAOMQ+gHAOCR8UBljWcPnpz/9qSqQ58EkodcPAMYh9AOAcUj4oDJuvvnmws716T17VIE8DyYSvX4AMA6hHwCMQ8IH6GDvvn3jbgIwQvT6AcA4hH4AMA6hHwCMQ+gHAOMQ+gHAOIR+ADAOoR8AjEPoBwDjjHlKl36+dgHPXcqGFqIMyv9XpoXVQq8fAIxD6AcA41i6FARBoq6A5WpnZ2dHfYpstm/frgpvvvnmeFvSTYVaePTo0fG2ZALwScmsQi0s4JOiT0GvHwCMQ+gHAOOUZdHmv3rya6rQXGmpgttuq4LORFmx9JRiW+ErMzPTiY011w2P0257quDUnLDghN98WzZtVIWaE1a9+y/hxvoiUV+UlYQerlD+FiJH3/jGN1RhZWVFFdrpT4qV/KToVzZs2NDtyK1W+NHzvOiTEn0cbDv8pGzevFkVarUwdJw5c0YV9Ptw586d3U6R/nimW6gLPX6cHsdJ27t3b6KFH9/7hgSWiHhuK/BcEQn8QGW/rVptestmEWk3V+xGXVV5zRURsRwr8KMm2Y6IWOq3Elie2xKRwHOjDSyrVhOR6S2b280VEbEbdVXlNVcsx4rOGB5q/+4xPAmuLKEfAIrhLiyqbqRVc+xaXUQaW8/zlpdEJPBlWX2Z+YEs+iIili2BiEjgtxPHseyaiIglVs0REbtWb2w9T0S85aXAFxFZPnNGVIhf9MMviqDDccaChA8AGKcsvf4z8wuqULOT30arWZ0NYVZHXwAuN8Nr3vmFJVXwoytBvZfv+8mTtZPfuguLy8ltGh8YpPlAQebn51VBZ2M0azX/OZOo0tmhhYXwg5ZOp6SzKO3UJ2V5OflJSWeQ0sdJJ3N6nLTDB7b7kbNpbN08tWWziHhtz51fEJHmmTOB64qIBNHZLduq1UVkeutWddrp39riLi6LSGt+0Qp/+b6ITG3Z7LU9EXHnF5pnzohI4Lrx44iIVatPb90qIkEg07+1RUTcxeXW/KKIWKm/YzHKEvoBoBiNTRuXf3NWRPxWy3dXRCRY831ji4hl+YHbFpHlX//GrtdFZOXcOVvd4QjCbMnU1k0isvybs36rJSK+uxIkv7dsy/JFJHDby7/+jYjY9frKuXMiYtdqKo80rsQLCR8AME5Zev0zUw1VqEXDb9rt8Puz1XZVYXGpqQr6hn/6+k/neWw7LGyKLn696At5JrpEXVwM00TtaEhDzQl/Ic2uF53AOE1NTamCHmOjB+S4bvhJWVpaWvc41uonJez/TU+HCVWdctmw+klZTJxLnz3NTuVsNZ2xSRf6yQWlj5zeuMe4IG3hl/8vapAfbWxHmRkn7Ln7XviKY/leW0Qs2/aaYb7La4qIuAvzHY4jKlnkiLqY8L3wFccSEd9rW7YtIolDFa8soR8AChIN2hEJFzSwnLrKgNhO3XddEQlsUYNzgrYXBL6IxL6IbBW+9aAdfSjLqYuI2GI7dRHxXTdQ31Z+ELQ9EQn0oE61nYjV/ZtypEj4AIBxytPrD6/OlpbDoQh6rI6fTuukX9FXr6sDe8JtFpejNFF0ipUVN7lxdEA3CKv4TkQ56TxGsxm+sXV+ZqABMFZqCJwevaOr9CSvdF5FJ5cajca6R05LN7WfzE8/o5J6nGK1hbYThCkax3ZqIhKIL4Etqp8e+CJiO3VryhERv9VSJ6tNb1BpHN9tBZ4nIn7UkRdxRMR2aoH4IiKBHV46BL7q/ltTjroVbInUpjeIiFVz/HAimNetnSNVntAPAIWw7DAFH4jvr6y+qDI/gS8iftsVTw33DNQr7qIntiUiTr2uJoL5XiAi4nsq5xM/VJj5CXxf3ar03LDDGvjuoiciYltOvS4i6lDFo3MLAMYpS6+/FV0/pudk6bE6sSu46JIwKughOunskF6WZ3UFoGgTKzryhnojcRxhhA9KSWdadDolPe6lx6QqPUSnn/Ez6ar0sKK0dJ6nR3t65HDyyvyk1Wam20u+iAS+b1mOiFhOXXXPA88NF/Oxw266ZVti1UXEsmy1Mk9j00y4PINji0h7yVeDgizLUZ19v+2qpYH0kJ8giKKNVbfCoUS1xqYZkfBmcvHKEvoBoBh+y7XrDRHxmsuB54tI4HnJ2Vjh0BwJLFvEExGr7gTttoi0zi06U1PqOCJi1xtqpGbg+Spxv+ZQa44jIp5Vd0QkaLdb5xZFxIlG6xaMhA8AGKcsvf50nmc19xK9opf30YstTzXCOyTNZjgUwY+yOXqET1tfF6dGAa203ERhVWPzED8NMCrpPE8696KX99GFej38pOjFfHSGRB9QHyc920sP9dEFbaA1fNJ6rC/dT5qon23SvJWm+L6Eg3PU1sltAt+PXvXV0Hu/7apjB4F4rfmwJCK+v95xVIUvIpZtq8ySZYV7h4cqXFlCPwAUI/DaUZC2YgW1dI9ehj9aZtlvR/N7dVY+0VMMohuJuhB1Ly07vG1o2eK3JZzfqyeIpXqcBSLhAwDGKUuvvx4t3aNX2tGL+eghOvoxW54XbrMULdpsR8N39MZ2LXzFTS08qxd/rtejy2EnvByej9YqaZbiaQpAkk7dpJ+lpQu6Kl3Q+RC9sR60k16iWS/+nE4c6cWf07Ktq6P1s3E/aaIeu9c2zKgFmb1mM5pR5YvtiEh94ybV128vN8Mj+U44CcBvh6/YNXVsp9EQEatW95pNCSdn+SIitlPfuElELFvay01RmSHfERHxvbD7H4jYNYmtSFawsoR+ACiG12rJSjgXWo/GsVQKZuGceviiiB8ut2NZ6hWdzdF5ek/d+eh0KHfhnITPcVSjSAMV4y3b0Qkm0bcOxoGEDwAYp3S9/tS8q9WhPnpkjr5ErdXCry6dC2pFD2EPogN4+t5M9O26sBSuVeKE93Nk48ZwlEI/F6RAOaWzOvqT4qxmTduJQnqoj6bXatZDfdLP/xpStmevD5tT8trhVCvHttSqnEE02icI13hwpqbDYOSHUcmZmnGXmiIStN34ACHLstXcLisIByoGQbgikPieMzUtImJFs0QtcaZmRMRdagZqjYfuKx2NVOlCPwCMlOXUomSL2I0NonI10Zgc9Siu6fO32o4tIhs+sOnsz38lIu3lZvi94jjqxkC0Fr8VPm+rsSHM+UTDhOxabfr8rSJiO/aGD2wSkbM//5XK/luWJer72B7PAxpJ+ACAccrS63e6f/U5qzO59ACG8BJJT8XSzz/QSSF943yqHv6MG6bDhXqcaOzQYpT50SsI2RbfhSi1HivtpEfv6BxOeuWf9Ao5evll/bgufS69nrM+Tj8Tr7R+0jLZHrneY6hPD7WZjWEup+364dILXnjntWY3Nm8Skdb8Qm2qISJnf77UXl4SEcupq069HT3XxbKnReVy2q6I+J4XqOsAsayaLSKNzZta8wsiUptqnP35koi0l5fUOj+BH67nPK7uN5EOAIxTll4/ABSjvbioMvt2vWHXHBFpnL+tHT3QuPnrfxGRwPPcBd0zVneAm6sLNsSfrWiJWgzOrjmN87eJSPxQat7AmkMFaqT/mkMVryyh349+EfqCVK/q02GBnbTU+jx6qWf9VPf2QnLGSmNKz46J5pHVGeGDUksvudNjiE4P6YV6dDInPbdLz+TSp9DZofTG/YzMGaiF6SP3kzjqca7G1s1TmzeJiOd67sKiiKy8f9Z3myJrH7Rbc0Rkets2Fb6nt21pL62IyMr8QvRAXV9EpjZv8lwV3xdX3j8rIr7bTD77t+ZMb9smIoHnTW/bIiLtpZWV+QXh2bwAgMKUpdcPAMWY3rp5+cw5EfFWVvxWUxIr7IuIiGXZgeuKyPKv/tluTItI69yCHY0QscQRkenzt4jI8plz3sqKiPitZsfjiEjgusu/+mcRsRvTrXMLIpI4VPHKEvr1nKz0Gsu9FrlIXVqu5ou6X/vq1YFa+vns0TXX4lI4J1uc5FK0QBn0WJZnIDox0uN5W3qkkM4F6U/KUpTOTj+WPa9hPANN6UpX9Uh/zb/3f6NzRHvZdpi+r9cDry0i4ntRriZ8gJdl2+3lVnzH1rn5TscREduq10UtERqO/Re1apDfdtU2iUMVj4QPABinLL1+ACiI5UignwSlXnDCXn/0SmA5qkMeuCvh8gxrDqAipyMi8UNZ4XVSNMjEUscRkSBwV0StGJFsy3iCcFlCv6uvXqNX0g9Y1/RVZ49tVpd6Tj3tSyeXehlP/g1Yhx5R08/jqPrZJr3Us9YjF9SPftI7/QzRSR+nx5H7OqktgVpC2Q4jr35iSyC++g5wGuG8Lb/lWuKLSG16RsWQwPf8tifhM9wl8J1whpdT009sCcIle2ynEc7bUg/ytcSvTc+oH0/N//L7CUcjQMIHAIxTll4/ABTErkkQrpqput6BhAuuWbajRul4rebqevqBLyJuNBHMqtXVQ1q8MBMULeTpe9EFix0u8e/7XqspEnsUb+C7aj3U6Mavk7pPXoyyhP6Z6ak/ueOr8Ve++di9uvzFux5eU3UkrKrZtVsOfq3PvZ48fLcq3HboUV1O0A98B8pJL7Bz8ODBI0eOyNpJVYcOHYpvfPjwYVWwLOuee+7pWJXe66GHHlKF+++/X5cT+llK6NVXX921a1e8KgiCkydPxl/ZuXOnPuArr7wSr9L7Wpb16quvdtzr5MmTuty/+syMu7ggIj97fc9HLz0pIpbt+GH2xnvrJ3viG1/4yVfCh7fYtZ/9j0/Fq7Zf+aaIuIsLgVhvvb57zV6XnFCFt36y58JLTkiw+qgW9XAu23EaGzdKbHn5gpUl0qm4/60nHvj2Ew98+4kHJBa4VeGbj92r/hORLx4Mq1Tcf/rIfU8/ft/Tj9/Xca8nH7nnyUfuEZHbDj1a7M8EjMrBgwfTL6oIfjgisZiu4v4jkXiV3uuhhx5Sgf7+++8fvoWJYK2ouL9z585du3apyK6/CVTc3x2JH0EVdkXiew3jZz/u8J2h4v6Fl5xQ/4mIjukq7v+b3T+Zvfp/X3T1/xKRN1/cHu71+m4R+eilJz922Wsfu+w1fZwyK0voF5FvPfHAd154/S9feP0vX3j90ksvFZHvvnRKVX3zsXu/+9Ip9Z965bvHw8LTR+579vgbz/7wjWd/+EZYtXavYz+aO/ajOfXKsRM/1aeLl4EK0XH/+PHjx48fj1cdPnz4RES9oguPPPLIjyKJKrXXyZMndUiNx9YMcVZH7Xa7nVjpYefOnZ7nxV/XN5N3797tRvTuqrBr1652JLGXDH472ltZ1nF/izy0RR7y3WbQdtWzUz6y4+Wt9mH1X7TNwypb89HLfrzJ/Urj/S9NvX+nqtqwcJd6GMuFl7yyRR7a7D+42X9QVW21DwdqhZhAttqH1eNggkBs27Jty/e8lXPnVs6F08GKV5bQ/+0nHrSi0T03XX7xTZdfrMoqjuto/tprr+ldVPR/9vgbHaq676Ui/lSjLiKNWk39V3Mc9Z8Vyf0HBHJhWdbjjz/++OOP61f8iMSiefw9r17UET9d1XEvFfHVjK1axIn0+KQEQbBz585ueRgdpuPnUi/qiB+vUrFeR/z0Xhl4K60LL375wotfXm1zbP7XefVH0+faaj0sIlv8r6arNjbvFZGt9sPpKnWoQD2H3WsHXlv8wGu1vFYr8Np+2/Xbrhs9Cq1gZQn9ys2fufSmyy++5eDXEhl8Rf1OO6bpVVU80Z+o+os/y+EaFqgE9Z7vmKZXVfFEf6LqscceG2XT1pyr49eDqkrcJFh3r9ypc31kx/FuVTqb3+deZVOu0P/5Ox7UQf8/Pbrm1pOO++lEjY77upufqPqLP7v/r37wt6NoMFA2Ou6nEzU67utufqLqsccee+mll4ppocr8dKxS6Z3+9xpU4LWDwI8tm9y5hRf+wYnz6kc6Vn1kx3GdDkpXJfZSKzdYlm1ZduC7gecGnqvyS0HbDdeNKFxZRvgsNZv6Nmw8vl+/d1Zi11Dd4r7E0jvpqnTc/1fbzpPYQ6tXF3aOVm8u2XciEGo2mz1q9Xu+W9yXWHonXZWO++eff77EPik6JzNQ/I1Ps9Ln6hb3pdNC0D32sm3b87z0/K8eaVt7asqurRlSadm1aCLu6rm2Op2Du4h0+0roWOVMz4grVmNKRGT1ke6ry/2PRVlCv4r78aD/2muvxTv+6savRF8Gcbrqhn1dq/7oqktybS9QUvo9n86Z6Co1hKZj1b59+0bWtOS59ETigar099Do6HOdcx7oVnXWP9Stal4qkF4uS+iXWNzfv+cT3ba5fu/sv7+7Q5pSRG7YN3vrXZ2r/uiqS/7dl/40l0YClbBr16777ruvY9Xu3bvvvbfDXTER2bdv31133TXKdq1yHKfb2KEeVbVareOw0YEErue5a26uBn5bUvmfs/69b732KenkrH+o2/DN992D/+fUmrsR3sqK2CJ+W0Qs2wpWFwuKpoyNQ4lC/22HHr1t7ffo914+LSK2fe8XDz4cv2+ufeuJB/7kjq92rDr29JH9txzsWCUiV3/+S1d//kvxV54+cp+I1KMpXb0uqoHxcRxHD8nXb2912/bw4cOHDh3q+J4/cuTIwYOdPw5PPfXUrbfe2u2Tcsstt9xyyy3xV9S0gHSvPE4Hbn1YdW92165dr776asdz9ajavXv3K6+80q2FiYlg0uUW8RqB/9YbexMtVPdmL/yDl9/6270dz/Xxvaf+58s7OlZd+MlX3np9d7cWvvWT3SJrLrM+vveUt9IMh34O8my1HK3mmdLLHs3NzY369LOzYYrmqUcPSad8vYjcePkOiQ3k127+zKVqItx3Xng9UfWF63ZP1esi8uSzyVvt//bqS1Xhv/zNa+lzHbh8hyqcs89XhS9/+cuqsH379nV/nCLt379fFcrfwh07doy3JRNAf1Iefvhh6ZSv37Mn7ISmq6644gr16U5MAhCRa665Rg3ffP755xNVV155pSq8+OKL6fbo0+n1+vX78LLLLpNOSXk1JFQ6pfJ1Didd1Wg0VOP1bQatXq+rqvRe8WPu3bs30cKP7HhJLNnqJOd4vu8etGxbLEeP1NQWan9q1RxvpbklSI6bOuvdLbYj0QDQNVX+vc7UlIhscr+SbuFZ/14REd/77NV/p14p4JNy9OhRVajM3cwbL1/zS7n5M5fq8h9/5pPxqi9ct/oFe9tNl8erdNwHJpUOysoVV1yhy5dfvubjcM011+jyDTfcEK/ScX8UEsn6+D8TVfHnwOjnA3f852BsW6wOVy12vW7V6s7U9EJ9TXxvbjlSm5kOPFcse95ek/0/6x/ShzrnPBivmrfud6amp7edN73tvI6tsNTkrtoQP8gQxtzrv/3221VB9xDL5tixY6pACzOj1z88PinDK38L6fUDAEaI0A8AxinLbd6y0bdM33zzzfG2pJsKtVBfY5bNRRcd6FY1N/dckS1ZF5+UzCrUwgI+KSR8AMBchH4AME5ZpnSVdky6vkikhYMqchzFQKmbHhuntxlo9wLSRKX9K5f/fVj+FhaJXj8AGIfQDwDGKUvCBxiRftI7o9sdKCd6/QBgHEI/ABiHhA/M1WNADnkeTDZ6/QBgHEI/ABiHhA8mgU7d5DXfqmwzuYB80esHAOMQ+gHAOCR8MOHyysaQ1cEkodcPAMYh9AOAcUj4YBIwAwsYCL1+ADAOoR8AjEPCBxU25DSr0aWJGA6EkqPXDwDGIfQDgHEI/QBgHEI/ABiH0A8AxiH0A4BxCP0AYBxCPwAYhyldqLAeD+fSr/SYXZVt4hWP68IEoNcPAMYh9AOAcUj4YBL081j2As4OVAW9fgAwDqEfAIxDwgcTrp+hPgMdB5gA9PoBwDiEfgAwDgkfTIJ+sjHpbXqkgAZK7+SVUwIKQ68fAIxD6AcA45DwgbkYtANj0esHAOMQ+gHAOCR8MOHSo24GyvMMuTtQTvT6AcA4hH4AMA4JH0yCgeZS9bPCc+7P9gJKhV4/ABiH0A8Axhlzwmf79u2qsH///vG2pBtaOMEqlLop/1+ZFlYLvX4AMA6hHwCMY+lSEASJurm5uWIbAwAYoaNHj6oCvX4AMA6hHwCMw5QuAJhwOs+j0esHAOMQ+gHAOJYe2GNZ4Wif06dPq0L6GgEAMAHo9QOAcQj9AGCc1YSPnsA1OzurCtddd914GgUAGCV6/QBgHEI/ABinQ8JH05kfAMAkodcPAMYh9AOAcXolfAAAE4lePwAYh9APAMYh9EkZyJIAAAbjSURBVAOAcQj9AGAcQj8AGIfQDwDGIfQDgHEI/QBgnPE8ln2g1YH0U8PyOmlpD5jtyD1+mT12z7bXeM9eQJt7HLmfP8ro3hJAvuj1V9js7GzvKNaxNtte4z17Xm0GoBD6AcA440n4pC+HuVJW+u+9xrfs8ftUhXTWYqC9xnv2vNqcZvibDSYbT+ifeNm+ybJlLTqeQr04aHJ83b36PE6p9gKQRsIHAIxTyV7/QJ3Z9MY9uuR5jSHJpmOKY0SnGJ1sjS9yrx67c2EBQ1Qs9K/7UZ+dnR3Rp3d0Rx5Sjg3LPZKWbS8ACgkfADBOlXr92UZ6DDQlp2NVhjEkxWSHEg3LLJe8R/qv00+ritwrrZyXcUABqhT6tbxGpwx0uhJmGIZsWLcdBw2IieP0uXuRewFIIOEDAMapZK9/dErYtV9X7yRVN3kNbumdhSvDXgDSCP2hKgb9bEaUM2FuF1AhJHwAwDj0+kX6yyQMdFkw3iWJevw4A/2kfQ6Oor8PVE4lQ3/HSUwDLXyWbwQpyWyvgdL3I23wZM/tGvLtB5QBCR8AMI4VBIEqzc3NjbEdfWZI+ulb9f+Yp/iW/ffaeuw10PSxHg1b97zr7ptL2qr3j5OtzUXu1U3mpUnzbQYwRhVL+GRbi7if3bNNj+q213g//8WcfUTrQue4V+5K0gxgeCR8AMA4ZUn4oMx4hhowYej1A4BxCP0AYBwSPgBgHHr9AGAcQj8AGIfQDwDGIfQDgHEI/QBgnPEs5NDPFKG8phEVea5K62c5imxrGOS18kGOCxB1O3K29vT4ReX17tWG/LmG3CvdDFRUxdbwwSj0E1L7eeJjhmXXSrLe9aBGvURz+ZeAprdUdSR8AMA49PpNl35uV7rL2fvZXrpWFTpmCfrfqx/l6Wnm3pJyplZ6rFxd0es2EPorL/Old4bns5d5ReXCFJONKe0vrccNAFQICR8AME4le/2jGzHSz5iNgU6a+0Op8uoM9vN89tEZssM4rqzIutdJA72j1j1+tlYVL0PKDmNXsdBfzhEjOT6nu4AfMEOep/fZB/pJxx6ncjHq91glwmi2B9uhJEj4AIBxqtTrz33EyEDzXDpWZRvckt6mn726nStzjqv/HU+fPp04e7fNBj17tj7jWDrFA+Xuihz2PmS+EWYac+jPlkDINs5kFEY0uKWAH7Dg6DlMlmnsKt34bnLMUqKKSPgAgHHG0+uPJxB6b1ZAY/pUZIeogHNlvjebIdU23tFEOap045UqfvQwCuPv9c/OzsbfiyW85Ey0cNB9823MeHXLRPUZKaoYUMbyFyzmpEN+9Ib5XGDsxh/6AQAFG9tt3qrM/s82VqfPITHd5LV0cLYjj6IrV5K/5kCKv7vbZzZm+LNIrh+9Kv5xUaXBndro1gfOcUbYMANySrskVpGT13KXufHD/C0y/ylLuyoySZ7JQMIHAIxjBUGgSnNzc2NpwUDrseSyJE7vyVnpbfrv5gyfqMlwrty7h5kbNuo+9UD9zSEbP/yopCEXzOhWNeTztnqfpf+U5rq7oOTGn/BJJEZ6v5OypSn7yb302Cb3yWLrtj9zjBudEf3my9z4dauGPOm6+2befaCzZOs6EPGrjoQPABhn/AmfidRnZ42uE4CxoNc/NsR9AONC6AcA45DwAQDj0OsHAOMQ+gHAOIR+ADAOoR8AjEPoBwDjjGchh2wLFZR2LcMesi0eMPaVDwBMNnr9o7LuM4w61mbbCwAGQugHAOOUZUpXFZM5PfT5HPPEBtn2AoBBjX/R5qrIcW3bkixlDMBYJHwAwDhV6vWn+909HjM00DOM0obsd+febR/y7m7uz9jK/bc66mfkAoirUujvRzqCjO4Z7pkNFMcLCPoZ9srxt8qYJaB4JHwAwDgT0us/ffp0j86jqhp0IE1ir+EvAgZ6AH16lwzPes32bPFsv59R7AVgRCYk9Ev3Z0yP4hnuA+l2qN6RrgxDOXMcnpT7bxXAMEj4AIBxJqfXn0EBndAMSR7JLw0Sz4NluPjI/feTPteQLQSQjdGhf6RyydgMH/XWzbSMdCxTP8rfQmDykPABAONMWq9/+FUWuhloIYd+Mja9D5hvP7fj0bqNuhlRG6Tnj5ythQCyMbrXX0CuP8dote56zrnLcTpY8Y0H0IPRoR8AzDRpCZ9+9DOqJL7xMOca9Hlk/TQs2+Ss3ufN0IzEvtkan62FAIZkYuiXTDOMiok+xa/nnOMMrBE1nrgP5I6EDwAYpyxP6QIAFIZePwAYh9APAMYh9AOAcQj9AGAcQj8AGIfQDwDGIfQDgHEI/QBgHEI/ABiH0A8AxiH0A4BxCP0AYBxCPwAYh9APAMYh9AOAcQj9AGCc/w9Zlr0NSdrtIAAAAABJRU5ErkJggg==;" vertex="1" parent="XSjLxf4Ph_vKjmcvZ095-169">
          <mxGeometry x="3" y="26" width="510" height="354" as="geometry" />
        </mxCell>
        <mxCell id="XSjLxf4Ph_vKjmcvZ095-171" value="" style="whiteSpace=wrap;html=1;strokeColor=#99FFFF;strokeWidth=4;fillColor=none;movable=1;resizable=1;rotatable=1;deletable=1;editable=1;locked=0;connectable=1;" vertex="1" parent="XSjLxf4Ph_vKjmcvZ095-169">
          <mxGeometry x="45" y="151.00000000000045" width="50" height="50" as="geometry" />
        </mxCell>
        <mxCell id="XSjLxf4Ph_vKjmcvZ095-177" value="" style="whiteSpace=wrap;html=1;strokeColor=#99FFFF;strokeWidth=4;fillColor=none;movable=1;resizable=1;rotatable=1;deletable=1;editable=1;locked=0;connectable=1;" vertex="1" parent="XSjLxf4Ph_vKjmcvZ095-169">
          <mxGeometry x="46" y="44.000000000000455" width="50" height="50" as="geometry" />
        </mxCell>
        <mxCell id="XSjLxf4Ph_vKjmcvZ095-178" value="" style="whiteSpace=wrap;html=1;strokeColor=#97D077;strokeWidth=4;fillColor=none;movable=1;resizable=1;rotatable=1;deletable=1;editable=1;locked=0;connectable=1;" vertex="1" parent="XSjLxf4Ph_vKjmcvZ095-169">
          <mxGeometry x="316" y="153" width="50" height="50" as="geometry" />
        </mxCell>
        <mxCell id="XSjLxf4Ph_vKjmcvZ095-183" value="" style="whiteSpace=wrap;html=1;strokeColor=#FF8000;strokeWidth=4;fillColor=none;movable=1;resizable=1;rotatable=1;deletable=1;editable=1;locked=0;connectable=1;" vertex="1" parent="XSjLxf4Ph_vKjmcvZ095-169">
          <mxGeometry x="369" y="153.00000000000045" width="50" height="50" as="geometry" />
        </mxCell>
        <mxCell id="XSjLxf4Ph_vKjmcvZ095-172" value="Acetic Acid" style="whiteSpace=wrap;html=1;strokeColor=#6c8ebf;strokeWidth=4;fillColor=#dae8fc;fontSize=16;labelBackgroundColor=none;labelBorderColor=none;fillStyle=solid;movable=1;resizable=1;rotatable=1;deletable=1;editable=1;locked=0;connectable=1;fontColor=#000000;" vertex="1" parent="XSjLxf4Ph_vKjmcvZ095-167">
          <mxGeometry x="250" y="1150" width="200" height="40" as="geometry" />
        </mxCell>
        <mxCell id="XSjLxf4Ph_vKjmcvZ095-173" value="" style="edgeStyle=none;orthogonalLoop=1;jettySize=auto;html=1;rounded=1;shadow=0;strokeColor=#6C8EBF;strokeWidth=2;fillColor=#DAE8FC;shape=flexArrow;labelBorderColor=#000000;fontSize=16;fontColor=#000000;labelBackgroundColor=#FFFFFF;fillStyle=solid;exitX=0.5;exitY=0;exitDx=0;exitDy=0;movable=1;resizable=1;rotatable=1;deletable=1;editable=1;locked=0;connectable=1;spacing=2;entryX=0.5;entryY=1;entryDx=0;entryDy=0;" edge="1" parent="XSjLxf4Ph_vKjmcvZ095-167" source="XSjLxf4Ph_vKjmcvZ095-172" target="XSjLxf4Ph_vKjmcvZ095-171">
          <mxGeometry width="80" relative="1" as="geometry">
            <mxPoint x="350" y="1060" as="sourcePoint" />
            <mxPoint x="510" y="1060" as="targetPoint" />
          </mxGeometry>
        </mxCell>
        <mxCell id="XSjLxf4Ph_vKjmcvZ095-174" value="Acetic Acid" style="edgeLabel;html=1;align=center;verticalAlign=middle;resizable=0;points=[];" vertex="1" connectable="0" parent="XSjLxf4Ph_vKjmcvZ095-173">
          <mxGeometry x="-0.0232" y="1" relative="1" as="geometry">
            <mxPoint as="offset" />
          </mxGeometry>
        </mxCell>
        <mxCell id="XSjLxf4Ph_vKjmcvZ095-175" value="Calcium/Calcite/Quicklime&lt;br&gt;NON CONSUMABLE" style="whiteSpace=wrap;html=1;strokeColor=#6c8ebf;strokeWidth=4;fillColor=#dae8fc;fontSize=16;labelBackgroundColor=none;labelBorderColor=none;fillStyle=solid;movable=1;resizable=1;rotatable=1;deletable=1;editable=1;locked=0;connectable=1;fontColor=#000000;" vertex="1" parent="XSjLxf4Ph_vKjmcvZ095-167">
          <mxGeometry x="520" y="700" width="200" height="40" as="geometry" />
        </mxCell>
        <mxCell id="XSjLxf4Ph_vKjmcvZ095-176" value="" style="edgeStyle=none;orthogonalLoop=1;jettySize=auto;html=1;rounded=1;shadow=0;strokeColor=#6C8EBF;strokeWidth=2;fillColor=#DAE8FC;shape=flexArrow;labelBorderColor=#000000;fontSize=16;fontColor=#000000;labelBackgroundColor=#FFFFFF;fillStyle=solid;exitX=0.5;exitY=1;exitDx=0;exitDy=0;movable=1;resizable=1;rotatable=1;deletable=1;editable=1;locked=0;connectable=1;spacing=2;entryX=0.5;entryY=0;entryDx=0;entryDy=0;" edge="1" parent="XSjLxf4Ph_vKjmcvZ095-167" source="XSjLxf4Ph_vKjmcvZ095-175" target="XSjLxf4Ph_vKjmcvZ095-177">
          <mxGeometry width="80" relative="1" as="geometry">
            <mxPoint x="350" y="870" as="sourcePoint" />
            <mxPoint x="430" y="910" as="targetPoint" />
          </mxGeometry>
        </mxCell>
        <mxCell id="XSjLxf4Ph_vKjmcvZ095-180" value="" style="edgeStyle=none;orthogonalLoop=1;jettySize=auto;html=1;rounded=1;shadow=0;strokeColor=#82b366;strokeWidth=2;fillColor=#d5e8d4;shape=flexArrow;labelBorderColor=#000000;fontSize=16;fontColor=#000000;labelBackgroundColor=#FFFFFF;fillStyle=solid;exitX=0.5;exitY=0;exitDx=0;exitDy=0;movable=1;resizable=1;rotatable=1;deletable=1;editable=1;locked=0;connectable=1;entryX=0.5;entryY=1;entryDx=0;entryDy=0;" edge="1" parent="XSjLxf4Ph_vKjmcvZ095-167" source="XSjLxf4Ph_vKjmcvZ095-178" target="XSjLxf4Ph_vKjmcvZ095-62">
          <mxGeometry width="80" relative="1" as="geometry">
            <mxPoint x="1050" y="610" as="sourcePoint" />
            <mxPoint x="1210" y="610" as="targetPoint" />
          </mxGeometry>
        </mxCell>
        <mxCell id="XSjLxf4Ph_vKjmcvZ095-181" value="" style="edgeStyle=none;orthogonalLoop=1;jettySize=auto;html=1;rounded=1;shadow=0;strokeColor=#d79b00;strokeWidth=2;fillColor=#ffe6cc;shape=flexArrow;labelBorderColor=#000000;fontSize=16;fontColor=#000000;labelBackgroundColor=#FFFFFF;fillStyle=solid;exitX=0.5;exitY=1;exitDx=0;exitDy=0;movable=1;resizable=1;rotatable=1;deletable=1;editable=1;locked=0;connectable=1;entryX=0.5;entryY=0;entryDx=0;entryDy=0;" edge="1" parent="XSjLxf4Ph_vKjmcvZ095-167" source="XSjLxf4Ph_vKjmcvZ095-183" target="XSjLxf4Ph_vKjmcvZ095-182">
          <mxGeometry width="80" relative="1" as="geometry">
            <mxPoint x="1140" y="1010" as="sourcePoint" />
            <mxPoint x="1300" y="1010" as="targetPoint" />
          </mxGeometry>
        </mxCell>
        <mxCell id="XSjLxf4Ph_vKjmcvZ095-182" value="CO2" style="whiteSpace=wrap;html=1;strokeColor=#d79b00;strokeWidth=4;fillColor=#ffe6cc;fontSize=16;labelBackgroundColor=none;labelBorderColor=none;fillStyle=solid;movable=1;resizable=1;rotatable=1;deletable=1;editable=1;locked=0;connectable=1;fontColor=#000000;" vertex="1" parent="XSjLxf4Ph_vKjmcvZ095-167">
          <mxGeometry x="790" y="1210" width="200" height="40" as="geometry" />
        </mxCell>
      </root>
    </mxGraphModel>
  </diagram>
</mxfile>
